<?xml version="1.0" standalone="no"?>
<!DOCTYPE svg PUBLIC "-//W3C//DTD SVG 20010904//EN"
 "http://www.w3.org/TR/2001/REC-SVG-20010904/DTD/svg10.dtd">
<svg version="1.0" xmlns="http://www.w3.org/2000/svg"
 width="1000.000000pt" height="704.000000pt" viewBox="0 0 1000.000000 704.000000"
 preserveAspectRatio="xMidYMid meet">
<metadata>
Created by potrace 1.16, written by Peter Selinger 2001-2019
</metadata>
<g transform="translate(0.000000,704.000000) scale(0.100000,-0.100000)"
fill="#DC2626" stroke="none">
<path d="M694 6793 c-61 -3 -73 -7 -77 -23 -5 -18 0 -20 46 -21 29 -1 66 -3
82 -5 17 -2 100 -8 185 -12 167 -9 213 -23 230 -66 9 -25 48 -36 131 -36 25 0
68 -6 95 -14 27 -8 72 -17 99 -21 28 -4 58 -11 68 -17 10 -5 39 -13 65 -18 54
-9 96 -23 168 -56 37 -17 55 -32 62 -52 8 -25 19 -30 86 -47 83 -21 134 -57
106 -75 -8 -5 -30 -10 -47 -10 -50 0 -39 -18 15 -25 26 -4 57 -13 69 -21 12
-8 26 -14 31 -14 6 0 33 -15 61 -32 63 -41 67 -65 11 -74 -56 -9 -50 -20 15
-28 54 -6 107 -29 155 -66 22 -17 24 -22 12 -40 -17 -28 -2 -47 44 -56 19 -3
52 -19 74 -35 31 -23 40 -36 40 -59 0 -23 7 -33 31 -45 45 -24 154 -114 154
-128 0 -7 -18 -13 -42 -15 -24 -2 -43 -7 -43 -13 0 -9 14 -13 39 -10 7 2 20
-5 30 -14 9 -9 37 -29 64 -45 52 -33 65 -73 27 -85 -27 -9 -25 -25 3 -25 27 0
143 -74 158 -101 5 -11 7 -24 4 -29 -4 -6 -86 -10 -204 -10 l-198 0 -19 -35
c-12 -23 -26 -35 -40 -35 -12 0 -27 -7 -34 -15 -7 -8 -34 -15 -63 -17 -49 -3
-52 -5 -57 -33 -5 -27 -11 -31 -55 -41 l-50 -11 42 -7 c23 -4 47 -14 54 -22 6
-8 26 -14 43 -14 l31 0 -29 23 -29 23 28 22 c19 15 42 22 71 22 30 0 44 4 44
13 0 22 42 51 110 75 55 19 86 22 203 22 148 0 133 4 263 -68 28 -16 30 -27 7
-41 -27 -15 -7 -26 59 -31 73 -6 94 -26 63 -60 -19 -21 -19 -23 -2 -35 9 -6
17 -21 17 -31 0 -29 12 -41 45 -48 80 -17 121 -72 73 -97 -13 -6 -24 -13 -26
-14 -2 -2 9 -15 23 -29 19 -19 24 -32 19 -49 -9 -32 -17 -38 -63 -44 -40 -6
-58 -23 -23 -23 35 0 122 -48 122 -68 0 -26 -20 -42 -53 -42 -26 0 -28 -2 -22
-29 6 -28 4 -30 -32 -37 -21 -3 -63 -13 -93 -20 -65 -17 -173 -18 -202 -3 -16
9 -24 7 -39 -10 -13 -13 -32 -21 -54 -21 -75 0 -112 38 -60 62 14 6 25 15 25
20 0 4 27 8 59 8 51 0 61 -3 66 -20 7 -23 16 -25 33 -8 19 19 15 26 -30 49
-36 19 -47 20 -75 10 -37 -14 -97 -6 -114 15 -6 8 -23 14 -38 14 l-26 0 28
-23 c26 -21 27 -23 12 -44 -14 -20 -25 -23 -86 -23 -64 0 -161 22 -182 40 -5
4 5 17 22 29 34 24 119 41 169 34 35 -6 45 12 12 22 -24 8 -25 22 -4 46 22 25
12 45 -26 53 -72 14 -111 -3 -55 -24 32 -12 32 -23 -2 -50 -19 -15 -37 -20
-58 -17 -74 12 -186 70 -168 88 5 5 50 10 101 10 71 1 92 5 92 15 0 11 -17 14
-66 14 -71 0 -118 17 -270 98 -26 14 -32 43 -11 60 7 6 50 12 95 13 64 1 87
-2 101 -15 9 -9 23 -16 29 -16 7 0 12 -7 12 -15 0 -9 9 -15 25 -15 32 0 32 18
0 26 -19 5 -25 13 -25 34 l0 28 -137 4 c-103 4 -146 9 -168 21 -16 9 -38 17
-48 17 -26 0 -16 -23 13 -30 29 -7 35 -23 15 -40 -13 -11 -12 -15 10 -36 15
-13 28 -24 31 -24 9 0 69 -45 77 -57 4 -7 14 -13 22 -13 20 0 29 -19 16 -34
-6 -7 -9 -21 -5 -29 6 -17 107 -97 137 -109 23 -10 15 -44 -16 -68 -20 -16
-19 -17 24 -38 24 -11 56 -26 72 -31 26 -10 31 -22 27 -68 -1 -17 4 -23 20
-23 31 0 81 -32 78 -49 -2 -8 -10 -17 -18 -22 -28 -14 -122 -39 -147 -39 -14
0 -46 -6 -72 -14 -64 -20 -126 -35 -191 -47 -30 -6 -69 -17 -87 -25 -17 -8
-42 -14 -55 -14 -12 0 -43 -6 -68 -14 -49 -15 -104 -30 -190 -51 -30 -7 -68
-18 -83 -24 -16 -6 -37 -11 -49 -11 -11 0 -34 -6 -51 -14 -33 -14 -87 -29
-172 -50 -27 -6 -60 -17 -72 -24 -12 -6 -34 -12 -48 -12 -14 0 -35 -5 -46 -11
-11 -6 -42 -17 -67 -24 -176 -50 -308 -160 -379 -315 -56 -122 -58 -130 -57
-255 0 -145 14 -191 102 -350 39 -72 256 -226 317 -225 11 0 38 -7 60 -15 82
-29 246 -10 344 41 14 8 31 14 38 14 6 0 24 6 40 14 65 32 100 46 128 52 17 4
35 11 42 16 7 6 27 14 45 18 39 10 92 28 133 45 45 20 125 45 168 54 21 5 44
14 50 20 6 6 22 11 35 11 13 0 38 7 55 15 18 8 50 19 72 24 22 5 54 14 70 19
77 25 133 41 170 48 22 3 45 10 50 14 6 4 26 11 45 14 19 4 58 13 85 21 84 23
157 40 253 61 27 5 28 21 4 48 -39 44 -46 81 -27 142 14 44 25 60 56 80 81 51
163 20 198 -75 18 -49 19 -58 6 -89 -8 -19 -12 -38 -9 -43 8 -13 48 -11 96 5
24 8 79 20 123 26 44 7 95 14 113 17 l32 5 0 -80 c0 -83 11 -108 30 -72 6 11
17 20 25 20 17 0 17 -3 15 -137 l-1 -93 32 0 c30 0 31 -1 25 -32 -18 -96 -18
-159 -1 -203 17 -45 46 -72 65 -60 6 3 10 40 10 81 0 65 2 74 18 74 13 0 23
-13 32 -40 11 -33 11 -66 1 -181 -11 -130 -11 -142 5 -160 21 -23 38 -24 58
-3 13 13 16 44 16 183 0 131 3 171 14 180 11 9 15 8 20 -5 14 -37 18 -196 8
-324 -13 -157 -7 -209 25 -221 44 -16 48 7 44 221 -3 212 1 232 43 191 21 -21
21 -28 21 -310 0 -270 1 -290 19 -310 30 -33 70 -27 95 13 28 44 27 111 -1
178 -19 45 -22 70 -21 168 2 170 10 217 35 224 37 9 41 -2 35 -104 -3 -56 -2
-114 4 -134 9 -32 14 -37 37 -34 l27 3 3 100 c3 101 12 132 30 99 11 -23 25
-122 26 -189 0 -105 -25 -511 -34 -539 -27 -79 1 -186 48 -186 18 0 28 11 44
47 20 46 21 54 10 173 -15 151 -14 294 1 499 8 106 16 156 24 159 7 2 15 -2
16 -10 2 -7 10 -29 18 -48 9 -25 15 -113 19 -313 4 -232 7 -279 20 -287 47
-30 74 15 67 112 -9 118 -28 283 -37 318 -15 55 -12 126 6 144 30 30 44 20 44
-33 0 -110 26 -142 68 -84 24 33 29 30 41 -28 6 -24 15 -64 21 -89 7 -25 13
-135 14 -250 2 -173 6 -210 20 -238 14 -26 23 -33 44 -30 20 2 28 11 34 36 7
27 11 31 27 22 26 -13 34 -77 27 -223 -3 -67 -8 -211 -11 -320 -5 -173 -4
-202 10 -224 36 -54 75 -80 75 -48 0 7 8 18 17 23 26 15 31 170 8 248 -18 60
-23 238 -17 642 2 142 2 143 25 140 20 -3 22 -8 20 -68 0 -36 -4 -93 -8 -127
-7 -60 -6 -63 16 -72 33 -11 65 11 73 52 4 18 1 83 -5 145 -10 89 -10 144 0
255 7 78 15 150 17 160 7 24 54 23 54 -2 0 -10 6 -24 14 -30 11 -10 18 -7 31
11 16 23 16 23 30 4 18 -24 18 -42 4 -235 -12 -167 -8 -185 41 -196 61 -13 63
-5 56 225 -3 113 -2 234 2 270 6 56 10 65 28 68 30 4 34 -18 34 -188 0 -80 6
-188 13 -240 6 -52 11 -133 9 -180 -1 -47 3 -106 9 -133 10 -42 14 -47 38 -47
20 0 31 9 46 37 17 31 20 54 18 142 -1 60 -8 132 -17 166 -9 32 -16 80 -16
105 0 25 -7 76 -15 115 -17 77 -20 262 -6 284 10 16 11 13 41 -66 17 -45 34
-57 59 -43 17 9 21 20 21 62 0 28 -5 67 -11 87 -8 29 -7 44 5 74 9 20 22 37
30 37 21 0 38 -54 33 -107 -20 -211 -28 -349 -22 -410 6 -61 10 -74 31 -88 32
-21 58 -12 86 28 20 28 23 43 22 127 -1 52 -9 135 -19 184 -20 99 -16 221 8
290 18 51 32 55 52 15 14 -25 16 -48 11 -108 -22 -260 -19 -291 24 -291 34 0
52 36 59 117 l6 77 39 3 c22 1 43 8 47 15 5 7 9 63 9 124 0 61 3 114 7 117 3
4 14 0 23 -8 24 -22 61 -6 84 37 16 29 17 43 8 116 -12 97 -5 136 25 140 35 5
45 25 34 71 -6 30 -5 56 5 94 8 29 14 69 14 91 l0 38 38 -5 c20 -4 71 -11 112
-17 41 -6 94 -17 118 -25 23 -8 57 -15 74 -15 17 0 54 -6 82 -14 28 -8 76 -19
106 -26 106 -21 244 -55 311 -76 26 -8 53 -14 61 -14 8 0 46 -9 84 -20 38 -12
94 -28 124 -36 30 -9 69 -20 85 -26 17 -5 50 -14 75 -20 25 -6 50 -14 55 -18
6 -5 28 -11 50 -15 22 -4 46 -12 53 -18 7 -5 29 -13 50 -18 42 -9 122 -35 167
-54 41 -17 94 -35 133 -45 18 -4 38 -12 45 -18 7 -5 28 -13 47 -17 19 -4 44
-14 55 -21 11 -8 29 -14 40 -14 11 0 29 -7 39 -15 11 -8 27 -15 36 -15 9 0 47
-9 83 -21 58 -18 86 -20 205 -17 104 3 144 8 167 21 17 9 37 17 46 17 9 0 22
7 29 15 7 8 21 15 31 15 32 0 173 149 204 215 15 33 31 68 36 78 15 28 39 166
40 228 2 65 -17 180 -36 224 -24 58 -35 80 -47 100 -27 42 -146 151 -189 172
-73 36 -146 63 -171 63 -13 0 -32 7 -42 15 -11 8 -34 15 -51 15 -17 0 -36 5
-42 11 -6 6 -37 16 -69 24 -90 21 -146 37 -181 51 -17 8 -43 14 -58 14 -14 0
-36 5 -47 11 -12 7 -47 17 -77 25 -81 18 -140 34 -191 50 -25 8 -56 14 -68 14
-13 0 -38 6 -55 14 -18 8 -57 19 -87 25 -54 10 -94 19 -195 46 -27 7 -75 18
-105 24 -95 20 -113 26 -124 43 -13 22 13 44 62 54 30 6 32 9 32 45 0 34 4 41
28 49 15 6 34 15 42 20 15 10 34 19 58 26 10 3 7 13 -12 35 -31 36 -32 47 -8
57 29 12 130 92 136 109 4 8 1 22 -5 29 -13 15 -4 34 16 34 8 0 18 6 22 13 8
12 68 57 77 57 3 0 16 11 31 24 22 21 23 25 10 36 -20 17 -14 33 15 40 29 7
39 30 13 30 -10 0 -31 -7 -48 -16 -22 -12 -67 -18 -167 -22 l-138 -5 0 -27 c0
-21 -6 -29 -25 -34 -32 -8 -32 -26 0 -26 16 0 25 6 25 15 0 8 5 15 12 15 6 0
20 8 30 17 15 13 35 16 100 14 45 -1 88 -7 95 -13 21 -17 15 -48 -12 -58 -14
-5 -25 -14 -25 -20 0 -5 -7 -10 -16 -10 -9 0 -28 -7 -42 -15 -75 -41 -123 -55
-187 -55 -49 0 -66 -3 -63 -12 3 -9 34 -14 94 -16 49 -2 93 -7 97 -11 10 -10
-60 -61 -83 -61 -9 0 -25 -7 -36 -15 -26 -19 -70 -19 -105 2 -37 22 -37 41 1
54 62 22 18 38 -60 23 -38 -8 -48 -28 -26 -53 21 -24 20 -38 -4 -46 -33 -10
-23 -28 13 -22 49 7 134 -9 167 -33 36 -25 32 -37 -15 -46 -20 -3 -38 -10 -41
-15 -3 -5 -43 -9 -89 -9 -76 0 -85 2 -100 23 -15 20 -14 23 5 39 11 9 20 19
20 22 0 12 -38 6 -49 -8 -18 -21 -77 -29 -116 -15 -31 11 -37 10 -75 -15 -34
-22 -39 -30 -29 -42 16 -19 26 -18 34 6 5 17 15 20 66 20 32 0 59 -4 59 -8 0
-5 11 -14 25 -20 52 -24 15 -62 -60 -62 -22 0 -41 8 -54 21 -15 17 -23 19 -39
10 -24 -13 -120 -14 -177 -2 -22 5 -64 14 -94 20 -65 13 -69 16 -54 40 14 23
8 31 -27 31 -30 0 -50 16 -50 42 0 20 87 68 123 68 34 0 16 17 -24 23 -46 6
-54 12 -63 44 -6 17 0 30 20 50 15 15 23 28 17 30 -31 11 -46 31 -40 55 5 19
19 29 64 44 62 20 73 29 73 58 0 10 8 25 17 31 17 12 17 14 -2 35 -31 34 -10
54 63 60 61 5 86 15 65 28 -20 13 -19 32 3 45 120 70 114 69 283 65 123 -3
162 -8 186 -21 17 -9 38 -17 47 -17 9 0 30 -16 45 -35 23 -28 35 -35 64 -35
22 0 47 -9 64 -22 l28 -22 -29 -23 -29 -23 31 0 c16 0 36 6 42 13 7 6 32 17
55 24 34 9 37 11 15 12 -49 2 -76 18 -80 48 -3 26 -6 28 -55 31 -29 2 -56 9
-63 17 -7 8 -21 15 -32 15 -11 0 -27 14 -39 35 l-21 35 -198 0 c-123 0 -201 4
-205 10 -3 6 -4 18 0 28 7 22 134 102 163 102 27 0 29 16 2 25 -38 12 -25 52
28 85 26 16 54 36 63 45 9 8 28 15 42 15 15 0 27 5 27 10 0 6 -18 10 -39 10
-74 0 -63 23 51 106 24 17 53 37 66 43 15 8 22 21 22 41 0 34 47 75 102 90 19
6 42 16 52 23 16 12 17 16 5 36 -13 20 -12 24 11 42 44 34 103 59 157 66 53 6
74 23 29 23 -71 0 -73 34 -5 78 28 17 55 32 61 32 5 0 19 6 31 14 12 8 43 17
70 21 53 7 64 25 15 25 -18 0 -40 5 -48 10 -22 14 22 56 68 65 84 15 114 29
124 58 13 36 124 89 228 107 25 4 56 13 70 19 14 6 50 15 80 20 30 5 80 14
110 20 30 6 86 14 123 17 61 5 69 8 77 30 15 39 81 64 170 64 41 0 143 5 226
12 135 10 151 13 147 29 -9 34 -316 34 -538 0 -33 -5 -87 -10 -119 -10 -33 -1
-85 -7 -115 -15 -31 -8 -83 -19 -116 -24 -86 -14 -195 -42 -290 -74 -16 -5
-43 -14 -60 -18 -56 -17 -134 -46 -147 -57 -7 -6 -28 -14 -45 -18 -18 -3 -33
-11 -33 -16 0 -5 -9 -9 -20 -9 -11 0 -29 -9 -40 -20 -11 -11 -29 -20 -39 -20
-11 0 -27 -7 -36 -16 -21 -21 -45 -11 -45 21 0 14 -6 25 -13 25 -19 0 -57 -43
-57 -63 0 -9 -53 -67 -117 -129 -65 -61 -212 -206 -326 -320 -114 -115 -212
-206 -216 -203 -5 2 -11 18 -15 35 l-6 31 -39 -21 c-36 -18 -71 -26 -71 -17 0
2 7 17 14 33 20 39 273 294 293 294 2 0 19 15 36 34 37 38 215 176 228 176 5
0 9 5 9 10 0 16 -40 12 -46 -5 -4 -8 -12 -15 -19 -15 -6 0 -20 -9 -30 -20 -10
-11 -24 -20 -32 -20 -7 0 -16 -7 -19 -15 -4 -8 -12 -15 -20 -15 -7 0 -17 -6
-21 -13 -4 -7 -33 -32 -63 -57 -30 -25 -76 -66 -101 -92 -25 -27 -51 -48 -56
-48 -12 0 -23 23 -23 50 0 16 -2 16 -40 -2 -22 -11 -40 -24 -40 -29 0 -5 -8
-9 -18 -9 -10 0 -25 -9 -35 -20 -9 -11 -24 -20 -32 -20 -8 0 -15 -7 -15 -15 0
-8 -8 -15 -18 -15 -10 0 -24 -8 -33 -17 -8 -10 -33 -33 -55 -51 -71 -59 -214
-206 -214 -219 0 -31 -35 -4 -42 32 -2 13 -10 19 -23 17 -25 -5 -64 -34 -65
-49 0 -7 -6 -13 -12 -13 -16 0 -58 -44 -58 -59 0 -6 -7 -11 -15 -11 -8 0 -15
-6 -15 -14 0 -8 -7 -16 -15 -20 -17 -6 -21 -36 -5 -36 6 0 10 4 10 10 0 5 16
24 35 43 19 19 35 39 35 46 0 6 7 11 15 11 7 0 18 7 23 16 5 9 14 14 21 10 16
-10 13 -57 -4 -80 -15 -20 -21 -76 -7 -76 4 0 18 19 32 41 26 43 276 300 349
359 23 19 52 43 63 53 12 9 27 17 35 17 7 0 13 7 13 15 0 10 10 15 29 15 35 0
46 -13 26 -30 -8 -7 -15 -17 -15 -22 0 -6 -32 -51 -71 -101 -71 -91 -437 -469
-473 -489 -23 -12 -36 4 -36 46 0 24 -2 27 -15 16 -8 -7 -15 -19 -15 -27 0
-13 -40 -90 -97 -188 -12 -22 -28 -52 -34 -67 -6 -16 -15 -28 -20 -28 -5 0 -9
-7 -9 -15 0 -8 -9 -24 -20 -35 -20 -20 -27 -60 -11 -60 5 0 12 8 15 18 3 9 19
32 36 50 16 18 33 39 37 47 21 36 124 143 156 160 28 15 38 16 50 7 21 -18 5
-83 -35 -141 -17 -25 -43 -63 -57 -83 -13 -21 -28 -38 -33 -38 -4 0 -8 -6 -9
-12 0 -7 -20 -40 -44 -73 -25 -33 -58 -82 -75 -110 -86 -140 -109 -171 -139
-189 -31 -18 -41 -18 -140 -8 -58 7 -204 15 -324 18 -236 8 -245 10 -213 59
42 65 189 184 227 185 9 0 23 7 30 16 10 12 26 15 71 12 41 -3 62 0 70 9 6 7
24 13 40 13 19 0 44 11 67 31 20 16 45 38 56 47 41 35 110 158 93 168 -5 4
-14 1 -18 -6 -4 -7 -35 -42 -68 -79 -33 -36 -68 -76 -79 -89 -13 -17 -34 -25
-73 -31 -30 -4 -65 -13 -77 -19 -12 -7 -35 -12 -51 -12 -16 0 -35 -7 -42 -15
-7 -8 -19 -15 -27 -15 -8 0 -47 -19 -86 -42 -62 -36 -116 -85 -229 -206 -20
-21 -29 -22 -172 -22 -144 0 -200 -9 -161 -24 9 -3 33 -6 52 -6 42 0 84 -24
134 -77 61 -64 73 -98 71 -187 -3 -98 -29 -148 -121 -222 -52 -41 -75 -53
-127 -63 -73 -15 -94 -10 -94 19 0 15 8 22 29 26 16 4 39 15 51 26 21 20 21
26 15 137 -16 265 -25 297 -88 303 -39 4 -46 24 -13 40 37 16 15 28 -55 28
-52 0 -57 2 -68 28 -25 60 -242 242 -289 242 -6 0 -23 6 -39 14 -46 23 -128
46 -164 47 -50 1 -63 8 -120 74 -102 118 -120 136 -129 130 -9 -5 16 -59 55
-120 25 -38 62 -73 86 -80 10 -3 21 -15 24 -26 5 -14 15 -19 44 -19 21 0 43
-6 49 -13 8 -9 29 -12 70 -9 45 3 61 0 71 -12 7 -9 21 -16 30 -16 44 -1 212
-147 237 -206 13 -31 53 -52 74 -39 30 18 45 -88 59 -420 4 -110 13 -216 20
-235 6 -19 11 -87 11 -151 0 -90 3 -119 15 -129 8 -6 19 -9 25 -5 16 10 40
-14 40 -41 0 -18 -7 -25 -27 -30 -16 -3 -37 -9 -48 -13 -11 -4 -90 -7 -175 -7
l-155 1 0 30 c0 27 4 31 35 35 24 4 34 10 31 20 -7 28 -20 274 -15 282 3 4 -3
33 -12 63 -17 54 -17 57 0 90 14 25 17 44 12 72 -4 21 -9 83 -11 138 -3 55 -8
125 -13 155 -6 50 -9 55 -34 58 -26 3 -48 36 -33 50 4 4 42 9 86 12 44 3 79
10 79 15 0 10 -352 10 -435 0 -22 -2 -74 -7 -115 -10 -92 -8 -122 8 -169 87
-42 69 -96 153 -148 228 -24 33 -43 65 -43 70 0 6 -4 10 -8 10 -5 0 -34 38
-66 84 -49 71 -58 91 -59 132 -2 39 1 49 16 52 22 5 108 -67 159 -133 21 -27
50 -63 64 -80 14 -16 31 -40 37 -52 5 -13 14 -23 19 -23 15 0 8 31 -12 57 -11
14 -20 32 -20 39 0 8 -4 14 -9 14 -5 0 -14 12 -20 28 -6 15 -27 54 -46 87 -38
65 -80 149 -89 178 -8 24 -32 16 -29 -9 4 -31 -11 -48 -33 -36 -31 17 -397
392 -456 467 -61 79 -108 149 -108 165 0 5 14 10 30 10 20 0 30 -5 30 -15 0
-8 6 -15 13 -15 8 0 23 -8 35 -17 11 -10 40 -34 63 -53 73 -59 323 -316 349
-359 14 -22 28 -41 33 -41 13 0 7 56 -8 76 -17 23 -20 70 -4 80 7 4 16 -1 21
-10 5 -9 16 -16 23 -16 8 0 15 -6 15 -12 0 -13 42 -58 54 -58 3 0 6 7 6 15 0
8 -7 15 -15 15 -8 0 -15 6 -15 13 0 15 -44 57 -59 57 -6 0 -11 6 -11 13 -1 15
-40 44 -65 49 -13 2 -21 -4 -23 -17 -10 -47 -23 -46 -70 6 -51 57 -128 131
-186 181 -22 18 -47 41 -55 51 -9 9 -21 17 -29 17 -7 0 -15 7 -18 15 -4 8 -12
15 -20 15 -8 0 -22 9 -31 20 -10 11 -25 20 -35 20 -10 0 -18 4 -18 9 0 5 -18
18 -40 29 -38 18 -40 18 -40 2 0 -27 -11 -50 -23 -50 -5 0 -34 24 -63 54 -30
30 -75 72 -101 93 -27 21 -52 44 -56 51 -4 6 -14 12 -21 12 -8 0 -16 7 -20 15
-3 8 -12 15 -19 15 -8 0 -22 9 -32 20 -10 11 -24 20 -30 20 -7 0 -15 7 -19 15
-6 16 -46 21 -46 5 0 -5 11 -12 24 -16 14 -3 27 -12 30 -20 3 -8 10 -14 16
-14 5 0 18 -8 29 -17 10 -10 31 -28 47 -40 16 -12 51 -42 77 -67 26 -25 50
-46 51 -46 22 0 286 -270 286 -291 0 -10 5 -19 10 -19 6 0 10 -4 10 -10 0 -16
-27 -12 -71 10 l-39 21 -6 -31 c-4 -17 -10 -33 -15 -35 -4 -3 -102 88 -216
203 -114 114 -261 258 -325 320 -65 61 -118 119 -118 129 -1 24 -34 63 -54 63
-10 0 -16 -9 -16 -25 0 -31 -28 -45 -42 -22 -5 10 -18 17 -29 17 -12 0 -32 9
-46 20 -14 11 -34 20 -44 20 -11 0 -19 5 -19 10 0 6 -6 10 -13 10 -7 0 -30 9
-52 20 -22 11 -44 20 -50 20 -5 1 -28 9 -50 20 -22 11 -50 19 -62 20 -12 0
-34 6 -50 14 -27 14 -51 21 -173 51 -30 7 -71 18 -90 24 -19 6 -50 11 -68 11
-19 0 -57 6 -85 14 -29 8 -100 17 -160 20 -59 4 -118 11 -130 15 -27 11 -301
20 -403 14z m7516 -202 c0 -22 -66 -65 -87 -57 -8 4 -13 16 -11 28 2 16 14 26
43 34 54 17 55 17 55 -5z m-6334 1 c20 -12 27 -51 11 -58 -18 -7 -87 34 -87
52 0 15 56 20 76 6z m274 -112 c13 -11 31 -20 40 -20 14 0 40 -37 40 -55 0
-10 -59 -4 -81 8 -47 24 -89 59 -89 73 0 22 63 18 90 -6z m5790 2 c0 -11 -10
-24 -22 -31 -13 -6 -36 -20 -53 -30 -26 -17 -95 -29 -95 -16 0 18 26 55 40 55
9 0 27 9 40 20 31 26 90 28 90 2z m-5551 -175 c17 -14 49 -33 79 -46 12 -6 22
-15 22 -21 0 -5 7 -10 15 -10 9 0 19 -8 22 -17 4 -10 13 -23 21 -29 11 -8 12
-13 3 -18 -12 -8 -91 32 -91 46 0 4 -6 8 -13 8 -8 0 -22 9 -32 20 -10 11 -24
20 -32 20 -7 0 -16 7 -19 15 -4 8 -12 15 -19 15 -7 0 -18 6 -24 14 -23 27 34
29 68 3z m5289 4 c2 -7 -5 -15 -17 -18 -12 -3 -21 -9 -21 -12 0 -9 -78 -61
-90 -61 -5 0 -10 -4 -12 -8 -7 -16 -78 -53 -89 -46 -9 5 -8 10 3 18 8 6 17 19
21 29 3 9 13 17 22 17 8 0 15 4 15 9 0 5 21 22 48 37 98 58 111 62 120 35z
m-4529 -562 c48 -27 119 -78 157 -114 6 -5 32 -28 59 -50 26 -22 67 -66 91
-97 35 -45 44 -64 44 -97 0 -22 -5 -43 -10 -46 -9 -5 -329 306 -381 370 -19
23 -34 65 -23 65 4 0 32 -14 63 -31z m3765 9 c-9 -32 -18 -41 -216 -241 -97
-99 -182 -176 -188 -172 -5 3 -10 24 -10 46 0 48 49 118 131 189 29 25 57 50
63 55 24 23 102 82 116 89 8 4 33 18 55 31 50 31 58 31 49 3z m-3352 -968 c53
-23 73 -43 64 -66 -13 -33 -286 2 -286 36 0 14 102 49 141 49 20 1 57 -8 81
-19z m3043 -1 c30 -11 55 -24 55 -29 0 -18 -100 -43 -188 -47 -77 -4 -93 -2
-98 11 -8 22 11 43 60 65 54 25 103 25 171 0z m-2980 -129 c0 -11 -16 -17 -60
-21 -33 -4 -77 -10 -97 -14 -44 -8 -49 4 -18 35 18 18 31 20 98 18 60 -2 77
-6 77 -18z m2925 0 c29 -29 25 -44 -7 -36 -16 3 -59 9 -96 12 -37 4 -70 11
-73 15 -12 21 12 29 82 29 61 0 78 -4 94 -20z m-2335 -47 c4 -16 10 -46 15
-68 5 -22 11 -83 12 -135 3 -83 1 -95 -14 -98 -12 -2 -19 5 -24 25 -23 103
-56 148 -139 193 -73 39 -85 48 -85 66 0 11 18 14 78 14 53 0 84 5 98 15 30
23 53 18 59 -12z m-290 -13 c8 -12 -24 -60 -40 -60 -27 0 -49 -40 -48 -91 1
-41 6 -56 29 -80 15 -16 33 -29 40 -29 6 0 17 -7 24 -15 7 -8 21 -15 32 -15
10 0 36 -9 58 -20 22 -11 48 -20 60 -20 28 0 138 -53 178 -87 18 -15 53 -54
78 -86 l44 -59 0 -104 c0 -91 -3 -111 -25 -153 -26 -53 -95 -119 -150 -145
-19 -10 -35 -22 -35 -27 0 -6 -12 -9 -27 -7 -23 2 -29 9 -31 33 -3 26 3 33 42
54 44 25 76 71 76 111 0 35 -65 140 -87 140 -8 0 -30 12 -48 26 -19 14 -49 30
-67 34 -108 28 -221 83 -273 135 -63 62 -82 252 -33 333 28 46 89 112 103 112
7 0 18 7 25 15 14 17 65 20 75 5z m-1158 -76 c10 -26 -9 -46 -57 -60 -62 -19
-77 -17 -91 8 -10 19 -8 25 15 45 34 29 123 33 133 7z m4599 -7 c23 -20 25
-26 15 -45 -14 -26 -27 -27 -92 -6 -52 17 -66 32 -55 59 9 25 99 20 132 -8z
m-4233 -107 c4 -36 7 -72 7 -80 -4 -151 3 -457 11 -466 6 -7 9 -30 7 -51 -3
-32 -7 -38 -28 -41 -22 -2 -30 4 -48 41 -12 24 -22 53 -22 64 0 11 -7 26 -15
33 -8 7 -15 18 -15 25 0 7 -16 48 -35 92 -20 43 -42 92 -49 108 -7 17 -30 64
-50 106 -20 42 -36 82 -36 90 0 8 -7 25 -16 37 -9 13 -13 31 -9 43 6 17 12 20
33 14 68 -16 86 -16 130 0 26 10 58 27 71 37 41 32 55 20 64 -52z m2560 -57
l15 -27 13 22 c18 29 50 28 97 -2 57 -36 95 -79 118 -137 18 -43 19 -58 11
-88 -6 -20 -10 -67 -9 -106 3 -120 3 -249 0 -279 -3 -27 1 -31 33 -37 22 -5
49 -3 75 6 l39 13 7 89 c4 48 12 111 18 138 5 28 14 93 20 145 5 52 14 110 19
129 12 40 8 51 -22 51 -32 0 -50 15 -45 36 4 22 35 23 178 7 95 -11 128 -26
136 -63 12 -53 13 -54 47 -18 92 97 205 86 233 -24 23 -93 -21 -168 -99 -168
-60 0 -80 23 -85 100 -2 33 -8 60 -13 60 -5 0 -9 -4 -9 -10 0 -5 -22 -21 -48
-34 l-49 -25 -8 -98 c-4 -54 -6 -105 -5 -113 6 -52 -4 -197 -16 -225 -20 -48
-18 -55 15 -55 27 0 47 -20 34 -34 -10 -9 -152 -6 -213 5 -94 17 -192 29 -275
33 -44 3 -91 5 -105 6 -83 5 -123 14 -140 32 -18 19 -18 19 -85 -17 -63 -34
-69 -35 -91 -20 -13 8 -32 15 -42 15 -11 0 -31 9 -45 20 -14 11 -28 20 -30 20
-3 0 -20 13 -38 29 -24 22 -34 42 -40 78 -24 147 50 250 194 268 62 8 61 25
-2 25 -43 0 -53 4 -76 32 -24 29 -27 38 -21 82 11 100 105 161 253 165 36 1
44 -3 56 -26z m1152 -124 c22 -6 65 -14 95 -19 31 -5 72 -16 93 -25 34 -14 37
-18 37 -58 0 -52 15 -82 26 -52 16 45 100 95 159 95 44 0 89 -42 106 -99 10
-33 9 -46 -7 -84 -19 -47 -66 -87 -101 -87 -12 0 -35 11 -52 25 -24 21 -31 36
-36 80 -4 30 -11 55 -16 55 -5 0 -9 -4 -9 -10 0 -5 -13 -10 -29 -10 -44 0 -67
-36 -74 -114 -3 -36 -12 -74 -19 -85 -10 -17 -10 -25 0 -41 14 -23 16 -56 3
-64 -4 -3 -11 -35 -15 -72 -4 -36 -14 -76 -22 -89 -19 -29 -11 -45 21 -45 30
0 38 -12 22 -34 -10 -13 -18 -14 -47 -6 -19 5 -52 10 -74 10 -39 0 -149 21
-221 43 -55 17 -55 45 2 72 39 17 43 23 49 65 4 25 10 50 15 56 4 5 13 41 18
80 14 93 29 170 47 225 8 26 14 65 14 87 0 36 -3 41 -30 51 -19 6 -30 17 -30
29 0 35 11 38 75 21z m-4916 -105 c12 -19 21 -40 21 -46 0 -6 9 -30 20 -54 50
-110 59 -131 62 -154 2 -19 -2 -26 -18 -28 -16 -2 -24 4 -32 28 -6 16 -42 61
-79 99 -64 66 -71 70 -125 76 -31 4 -65 13 -75 21 -17 13 -17 15 1 29 12 9 41
15 75 15 45 0 62 5 86 25 17 13 33 24 37 25 3 0 15 -16 27 -36z m-281 -106 c2
-13 -4 -31 -12 -38 -20 -16 -21 -63 -2 -98 28 -54 56 -119 56 -130 0 -6 7 -24
15 -41 8 -17 22 -45 30 -62 8 -17 15 -36 15 -42 0 -21 64 -176 84 -205 5 -7
20 -45 34 -85 25 -75 55 -117 81 -117 18 0 61 -39 61 -56 0 -22 -36 -35 -65
-24 -14 5 -40 10 -56 10 -33 0 -109 35 -109 50 0 6 -8 10 -18 10 -20 0 -52 21
-91 61 -155 156 -207 292 -195 504 6 105 42 200 97 259 40 42 70 44 75 4z
m1082 -13 c27 -19 57 -35 65 -35 19 0 64 -72 115 -183 17 -37 23 -68 23 -136
1 -81 -1 -92 -27 -132 -41 -63 -145 -159 -172 -159 -31 0 -39 17 -20 39 18 20
20 77 5 136 -6 22 -16 68 -24 103 -7 34 -17 68 -23 75 -5 6 -13 32 -17 56 -4
25 -20 66 -36 91 -16 26 -29 52 -29 57 0 15 -43 51 -65 55 -25 4 -31 31 -10
52 12 12 36 16 91 16 69 0 78 -3 124 -35z m5018 -7 c4 -46 14 -48 29 -7 11 28
14 29 35 18 48 -25 131 -109 150 -151 16 -35 19 -60 16 -135 -3 -80 -6 -96
-25 -115 -21 -20 -24 -21 -40 -5 -11 9 -51 20 -98 26 -44 6 -107 19 -139 30
-32 10 -65 17 -72 14 -15 -6 -31 -76 -37 -165 -4 -63 -3 -67 24 -87 58 -43
237 -13 255 42 12 39 84 59 84 23 0 -18 -54 -96 -87 -127 -41 -38 -112 -62
-165 -56 -61 8 -149 30 -175 45 -12 6 -28 12 -36 12 -21 0 -97 90 -97 115 0
11 -8 32 -17 45 -23 33 -22 193 2 239 8 17 15 36 15 44 0 13 17 45 71 135 8
15 25 29 36 32 11 3 32 19 46 35 24 30 26 30 123 30 l99 0 3 -37z m-3975 -9
c23 -94 40 -147 54 -174 20 -37 93 -115 109 -115 25 0 105 -42 101 -53 -2 -8
-37 -13 -98 -15 -68 -2 -97 -7 -105 -17 -6 -8 -22 -16 -35 -17 -22 -3 -24 1
-31 59 -3 34 -11 79 -17 100 -6 21 -11 63 -11 93 -1 30 -5 75 -10 100 -14 76
25 112 43 39z m-1341 -54 c4 -22 14 -75 21 -118 8 -43 19 -83 26 -90 6 -6 11
-23 11 -37 0 -27 32 -133 55 -185 8 -16 16 -41 19 -55 5 -26 48 -77 82 -96 18
-11 17 -13 -11 -24 -36 -14 -150 2 -206 30 -74 38 -157 149 -174 235 -3 17
-11 49 -17 72 -21 83 33 234 99 280 62 44 86 41 95 -12z m5848 -80 c14 -7 53
-24 88 -36 72 -27 83 -46 62 -109 -7 -21 -10 -42 -6 -48 3 -5 -3 -17 -13 -26
-10 -9 -21 -31 -25 -49 -5 -28 -17 -57 -48 -120 -4 -9 -5 -35 -2 -56 4 -24 2
-41 -5 -45 -6 -4 -11 -15 -11 -24 0 -22 -42 -126 -60 -147 -15 -18 -6 -31 24
-37 27 -4 31 -25 7 -37 -13 -8 -28 -8 -46 -1 -14 5 -39 10 -54 10 -16 0 -34 7
-41 15 -7 8 -22 15 -33 15 -11 0 -38 9 -61 19 -23 11 -62 29 -88 40 -27 12
-48 23 -48 26 0 15 42 44 76 52 35 8 39 12 46 51 4 23 14 52 22 64 9 12 16 32
16 43 0 11 7 29 15 39 8 11 15 29 15 40 1 12 9 39 20 61 11 22 19 45 20 52 0
6 6 24 14 40 41 84 49 136 21 141 -29 6 -45 21 -38 38 4 11 17 13 57 8 28 -4
62 -12 76 -19z m393 -131 c47 -47 54 -85 28 -145 -33 -75 -76 -98 -141 -76
-38 13 -47 34 -49 110 -1 44 -12 60 -26 37 -13 -21 -35 -10 -35 18 1 30 29 55
88 77 65 24 95 19 135 -21z m-6524 -109 c2 -11 18 -53 37 -93 19 -40 34 -78
34 -85 0 -7 16 -43 35 -80 19 -37 35 -71 35 -77 0 -13 -74 -50 -100 -50 -11 0
-37 -18 -59 -41 -45 -48 -74 -50 -79 -5 -3 22 5 35 35 62 l38 34 0 122 c-1 93
-5 132 -18 162 -26 58 -23 78 10 74 18 -2 29 -10 32 -23z"/>
<path d="M5586 4291 c-4 -5 -1 -22 5 -38 13 -35 4 -84 -21 -113 -26 -30 -16
-43 27 -35 18 3 43 3 55 -1 17 -5 19 -12 15 -41 -7 -41 -23 -63 -46 -63 -9 0
-33 -11 -54 -25 -37 -25 -37 -26 -37 -93 0 -101 38 -138 98 -96 21 14 23 14
32 -10 14 -38 20 -32 19 22 0 26 2 145 5 264 6 208 5 218 -13 228 -24 12 -78
13 -85 1z"/>
<path d="M7700 3938 c-19 -5 -39 -13 -44 -18 -4 -4 -12 -39 -16 -77 -5 -37
-12 -79 -16 -93 -6 -21 -5 -23 7 -13 9 7 37 10 76 7 71 -6 73 -3 73 108 0 102
-5 108 -80 86z"/>
<path d="M310 6750 c-12 -8 -12 -10 4 -16 26 -10 247 3 260 16 13 13 -243 14
-264 0z"/>
<path d="M9426 6750 c12 -12 235 -26 260 -16 16 6 16 8 4 16 -21 13 -277 13
-264 0z"/>
<path d="M133 6723 c-51 -10 -9 -53 52 -53 34 0 47 5 59 22 8 12 13 25 10 30
-5 8 -80 9 -121 1z"/>
<path d="M9746 6722 c-3 -5 2 -18 10 -30 26 -38 134 -24 134 17 0 18 -134 29
-144 13z"/>
<path d="M276 6651 c-7 -11 27 -21 72 -21 34 0 43 14 16 24 -24 9 -82 7 -88
-3z"/>
<path d="M845 6648 c-2 -7 -5 -22 -7 -33 -2 -16 -12 -21 -46 -23 -23 -2 -42
-7 -42 -13 0 -5 1 -9 3 -9 1 0 62 -3 135 -7 138 -6 166 2 100 31 -18 7 -44 25
-57 40 -26 28 -78 36 -86 14z"/>
<path d="M9070 6634 c-14 -15 -40 -33 -57 -40 -65 -28 -39 -37 85 -31 64 4
125 7 135 7 36 0 15 19 -25 22 -39 3 -43 6 -48 33 -7 42 -55 47 -90 9z"/>
<path d="M9633 6653 c-25 -9 -13 -23 20 -23 44 0 78 10 71 21 -5 9 -70 11 -91
2z"/>
<path d="M392 6618 c3 -7 16 -15 29 -18 44 -10 144 -51 169 -70 21 -17 23 -21
10 -30 -8 -5 -32 -10 -52 -10 -20 0 -43 -3 -51 -6 -13 -5 -13 -8 2 -23 20 -20
125 -71 146 -71 7 0 18 -7 25 -15 7 -8 25 -15 39 -15 37 0 59 -19 63 -54 2
-16 10 -32 18 -36 14 -7 70 -32 145 -65 17 -7 46 -20 65 -28 80 -32 135 -63
133 -72 -1 -5 -20 -14 -42 -18 -25 -5 -41 -14 -41 -22 0 -32 131 -109 403
-235 26 -12 47 -26 47 -30 0 -5 -15 -12 -32 -15 -41 -9 -88 -33 -88 -45 0 -4
12 -15 28 -23 109 -56 207 -109 211 -113 3 -2 -10 -17 -29 -32 -32 -27 -35
-52 -6 -52 8 0 19 -6 25 -14 7 -8 26 -18 42 -21 16 -4 29 -11 29 -16 0 -5 12
-12 28 -15 15 -4 34 -12 42 -19 8 -7 24 -15 34 -16 33 -7 29 -28 -8 -43 -25
-10 -36 -21 -36 -35 0 -12 6 -21 13 -21 8 0 22 -9 31 -19 23 -26 45 -16 43 17
l-2 27 148 3 c122 2 147 5 147 17 0 11 -13 15 -47 15 -89 1 -228 38 -303 82
-8 4 -22 11 -30 14 -37 13 -99 50 -100 59 -4 30 254 30 306 0 20 -12 37 -16
50 -11 17 8 15 10 -13 22 -25 11 -33 20 -33 39 0 28 -14 32 -36 10 -9 -8 -27
-15 -42 -15 -44 0 -162 38 -273 89 -25 12 -51 21 -56 21 -5 0 -20 11 -33 25
l-23 25 24 8 c40 15 279 4 296 -14 16 -16 48 -15 48 1 0 6 -12 11 -27 13 -21
3 -28 9 -28 26 0 36 19 46 91 46 83 0 136 9 117 21 -7 5 -26 9 -43 9 -16 0
-48 9 -70 20 -22 11 -45 19 -51 20 -6 0 -25 7 -43 16 -25 12 -36 13 -44 5 -9
-9 -6 -13 10 -17 19 -5 33 -30 33 -61 0 -7 -15 -19 -34 -27 -48 -20 -118 -3
-283 70 -18 8 -47 21 -65 29 -18 7 -67 30 -109 49 -42 20 -81 36 -86 36 -5 0
-20 11 -33 25 -37 39 -17 49 71 35 41 -6 117 -17 170 -24 53 -8 106 -19 119
-26 27 -14 41 -3 34 26 -5 18 -16 23 -72 28 -37 4 -98 18 -137 32 -38 14 -88
30 -110 35 -21 6 -44 14 -50 18 -5 5 -26 14 -45 19 -19 6 -60 20 -90 32 -30
12 -72 26 -93 32 -27 8 -37 16 -35 27 3 14 17 16 99 13 61 -3 99 0 103 7 7 10
-5 14 -69 25 -39 6 -139 32 -195 51 -25 8 -56 15 -70 15 -14 1 -34 7 -44 15
-11 8 -31 15 -45 15 -14 0 -33 5 -41 10 -34 22 13 31 136 27 109 -4 159 2 143
17 -3 3 -32 10 -65 15 -62 9 -102 22 -170 52 -23 11 -46 19 -52 19 -6 0 -19
15 -28 33 -9 17 -18 34 -20 36 -8 9 -136 30 -187 31 -43 0 -58 -3 -55 -12z"/>
<path d="M9427 6616 c-66 -15 -59 -11 -81 -53 -9 -18 -22 -33 -28 -33 -6 0
-29 -8 -52 -19 -66 -30 -108 -43 -163 -51 -28 -5 -57 -11 -63 -15 -28 -17 12
-23 134 -18 101 5 135 3 141 -7 10 -16 -12 -30 -51 -30 -17 0 -37 -7 -44 -15
-7 -8 -24 -15 -39 -15 -15 0 -52 -9 -84 -20 -31 -11 -65 -20 -76 -20 -10 0
-35 -7 -54 -15 -20 -8 -50 -15 -66 -15 -37 0 -62 -10 -55 -21 3 -5 50 -9 105
-9 77 0 99 -3 99 -14 0 -7 -17 -18 -37 -24 -21 -6 -63 -20 -93 -32 -30 -12
-69 -26 -87 -31 -18 -5 -45 -16 -60 -24 -15 -8 -37 -15 -49 -15 -11 0 -29 -7
-40 -15 -10 -8 -30 -15 -44 -15 -14 0 -37 -6 -51 -14 -15 -8 -59 -17 -97 -21
-60 -6 -71 -10 -76 -28 -8 -33 6 -39 55 -23 60 20 321 59 342 50 46 -17 -5
-50 -233 -151 -19 -8 -53 -23 -75 -33 -22 -9 -56 -24 -75 -33 -85 -37 -207
-46 -225 -16 -13 19 6 67 28 73 17 4 19 8 9 18 -10 10 -19 9 -45 -4 -56 -30
-137 -58 -165 -58 -15 0 -33 -4 -40 -9 -19 -12 34 -21 117 -21 72 0 91 -10 91
-46 0 -17 -7 -24 -25 -26 -14 -2 -24 -7 -23 -13 4 -13 40 -8 49 7 8 12 293 18
305 5 8 -8 -34 -57 -49 -57 -5 0 -31 -9 -56 -21 -111 -51 -229 -89 -273 -89
-15 0 -33 7 -42 15 -22 22 -36 18 -36 -10 0 -19 -8 -28 -32 -39 -29 -12 -31
-14 -14 -22 13 -5 30 -1 49 10 53 30 302 33 310 3 1 -5 -20 -20 -48 -34 -27
-15 -57 -30 -65 -35 -8 -4 -22 -11 -30 -14 -8 -3 -28 -12 -45 -19 -28 -14 -66
-24 -160 -45 -22 -5 -61 -9 -87 -10 -35 0 -48 -4 -48 -15 0 -12 25 -15 148
-17 l147 -3 -3 -27 c-4 -36 15 -45 42 -19 12 12 28 21 34 21 7 0 12 9 12 21 0
14 -11 25 -36 35 -37 15 -41 36 -8 43 10 1 26 9 34 16 8 7 27 15 43 19 15 3
27 10 27 15 0 5 13 12 30 16 16 4 33 11 36 16 3 6 17 14 30 19 32 12 30 25 -6
52 -16 12 -30 25 -30 30 0 4 43 29 95 55 137 69 145 73 145 83 0 12 -46 36
-87 45 -39 8 -42 22 -8 35 87 33 337 164 389 204 47 36 46 53 -5 63 -22 4 -41
13 -42 18 -2 9 53 40 133 72 40 17 67 29 163 73 59 27 67 34 67 58 0 37 17 52
56 52 17 0 37 7 44 15 7 8 19 15 28 15 20 0 101 40 134 66 31 25 21 34 -40 34
-20 0 -44 5 -52 10 -13 9 -11 13 10 30 14 11 36 23 50 26 14 4 35 13 47 20 13
8 39 18 58 22 20 4 37 12 38 17 3 15 -109 15 -176 1z"/>
<path d="M1035 6551 c-7 -12 31 -25 46 -15 8 4 7 9 -2 15 -18 11 -36 11 -44 0z"/>
<path d="M8921 6551 c-9 -6 -10 -11 -2 -15 15 -10 53 3 46 15 -8 11 -26 11
-44 0z"/>
<path d="M1125 6510 c3 -5 20 -10 36 -10 18 0 28 4 24 10 -3 6 -20 10 -36 10
-18 0 -28 -4 -24 -10z"/>
<path d="M8815 6510 c-4 -6 6 -10 24 -10 16 0 33 5 36 10 4 6 -6 10 -24 10
-16 0 -33 -4 -36 -10z"/>
<path d="M1216 6482 c-12 -20 49 -60 99 -66 182 -21 253 -33 272 -44 32 -18
61 -15 80 8 10 11 27 20 40 20 12 0 25 5 28 10 10 16 -61 12 -75 -5 -16 -19
-86 -20 -93 -2 -3 8 -31 19 -64 25 -67 12 -128 27 -194 48 -53 16 -85 18 -93
6z"/>
<path d="M2350 6481 c0 -6 4 -12 9 -15 13 -8 42 4 35 15 -7 12 -44 12 -44 0z"/>
<path d="M7606 6481 c-7 -11 14 -20 32 -14 6 3 12 9 12 14 0 12 -37 12 -44 0z"/>
<path d="M8690 6475 c-14 -8 -37 -14 -52 -15 -15 0 -39 -5 -55 -11 -15 -7 -55
-17 -88 -23 -32 -6 -59 -15 -60 -21 0 -17 70 -17 165 -1 49 9 100 16 113 16
25 0 82 52 70 63 -11 12 -67 7 -93 -8z"/>
<path d="M2427 6454 c-10 -11 3 -24 24 -24 23 0 25 15 3 24 -19 7 -19 7 -27 0z"/>
<path d="M7540 6450 c-12 -8 -12 -10 2 -15 20 -8 41 2 33 16 -8 11 -16 11 -35
-1z"/>
<path d="M1010 6421 c-23 -7 -23 -8 -5 -14 11 -3 56 -9 100 -12 77 -7 145 -33
145 -56 0 -5 9 -9 19 -9 21 0 84 -54 74 -64 -3 -3 -22 -6 -42 -6 -47 0 -82
-10 -75 -21 3 -5 22 -9 42 -9 20 0 50 -7 66 -15 40 -21 66 -19 66 4 0 14 8 21
27 23 39 4 43 35 6 43 -15 3 -41 12 -56 20 -16 8 -36 15 -46 15 -9 0 -24 9
-34 20 -9 11 -24 20 -32 20 -8 0 -15 4 -15 8 0 5 -8 18 -17 29 -15 16 -35 21
-108 26 -49 3 -101 2 -115 -2z"/>
<path d="M8846 6423 c-45 -3 -64 -9 -78 -25 -24 -28 -8 -45 23 -25 13 9 60 18
104 22 44 4 89 9 100 13 17 5 16 7 -10 13 -32 7 -47 7 -139 2z"/>
<path d="M2490 6410 c0 -5 9 -10 20 -10 11 0 20 5 20 10 0 6 -9 10 -20 10 -11
0 -20 -4 -20 -10z"/>
<path d="M7470 6410 c0 -5 9 -10 20 -10 11 0 20 5 20 10 0 6 -9 10 -20 10 -11
0 -20 -4 -20 -10z"/>
<path d="M8265 6410 c3 -5 16 -10 28 -10 13 0 30 -9 40 -20 19 -22 48 -26 78
-9 28 15 14 29 -24 22 -23 -3 -37 0 -46 11 -15 17 -87 23 -76 6z"/>
<path d="M1680 6334 c-6 -14 -10 -27 -10 -30 0 -2 29 -4 65 -4 37 0 65 4 65
10 0 6 -8 10 -18 10 -10 0 -26 6 -37 13 -41 28 -55 28 -65 1z"/>
<path d="M8713 6353 c-22 -8 -14 -23 12 -23 16 0 25 6 25 15 0 15 -14 18 -37
8z"/>
<path d="M8256 6335 c-11 -8 -28 -15 -38 -15 -10 0 -18 -4 -18 -10 0 -6 29
-10 66 -10 56 0 65 2 60 16 -3 9 -6 20 -6 25 0 14 -43 10 -64 -6z"/>
<path d="M8620 6305 c-14 -8 -38 -17 -53 -20 -37 -8 -33 -39 6 -43 19 -2 27
-9 27 -23 0 -23 26 -25 66 -4 16 8 46 15 66 15 20 0 39 4 42 9 7 11 -28 21
-75 21 -49 0 -55 10 -22 37 l28 22 -30 0 c-16 -1 -41 -7 -55 -14z"/>
<path d="M1616 6268 c-20 -29 -12 -38 33 -38 24 0 48 -8 65 -21 25 -20 71 -23
71 -5 0 6 -16 14 -35 19 -19 5 -37 12 -40 15 -7 9 -68 52 -74 52 -3 0 -12 -10
-20 -22z"/>
<path d="M8330 6270 c-14 -11 -31 -25 -39 -32 -7 -6 -27 -14 -44 -17 -17 -4
-32 -12 -35 -19 -6 -20 47 -14 75 8 15 12 41 20 63 20 47 0 53 7 33 36 -18 29
-21 29 -53 4z"/>
<path d="M1806 6183 c-4 -4 3 -15 15 -24 21 -15 21 -17 4 -42 -9 -15 -27 -28
-39 -28 -50 -4 -111 4 -143 18 -43 18 -63 11 -63 -20 0 -24 0 -24 144 -29 161
-6 181 -14 217 -78 12 -21 44 -53 70 -70 49 -32 58 -44 39 -55 -16 -10 -12
-25 8 -31 9 -3 32 -13 49 -22 26 -13 35 -14 45 -4 9 9 5 13 -20 18 -35 7 -40
19 -16 45 14 15 13 19 -12 38 -15 11 -33 21 -41 21 -20 0 -73 41 -73 56 0 16
60 28 98 21 15 -3 36 -2 47 2 17 7 17 8 -7 14 -14 4 -39 4 -55 1 -17 -3 -46 2
-73 14 -25 10 -61 22 -80 26 -34 6 -79 50 -66 64 4 3 49 8 101 10 52 3 95 8
95 12 0 4 -29 10 -64 14 -36 3 -80 13 -100 21 -38 16 -69 19 -80 8z"/>
<path d="M8119 6176 c-14 -7 -56 -17 -93 -20 -36 -4 -66 -11 -66 -16 0 -4 40
-9 90 -12 49 -2 92 -7 96 -10 13 -14 -32 -58 -66 -63 -19 -4 -56 -16 -82 -27
-30 -13 -55 -18 -72 -14 -14 3 -38 3 -53 0 -27 -7 -27 -7 -4 -16 12 -4 34 -5
47 -2 33 9 94 -4 94 -20 0 -15 -47 -51 -80 -59 -14 -4 -34 -14 -44 -22 -18
-14 -18 -16 -3 -33 25 -27 21 -39 -15 -46 -25 -5 -29 -9 -20 -18 10 -10 19 -9
45 4 17 9 40 19 50 22 18 6 24 26 7 26 -26 0 -5 32 39 60 26 17 58 49 70 70
36 64 56 72 217 78 l144 5 0 28 c0 33 -23 38 -68 15 -25 -13 -87 -21 -138 -17
-12 0 -30 13 -39 28 -17 25 -17 27 4 42 39 30 -10 43 -60 17z"/>
<path d="M1433 6169 c11 -7 23 -7 35 0 14 9 11 10 -18 10 -29 0 -32 -1 -17
-10z"/>
<path d="M8534 6171 c3 -5 15 -7 26 -4 28 7 25 13 -6 13 -14 0 -23 -4 -20 -9z"/>
<path d="M1515 6140 c3 -5 13 -10 21 -10 8 0 14 5 14 10 0 6 -9 10 -21 10 -11
0 -17 -4 -14 -10z"/>
<path d="M8450 6140 c0 -5 6 -10 14 -10 8 0 18 5 21 10 3 6 -3 10 -14 10 -12
0 -21 -4 -21 -10z"/>
<path d="M1700 5940 c0 -6 7 -10 15 -10 8 0 15 2 15 4 0 2 -7 6 -15 10 -8 3
-15 1 -15 -4z"/>
<path d="M8275 5940 c-3 -5 3 -10 14 -10 12 0 21 5 21 10 0 6 -6 10 -14 10 -8
0 -18 -4 -21 -10z"/>
<path d="M2418 5873 c7 -3 16 -2 19 1 4 3 -2 6 -13 5 -11 0 -14 -3 -6 -6z"/>
<path d="M2185 5770 c3 -5 15 -10 26 -10 10 0 19 5 19 10 0 6 -12 10 -26 10
-14 0 -23 -4 -19 -10z"/>
<path d="M7770 5770 c0 -5 9 -10 19 -10 11 0 23 5 26 10 4 6 -5 10 -19 10 -14
0 -26 -4 -26 -10z"/>
<path d="M2285 5735 c-3 -8 -7 -22 -10 -30 -2 -8 -15 -19 -27 -24 -38 -15 -93
-70 -82 -81 7 -7 20 0 40 19 51 50 112 71 208 71 47 0 87 4 90 9 7 10 -41 21
-91 21 -18 0 -50 7 -70 15 -19 8 -40 15 -45 15 -5 0 -11 -7 -13 -15z"/>
<path d="M7655 5735 c-16 -8 -50 -14 -75 -15 -56 0 -92 -9 -84 -21 3 -5 43 -9
90 -9 96 0 157 -21 208 -71 20 -19 33 -26 40 -19 11 11 -60 80 -82 80 -7 0
-20 16 -28 35 -16 38 -24 40 -69 20z"/>
<path d="M1885 5710 c-3 -6 1 -13 10 -16 19 -8 30 0 20 15 -8 14 -22 14 -30 1z"/>
<path d="M8085 5709 c-10 -15 1 -23 20 -15 9 3 13 10 10 16 -8 13 -22 13 -30
-1z"/>
<path d="M1972 5648 c3 -21 10 -23 62 -26 64 -3 99 13 50 23 -16 3 -43 10 -60
15 -46 15 -56 12 -52 -12z"/>
<path d="M7970 5659 c-14 -4 -38 -11 -54 -14 -49 -10 -14 -26 50 -23 52 3 59
5 62 26 4 24 -12 27 -58 11z"/>
<path d="M3707 5614 c-8 -8 3 -34 14 -34 11 0 12 27 0 34 -4 3 -11 3 -14 0z"/>
<path d="M3752 5550 c0 -14 2 -19 5 -12 2 6 2 18 0 25 -3 6 -5 1 -5 -13z"/>
<path d="M6242 5550 c0 -14 2 -19 5 -12 2 6 2 18 0 25 -3 6 -5 1 -5 -13z"/>
<path d="M3608 5548 c-6 -18 3 -58 13 -58 12 0 12 57 0 64 -5 4 -11 1 -13 -6z"/>
<path d="M6377 5553 c-10 -10 -9 -63 2 -63 11 0 22 53 12 63 -4 4 -10 4 -14 0z"/>
<path d="M2285 5540 c-3 -5 9 -13 27 -18 24 -6 34 -15 36 -31 5 -32 -13 -41
-80 -41 -33 0 -58 -4 -58 -10 0 -14 14 -18 82 -23 46 -3 59 0 63 12 7 22 89
54 152 59 57 5 78 18 41 27 -155 35 -251 44 -263 25z"/>
<path d="M7575 5540 c-16 -4 -56 -13 -88 -19 -31 -7 -55 -16 -52 -20 2 -5 29
-10 58 -13 64 -5 144 -37 150 -59 3 -13 16 -15 68 -11 35 2 69 10 74 17 6 7
25 16 43 19 17 4 32 12 32 17 0 15 -46 10 -60 -6 -14 -17 -115 -21 -138 -6
-26 16 -10 54 26 63 18 5 30 13 27 18 -7 12 -97 12 -140 0z"/>
<path d="M3780 5505 c0 -8 5 -15 10 -15 6 0 10 7 10 15 0 8 -4 15 -10 15 -5 0
-10 -7 -10 -15z"/>
<path d="M6200 5505 c0 -8 5 -15 10 -15 6 0 10 7 10 15 0 8 -4 15 -10 15 -5 0
-10 -7 -10 -15z"/>
<path d="M2045 5500 c3 -5 15 -10 26 -10 10 0 19 5 19 10 0 6 -12 10 -26 10
-14 0 -23 -4 -19 -10z"/>
<path d="M7910 5500 c0 -5 9 -10 19 -10 11 0 23 5 26 10 4 6 -5 10 -19 10 -14
0 -26 -4 -26 -10z"/>
<path d="M2140 5471 c0 -5 11 -12 25 -15 31 -8 54 2 34 15 -18 11 -59 11 -59
0z"/>
<path d="M3810 5465 c0 -8 5 -15 10 -15 6 0 10 7 10 15 0 8 -4 15 -10 15 -5 0
-10 -7 -10 -15z"/>
<path d="M6170 5465 c0 -8 5 -15 10 -15 6 0 10 7 10 15 0 8 -4 15 -10 15 -5 0
-10 -7 -10 -15z"/>
<path d="M7620 5399 c0 -5 5 -7 10 -4 6 3 10 8 10 11 0 2 -4 4 -10 4 -5 0 -10
-5 -10 -11z"/>
<path d="M2400 5371 c0 -19 60 -28 95 -15 13 5 14 8 3 15 -17 12 -98 11 -98 0z"/>
<path d="M3880 5365 c0 -8 5 -15 10 -15 6 0 10 7 10 15 0 8 -4 15 -10 15 -5 0
-10 -7 -10 -15z"/>
<path d="M6100 5365 c0 -8 5 -15 10 -15 6 0 10 7 10 15 0 8 -4 15 -10 15 -5 0
-10 -7 -10 -15z"/>
<path d="M7502 5371 c-11 -7 -10 -10 3 -15 35 -13 95 -4 95 15 0 11 -81 12
-98 0z"/>
<path d="M3915 5330 c3 -5 8 -10 11 -10 2 0 4 5 4 10 0 6 -5 10 -11 10 -5 0
-7 -4 -4 -10z"/>
<path d="M6070 5324 c0 -8 5 -12 10 -9 6 3 10 10 10 16 0 5 -4 9 -10 9 -5 0
-10 -7 -10 -16z"/>
<path d="M3950 5271 c0 -12 5 -21 10 -21 6 0 10 6 10 14 0 8 -4 18 -10 21 -5
3 -10 -3 -10 -14z"/>
<path d="M6035 5277 c-4 -10 -5 -21 -1 -24 10 -10 18 4 13 24 -4 17 -4 17 -12
0z"/>
<path d="M1840 5265 c7 -8 17 -15 22 -15 5 0 30 -12 55 -27 l45 -26 -33 -18
-34 -17 27 -11 c14 -5 29 -15 33 -20 13 -21 55 -12 65 14 8 20 16 25 45 25 53
0 43 29 -15 45 -59 16 -109 34 -142 51 -14 8 -38 14 -53 14 -23 0 -26 -2 -15
-15z"/>
<path d="M8090 5266 c-30 -16 -80 -34 -140 -51 -58 -16 -68 -45 -15 -45 29 0
37 -5 45 -25 10 -26 52 -35 65 -14 4 5 19 15 33 20 l27 11 -33 17 c-36 18 -31
31 16 45 12 4 22 12 22 17 0 5 8 9 19 9 10 0 24 7 31 15 11 13 8 15 -16 15
-16 0 -40 -7 -54 -14z"/>
<path d="M7718 5263 c7 -3 16 -2 19 1 4 3 -2 6 -13 5 -11 0 -14 -3 -6 -6z"/>
<path d="M2563 5173 c-9 -3 -10 -10 -3 -23 7 -13 6 -27 -2 -44 -13 -30 -12
-31 25 -40 25 -6 27 -4 22 17 -5 18 -1 26 19 35 35 16 33 30 -9 48 -19 7 -36
14 -37 13 -2 0 -9 -3 -15 -6z"/>
<path d="M7388 5169 c-38 -14 -43 -37 -12 -51 19 -9 24 -18 21 -35 -5 -25 -3
-26 31 -17 23 7 29 33 11 51 -8 8 -8 17 0 31 8 16 7 21 -5 26 -9 3 -16 6 -17
5 -1 0 -14 -5 -29 -10z"/>
<path d="M2723 5163 c15 -2 37 -2 50 0 12 2 0 4 -28 4 -27 0 -38 -2 -22 -4z"/>
<path d="M7233 5163 c15 -2 37 -2 50 0 12 2 0 4 -28 4 -27 0 -38 -2 -22 -4z"/>
<path d="M2020 5100 c0 -11 48 -25 56 -17 4 3 3 10 -1 16 -8 14 -55 14 -55 1z"/>
<path d="M2420 5101 c0 -5 9 -12 19 -16 10 -3 21 -14 24 -24 4 -16 10 -18 38
-12 44 9 43 31 -1 47 -42 15 -80 17 -80 5z"/>
<path d="M7498 5093 c-47 -19 -48 -30 -5 -41 28 -7 35 -5 60 21 15 16 27 31
27 33 0 9 -47 1 -82 -13z"/>
<path d="M7925 5099 c-4 -6 -5 -13 -1 -16 8 -8 56 6 56 17 0 13 -47 13 -55 -1z"/>
<path d="M3880 5031 c0 -12 5 -21 10 -21 6 0 10 6 10 14 0 8 -4 18 -10 21 -5
3 -10 -3 -10 -14z"/>
<path d="M6106 5043 c-9 -9 -7 -33 3 -33 12 0 22 28 12 34 -5 3 -11 3 -15 -1z"/>
<path d="M2630 5030 c0 -5 7 -10 15 -10 8 0 15 5 15 10 0 6 -7 10 -15 10 -8 0
-15 -4 -15 -10z"/>
<path d="M7340 5030 c0 -5 7 -10 15 -10 8 0 15 5 15 10 0 6 -7 10 -15 10 -8 0
-15 -4 -15 -10z"/>
<path d="M2870 5001 c-68 -5 -75 -8 -78 -28 -3 -21 0 -23 45 -23 26 1 59 7 73
15 14 8 53 14 90 15 36 0 90 3 120 7 133 16 -69 27 -250 14z"/>
<path d="M6850 5001 c-20 -6 -15 -9 30 -14 30 -4 84 -7 120 -7 37 -1 76 -7 90
-15 14 -8 47 -14 73 -15 45 0 48 2 45 23 -3 20 -10 23 -88 29 -112 8 -239 8
-270 -1z"/>
<path d="M3910 4971 c0 -6 5 -13 10 -16 6 -3 10 1 10 9 0 9 -4 16 -10 16 -5 0
-10 -4 -10 -9z"/>
<path d="M4180 4971 c0 -6 5 -13 10 -16 6 -3 10 1 10 9 0 9 -4 16 -10 16 -5 0
-10 -4 -10 -9z"/>
<path d="M5800 4964 c0 -8 5 -12 10 -9 6 3 10 10 10 16 0 5 -4 9 -10 9 -5 0
-10 -7 -10 -16z"/>
<path d="M6070 4964 c0 -8 5 -12 10 -9 6 3 10 10 10 16 0 5 -4 9 -10 9 -5 0
-10 -7 -10 -16z"/>
<path d="M2540 4930 c0 -5 12 -10 26 -10 14 0 23 4 19 10 -3 6 -15 10 -26 10
-10 0 -19 -4 -19 -10z"/>
<path d="M2730 4930 c0 -5 7 -10 15 -10 8 0 15 5 15 10 0 6 -7 10 -15 10 -8 0
-15 -4 -15 -10z"/>
<path d="M7240 4930 c0 -5 7 -10 16 -10 8 0 12 5 9 10 -3 6 -10 10 -16 10 -5
0 -9 -4 -9 -10z"/>
<path d="M7406 4925 c-12 -9 -42 -15 -79 -15 -71 0 -75 -22 -6 -31 24 -3 56
-9 70 -13 24 -7 25 -6 21 23 -4 28 -2 31 22 31 14 0 26 5 26 10 0 15 -32 12
-54 -5z"/>
<path d="M2595 4906 c-3 -9 -7 -23 -10 -32 -4 -13 0 -15 22 -9 16 5 48 11 72
14 64 9 66 31 3 31 -28 0 -57 3 -66 6 -10 4 -18 0 -21 -10z"/>
<path d="M2800 4836 c0 -8 -9 -21 -20 -29 -21 -15 -17 -27 10 -27 9 0 25 -7
35 -15 11 -9 43 -31 72 -49 41 -27 54 -32 63 -21 6 7 28 15 50 19 68 11 45 36
-32 36 -47 0 -148 29 -148 42 0 5 14 14 30 19 39 14 38 25 -1 33 -47 9 -59 7
-59 -8z"/>
<path d="M7128 4843 c-26 -7 -22 -17 12 -30 17 -6 30 -15 30 -20 0 -13 -62
-33 -122 -39 -76 -8 -98 -13 -98 -24 0 -5 18 -13 40 -16 22 -4 44 -12 50 -20
11 -12 34 -1 132 67 15 11 33 19 41 19 24 0 27 13 7 27 -11 8 -20 21 -20 29 0
14 -33 17 -72 7z"/>
<path d="M3052 4631 c-21 -13 11 -22 49 -14 22 4 27 8 17 14 -17 11 -49 11
-66 0z"/>
<path d="M6875 4631 c-15 -6 -12 -9 19 -14 44 -7 75 1 54 14 -16 10 -46 10
-73 0z"/>
</g>
</svg>
