<?xml version="1.0" standalone="no"?>
<!DOCTYPE svg PUBLIC "-//W3C//DTD SVG 20010904//EN"
 "http://www.w3.org/TR/2001/REC-SVG-20010904/DTD/svg10.dtd">
<svg version="1.0" xmlns="http://www.w3.org/2000/svg"
 width="1000.000000pt" height="1169.000000pt" viewBox="0 0 1000.000000 1169.000000"
 preserveAspectRatio="xMidYMid meet">
<metadata>
Created by potrace 1.16, written by Peter Selinger 2001-2019
</metadata>
<g transform="translate(0.000000,1169.000000) scale(0.100000,-0.100000)"
fill="#000000" stroke="none">
<path d="M4610 11439 c-186 -8 -334 -20 -510 -39 -227 -24 -293 -33 -420 -54
-74 -13 -169 -29 -210 -36 -129 -21 -533 -124 -735 -187 -71 -22 -303 -111
-314 -120 -3 -2 10 -41 28 -88 110 -290 153 -469 183 -762 20 -192 21 -224 9
-330 -38 -350 -123 -561 -298 -739 -99 -100 -204 -161 -388 -224 -185 -64
-496 -87 -805 -60 -155 13 -408 58 -559 99 -62 17 -120 31 -128 31 -12 0 -14
-185 -9 -1352 2 -744 9 -1391 14 -1438 47 -426 58 -509 102 -770 75 -443 234
-1035 377 -1395 19 -49 46 -119 60 -155 71 -181 285 -605 386 -765 132 -209
202 -311 300 -440 171 -225 234 -306 290 -369 28 -33 75 -88 104 -123 76 -92
237 -265 404 -432 446 -447 852 -769 1359 -1078 105 -65 470 -263 483 -263 3
0 61 -27 129 -59 127 -61 432 -171 473 -171 25 0 169 43 220 65 17 7 86 37
155 65 465 192 949 487 1452 885 568 450 1135 1065 1582 1718 177 259 355 583
468 856 33 80 67 159 75 175 24 46 144 383 168 471 7 28 29 102 49 165 93 307
189 759 236 1115 12 88 25 192 31 230 40 305 42 393 46 1748 3 1095 2 1317 -9
1317 -8 0 -52 -11 -98 -24 -268 -75 -581 -117 -861 -117 -217 1 -305 10 -457
47 -279 69 -471 207 -607 436 -103 173 -145 337 -154 593 -8 201 4 344 43 545
29 151 95 384 142 499 19 47 34 88 34 92 0 18 -403 153 -630 212 -443 116
-750 163 -1405 217 -181 14 -596 19 -805 9z m900 -233 c595 -48 1094 -141
1550 -290 85 -27 105 -37 104 -52 -1 -11 -18 -71 -37 -134 -78 -261 -117 -517
-117 -777 0 -301 47 -521 158 -737 224 -436 645 -647 1294 -646 203 0 447 25
645 65 40 8 77 15 83 15 7 0 10 -343 10 -1097 0 -1136 -3 -1249 -45 -1629 -76
-690 -241 -1374 -472 -1954 -188 -472 -387 -831 -678 -1220 -615 -823 -1347
-1499 -2130 -1967 -262 -157 -640 -340 -851 -412 l-91 -31 -69 24 c-516 176
-1177 571 -1739 1041 -625 522 -1274 1277 -1617 1885 -403 712 -678 1625 -793
2630 -42 370 -45 475 -45 1624 l0 1109 33 -7 c224 -46 502 -76 709 -76 324 0
582 52 803 161 266 131 457 357 561 661 65 189 79 293 78 568 0 208 -3 265
-23 379 -27 158 -71 344 -107 454 -15 44 -22 83 -18 87 11 10 301 99 440 134
399 101 838 168 1289 196 94 6 195 12 225 14 116 8 674 -4 850 -18z"/>
<path d="M4590 10939 c-370 -19 -743 -63 -1055 -125 -132 -25 -474 -109 -483
-118 -2 -3 10 -76 27 -163 49 -252 56 -321 56 -578 0 -243 -7 -322 -46 -491
-71 -313 -244 -610 -467 -800 -236 -201 -563 -328 -937 -364 -192 -18 -589 -9
-708 16 l-28 6 4 -1024 c4 -1058 4 -1066 48 -1408 72 -569 176 -1043 334
-1513 35 -104 68 -194 73 -199 6 -6 325 304 887 864 482 480 880 874 884 876
12 4 -23 -187 -63 -348 -65 -260 -177 -526 -290 -690 -30 -44 -52 -80 -49 -80
3 0 42 20 87 44 222 121 609 301 614 286 11 -31 -197 -368 -306 -495 -33 -38
-59 -72 -57 -74 3 -2 48 18 102 44 225 109 492 225 518 225 8 0 15 -6 15 -12
0 -35 32 -212 50 -281 57 -216 189 -434 341 -564 54 -46 54 -46 21 -40 -18 4
-60 18 -93 31 l-60 24 -35 -47 c-134 -175 -354 -225 -556 -124 l-71 36 -19
-26 c-10 -14 -40 -41 -66 -60 -115 -84 -192 -111 -324 -111 -54 -1 -98 -4 -98
-8 0 -17 121 -51 197 -56 96 -5 190 19 263 67 43 29 45 30 70 14 110 -73 198
-98 320 -90 106 6 181 34 266 98 35 26 64 46 64 43 0 -24 -64 -120 -114 -169
-152 -152 -378 -188 -569 -90 -27 14 -51 25 -53 25 -11 0 24 -49 69 -97 90
-96 210 -160 352 -190 38 -8 72 -16 74 -19 3 -3 -229 -239 -514 -524 l-520
-520 100 -101 c492 -495 1104 -942 1675 -1224 163 -80 389 -175 415 -175 24 0
273 108 430 187 890 447 1710 1153 2397 2066 258 343 431 641 602 1035 251
581 439 1334 516 2067 6 61 16 146 22 190 7 51 12 456 15 1100 l4 1020 -38
-37 c-21 -21 -361 -359 -756 -753 -395 -394 -722 -713 -727 -710 -6 4 -10 26
-10 51 0 102 -75 472 -116 569 l-14 35 -241 0 c-132 0 -239 3 -237 8 133 261
176 408 185 637 11 272 -64 481 -234 647 -129 127 -242 191 -452 254 -9 3 77
97 236 257 l251 252 -15 80 c-12 60 -16 147 -17 345 -1 277 9 384 55 600 34
164 34 156 8 164 -671 186 -1488 274 -2209 235z m468 -441 c9 -9 12 -103 12
-360 l0 -347 -32 5 c-18 3 -39 7 -45 10 -17 5 -19 655 -3 685 12 21 50 25 68
7z m-196 -205 c-38 -83 -38 -180 1 -245 15 -26 27 -48 27 -50 0 -2 -44 -4 -98
-5 -93 -2 -227 -24 -259 -42 -11 -5 11 -14 68 -29 160 -39 161 -43 19 -58
-217 -23 -411 -70 -589 -144 -39 -16 -71 -24 -71 -18 0 18 160 171 230 220 36
25 107 67 158 92 l92 47 0 59 c0 59 0 60 42 86 101 64 308 142 380 143 l27 1
-27 -57z m524 -602 c112 -24 230 -69 310 -117 70 -42 175 -142 209 -200 62
-106 90 -233 77 -347 l-8 -66 55 -7 c246 -29 471 -122 614 -254 285 -263 314
-657 82 -1126 -35 -71 -75 -148 -90 -171 l-26 -43 284 0 c227 0 287 -3 296
-13 15 -19 46 -148 71 -293 64 -372 43 -802 -56 -1146 -109 -381 -289 -707
-524 -951 l-75 -79 0 74 c-1 88 -23 138 -92 204 -45 45 -185 120 -233 126 -48
6 -30 41 79 155 58 59 196 201 308 314 l203 207 0 64 c0 36 -5 69 -12 76 -7 7
-35 12 -62 12 l-50 0 -448 -337 c-430 -324 -448 -339 -448 -370 l0 -33 -152 0
c-649 -1 -1435 -194 -2206 -544 -68 -31 -126 -56 -128 -56 -3 0 26 37 62 82
283 348 469 811 514 1282 37 398 -45 789 -220 1046 -45 65 -146 177 -153 170
-3 -3 6 -43 19 -90 46 -158 74 -334 95 -583 15 -190 7 -703 -15 -882 -30 -248
-73 -448 -105 -484 -9 -10 -85 -50 -169 -89 -85 -40 -210 -103 -278 -142 -68
-38 -126 -70 -129 -70 -3 0 21 53 54 118 157 315 246 620 298 1027 23 180 22
564 -1 735 -38 280 -115 549 -212 742 -13 26 -24 52 -24 58 0 7 199 10 617 10
l616 0 -7 -109 c-3 -59 -11 -134 -17 -166 -6 -31 -8 -59 -6 -61 10 -10 139
178 172 248 137 298 134 632 -10 918 l-45 90 37 24 c54 35 292 127 468 181
252 78 453 117 707 136 111 9 158 16 158 25 0 24 -87 101 -144 128 -328 155
-1008 -33 -1553 -430 -63 -46 -116 -84 -119 -84 -3 0 6 19 20 43 56 96 106
275 106 377 -1 108 -55 258 -121 335 -18 22 -39 47 -46 56 -11 14 -3 21 70 56
241 118 529 202 852 247 17 2 122 3 235 1 161 -3 225 -8 296 -24z m-1076
-1284 c0 -25 -129 -240 -199 -331 -69 -91 -194 -223 -262 -277 l-36 -28 -12
108 c-20 185 -72 346 -154 474 -20 32 -37 60 -37 62 0 3 158 5 350 5 281 0
350 -3 350 -13z m-2117 -462 c94 -20 175 -66 246 -140 65 -67 76 -92 39 -81
-77 21 -189 30 -378 30 l-215 1 0 -335 0 -335 109 -3 c60 -1 133 2 163 8 97
21 189 113 221 222 16 58 18 59 47 55 64 -10 147 -39 152 -54 9 -24 -29 -132
-68 -192 -43 -66 -133 -154 -183 -178 -20 -9 -36 -20 -36 -23 0 -4 17 -25 38
-46 20 -22 118 -175 216 -339 181 -301 241 -383 311 -421 19 -10 35 -22 35
-26 0 -5 -69 -8 -154 -8 l-153 0 -219 366 c-161 269 -229 375 -257 398 -36 29
-45 31 -133 34 l-94 4 0 -101 c0 -88 -2 -101 -17 -101 -22 0 -121 56 -155 88
l-28 26 0 511 0 511 -26 52 c-14 29 -35 57 -45 63 -47 25 -11 29 249 29 193 0
286 -4 335 -15z m247 -295 c184 -37 423 -133 453 -181 7 -12 -6 -38 -59 -114
l-68 -99 -13 31 c-18 44 -63 78 -151 112 -145 56 -265 75 -465 76 l-178 0 3
95 c3 91 4 94 28 102 49 15 339 1 450 -22z m-840 -245 l0 -125 -34 -44 c-53
-69 -71 -128 -71 -226 0 -74 4 -93 30 -143 98 -196 338 -316 632 -317 l52 0
50 -84 c28 -46 51 -88 51 -93 0 -17 -188 -24 -294 -13 -235 27 -429 118 -569
269 -66 72 -132 199 -148 286 -30 160 22 342 133 475 33 38 149 139 161 140 4
0 7 -56 7 -125z m1235 -730 c37 -53 65 -102 62 -109 -6 -15 -178 -106 -201
-106 -16 0 -109 147 -103 164 2 5 21 15 42 24 57 22 100 56 115 91 7 17 14 31
16 31 2 0 33 -43 69 -95z m-955 -398 c0 -45 25 -109 56 -146 19 -21 34 -42 34
-45 0 -3 -85 -6 -190 -6 -104 0 -190 2 -190 4 0 2 14 19 31 37 42 45 59 91 59
164 0 34 2 64 5 67 3 3 48 -9 100 -26 74 -24 95 -35 95 -49z m4850 -322 c-8
-13 -166 -151 -350 -305 -375 -316 -366 -307 -358 -315 3 -3 31 -10 63 -15 32
-5 60 -12 63 -14 2 -3 -5 -54 -17 -113 -99 -477 -241 -913 -408 -1249 -53
-106 -73 -134 -73 -100 0 7 13 42 29 77 35 77 103 280 130 387 70 276 131 725
131 965 l0 107 133 105 c494 391 653 512 662 503 6 -6 5 -17 -5 -33z m-890
-759 c0 -35 -3 -78 -6 -95 -6 -27 -10 -31 -40 -31 -49 0 -218 -26 -321 -50
-359 -84 -659 -231 -862 -425 -57 -55 -51 -73 11 -35 130 81 421 213 633 286
235 81 565 141 565 102 0 -45 -24 -195 -32 -205 -6 -8 -33 -13 -64 -13 -116 0
-438 -73 -656 -149 -245 -86 -602 -251 -873 -404 l-80 -46 -23 22 c-37 34
-123 176 -158 258 -43 102 -74 215 -77 280 l-2 54 115 42 c63 23 118 42 121
43 3 0 9 -24 13 -54 13 -118 61 -207 129 -243 19 -9 56 -16 88 -16 109 0 218
88 285 233 19 41 39 82 43 90 11 22 285 159 446 223 222 88 504 165 700 190
17 2 33 5 38 6 4 0 7 -28 7 -63z m430 -259 c21 -45 48 -114 60 -153 22 -69 23
-72 5 -117 -10 -26 -21 -47 -24 -47 -4 0 -17 20 -29 45 -12 24 -46 82 -76 129
l-55 85 20 78 c30 115 28 110 45 84 9 -12 33 -59 54 -104z m-1997 -64 c3 -10
8 -36 12 -58 10 -57 40 -110 81 -141 l35 -28 -23 -12 c-13 -7 -43 -13 -67 -14
-40 0 -49 5 -86 43 -40 43 -63 96 -68 160 -2 25 3 31 43 47 57 24 68 24 73 3z
m1871 -171 c44 -71 106 -189 106 -205 0 -8 -12 -35 -26 -61 l-26 -46 -40 57
c-22 32 -53 74 -69 94 l-28 36 26 81 c14 45 28 82 29 82 2 0 15 -17 28 -38z
m-374 -92 c0 -20 -26 -157 -36 -192 -4 -12 -21 -18 -72 -23 -160 -15 -504 -95
-692 -161 -137 -47 -353 -135 -504 -205 -82 -38 -154 -69 -159 -69 -6 0 -35
18 -65 41 -45 34 -52 43 -41 54 21 20 268 151 418 223 439 208 781 314 1139
351 6 0 12 -8 12 -19z m309 -229 c28 -41 51 -81 51 -88 0 -12 -30 -60 -61 -97
-7 -8 -41 26 -90 88 -18 23 -18 25 5 82 13 33 26 68 30 78 3 10 8 17 10 15 2
-2 27 -37 55 -78z m-379 -100 c0 -47 -127 -381 -145 -381 -22 0 -103 100 -135
165 -33 68 -61 163 -51 169 8 5 199 43 246 49 59 8 85 7 85 -2z m-365 -73
c-28 -41 -153 -133 -232 -173 -156 -77 -307 -117 -504 -135 -139 -12 -149 -12
-149 -2 0 11 289 137 462 201 75 28 194 67 265 87 70 19 133 37 138 39 29 10
36 5 20 -17z m623 -57 c18 -22 32 -44 32 -49 0 -12 -190 -196 -219 -211 -21
-12 -20 -9 9 41 17 29 53 99 80 156 28 56 54 102 58 102 5 0 23 -18 40 -39z
m-607 -183 c51 -111 186 -223 316 -264 127 -39 307 -24 441 37 69 31 86 31 59
1 -24 -27 -22 -33 31 -84 57 -56 155 -104 248 -121 83 -16 72 -27 -34 -34
-129 -9 -249 28 -330 101 l-40 37 -69 -34 c-118 -60 -166 -72 -288 -72 -102 0
-115 2 -175 31 -109 52 -173 121 -210 227 -10 28 -22 52 -27 54 -4 1 -27 -25
-51 -57 -71 -98 -199 -182 -321 -210 -76 -18 -204 -15 -276 5 -99 28 -272 131
-253 150 3 3 34 -1 69 -10 103 -24 294 -20 411 9 170 43 331 133 423 238 22
26 43 47 46 47 3 1 16 -23 30 -51z m-1011 -496 c86 -45 144 -57 270 -57 118 0
175 12 263 57 20 10 37 16 37 13 0 -19 -36 -68 -75 -103 -151 -133 -376 -137
-538 -10 l-38 30 -38 -25 c-59 -39 -124 -57 -209 -57 -103 0 -123 14 -41 29
93 16 161 53 221 121 49 55 54 58 73 44 11 -8 45 -27 75 -42z m1758 -21 c101
-51 198 -62 307 -37 33 8 62 13 64 10 9 -8 -128 -65 -184 -75 -100 -18 -215 2
-308 54 -20 11 -36 25 -34 30 2 7 74 42 95 46 1 1 28 -12 60 -28z m-438 11 c0
-14 -69 -81 -111 -108 -22 -13 -67 -32 -101 -40 -73 -19 -145 -8 -213 31 -43
25 -136 115 -119 115 6 0 37 -10 70 -22 49 -17 82 -21 194 -22 121 0 142 3
205 26 39 14 71 26 73 27 1 0 2 -3 2 -7z m-1234 -594 c-2 -7 -10 -29 -16 -48
-14 -41 -18 -28 113 -335 161 -379 288 -680 345 -817 31 -76 61 -136 67 -135
5 2 26 41 45 88 l36 84 99 3 c54 1 102 -1 106 -5 4 -4 -24 -82 -63 -173 -38
-91 -103 -244 -143 -340 -41 -96 -76 -175 -80 -175 -6 0 -219 497 -577 1350
-44 105 -90 213 -102 240 -13 28 -33 76 -46 107 -13 31 -41 80 -62 108 -21 28
-38 53 -38 55 0 3 72 5 161 5 125 0 160 -3 155 -12z m1334 6 c0 -4 -14 -22
-31 -42 -18 -20 -42 -59 -54 -87 -13 -27 -36 -80 -53 -117 l-30 -66 -88 30
c-49 16 -90 31 -93 33 -2 3 8 34 23 70 28 64 32 122 12 168 -8 16 3 17 153 17
89 0 161 -3 161 -6z m-505 -299 c123 -23 264 -69 365 -120 139 -71 134 -57 56
-169 -37 -53 -71 -96 -75 -96 -5 0 -14 14 -21 31 -7 17 -29 41 -49 54 -54 36
-232 92 -351 111 -126 20 -345 15 -431 -9 -30 -9 -61 -17 -69 -19 -13 -3 -92
160 -84 174 7 11 100 39 177 54 94 18 360 12 482 -11z m-922 -358 c40 -96 40
-99 24 -132 -9 -19 -22 -63 -28 -97 -20 -112 21 -226 119 -323 28 -28 69 -61
92 -75 23 -14 52 -34 65 -45 23 -20 110 -216 103 -234 -1 -5 -34 2 -73 15
-253 86 -436 260 -491 469 -18 64 -18 216 0 280 26 101 113 251 138 243 6 -2
29 -48 51 -101z m1042 39 c37 -13 69 -26 71 -29 3 -3 -9 -39 -27 -81 l-32 -76
-108 0 -108 0 40 98 c23 53 43 100 46 105 8 13 51 7 118 -17z m363 -517 c3
-284 13 -255 -113 -318 -163 -81 -475 -161 -475 -122 0 5 18 52 41 104 l41 95
74 18 c41 9 109 31 152 48 l77 31 0 95 0 95 -311 3 -310 2 -37 91 c-20 49 -37
94 -37 100 0 6 167 8 448 7 l447 -3 3 -246z"/>
<path d="M5530 7704 c-305 -39 -672 -150 -965 -293 l-100 -49 1008 -1 1008 -1
-7 23 c-25 82 -99 169 -189 222 -168 99 -458 137 -755 99z"/>
<path d="M5060 7111 c0 -5 12 -17 28 -27 135 -88 264 -283 305 -461 l14 -63
-32 0 c-36 0 -149 37 -215 70 -102 51 -227 159 -297 255 l-22 30 -1 -477 c0
-263 2 -478 4 -478 1 0 25 27 51 61 96 122 263 232 417 274 97 26 101 22 77
-67 -49 -181 -135 -309 -304 -452 l-30 -25 475 0 475 0 -30 21 c-61 43 -184
178 -224 246 -44 73 -101 226 -101 269 0 24 2 25 43 19 170 -27 379 -162 494
-321 l22 -30 0 475 0 475 -25 -30 c-55 -64 -121 -130 -169 -167 -119 -96 -365
-184 -365 -132 0 36 44 163 82 236 45 88 143 207 211 257 26 19 44 38 41 43
-7 11 -924 10 -924 -1z"/>
</g>
</svg>
