<?xml version="1.0" standalone="no"?>
<!DOCTYPE svg PUBLIC "-//W3C//DTD SVG 20010904//EN"
 "http://www.w3.org/TR/2001/REC-SVG-20010904/DTD/svg10.dtd">
<svg version="1.0" xmlns="http://www.w3.org/2000/svg"
 width="1000.000000pt" height="660.000000pt" viewBox="0 0 1000.000000 660.000000"
 preserveAspectRatio="xMidYMid meet">
<metadata>
Abeja con patas espejadas - Basado en 03-abeja-limpia.svg
</metadata>

<defs>
  <!-- Patas izquierdas como grupo reutilizable -->
  <g id="patas-izquierda" transform="translate(0.000000,660.000000) scale(0.100000,-0.100000)" fill="#000000" stroke="none">
    <!-- Pata superior izquierda -->
    <path d="M3567 5943 c-13 -13 -7 -54 17 -111 44 -105 57 -196 55 -405 -1 -145
-5 -197 -15 -214 -20 -33 -44 -130 -44 -182 0 -52 67 -265 113 -360 20 -41 49
-79 79 -104 40 -35 46 -45 41 -68 -8 -41 32 -115 80 -150 22 -16 90 -45 151
-65 61 -19 115 -39 119 -44 12 -11 0 -47 -17 -53"/>
    <!-- Pata media izquierda -->
    <path d="M2303 4191 c-99 -47 -205 -115 -294 -187 -36 -30 -75 -54 -86 -54
-26 0 -35 -10 -22 -26 8 -10 -7 -39 -62 -119 -40 -58 -69 -108 -64 -113 4 -4
17 6 29 22 11 17 48 66 82 110 l60 81 167 2"/>
    <!-- Pata inferior izquierda -->
    <path d="M4300 3535 c0 -59 86 -218 102 -189 7 13 -74 202 -89 208 -8 4 -13 -4 -13 -19z"/>
    <path d="M4407 3513 c-14 -25 53 -182 82 -191 18 -6 10 28 -31 126 -28 67 -40 83 -51 65z"/>
    <path d="M4514 3448 c13 -67 85 -193 100 -177 12 11 -80 209 -97 209 -5 0 -7 -13 -3 -32z"/>
    <path d="M4628 3464 c-16 -15 35 -136 71 -168 34 -31 27 2 -19 94 -41 82 -43 84 -52 74z"/>
  </g>
</defs>

<!-- Cuerpo principal de la abeja (sin las patas que vamos a espejar) -->
<g transform="translate(0.000000,660.000000) scale(0.100000,-0.100000)" fill="#000000" stroke="none">

<!-- Antenas -->
<path d="M5545 6117 c-162 -78 -412 -304 -473 -427 -17 -34 -34 -81 -38 -105
-8 -56 -20 -66 -67 -55 -21 4 -55 6 -77 3 -52 -7 -66 6 -81 75 -16 80 -39 121
-109 191 -76 75 -171 139 -332 219 -138 70 -229 95 -254 70 -11 -11 -12 -21
-5 -41 8 -21 40 -41 153 -96 214 -105 369 -196 408 -239 46 -51 100 -157 100
-196 0 -25 -9 -39 -45 -69 -74 -62 -55 -106 20 -47 20 16 41 27 46 25 4 -3 11
-27 14 -53 11 -77 25 -124 38 -119 19 6 25 53 16 133 -6 54 -5 82 3 91 13 16
64 17 108 2 31 -11 32 -13 26 -53 -4 -22 -9 -69 -13 -103 -5 -54 -3 -63 10
-63 21 0 32 21 47 93 19 82 31 88 76 38 40 -44 54 -45 54 -4 0 17 -15 40 -45
70 -25 24 -45 47 -45 51 0 4 10 40 22 80 21 74 22 74 136 175 114 102 272 220
367 276 82 48 96 61 93 84 -5 37 -69 34 -153 -6z"/>

<!-- Cuerpo central (abdomen con rayas) -->
<path d="M4284 2839 c-3 -6 -1 -16 5 -22 6 -6 11 -23 11 -38 0 -25 8 -32 69
-60 39 -18 71 -40 74 -50 10 -38 219 -102 434 -133 146 -21 424 -21 513 -1 82
20 190 57 190 67 0 12 -31 10 -111 -7 -40 -9 -74 -13 -77 -10 -6 5 6 10 64 24
67 18 248 97 252 111 4 10 -7 12 -52 7 -31 -3 -56 -2 -56 2 0 3 14 15 31 25
20 12 27 22 21 28 -7 7 -26 1 -56 -17 -48 -28 -58 -25 -29 7 29 32 3 38 -62
15 -57 -20 -78 -21 -425 -22 -347 0 -370 1 -475 24 -60 13 -138 32 -172 42
-44 14 -68 17 -81 10 -11 -6 -24 -6 -33 0 -19 12 -26 11 -35 -2z"/>

<path d="M4188 2293 c-16 -2 -28 -8 -28 -13 0 -4 31 -26 68 -48 69 -41 105
-72 84 -72 -6 0 -46 15 -89 34 -43 19 -79 33 -82 31 -11 -12 14 -35 74 -70 37
-22 71 -47 76 -57 12 -22 0 -23 -27 -3 -24 18 -44 19 -44 1 0 -41 153 -126
305 -171 50 -14 110 -36 135 -47 56 -25 168 -37 450 -44 311 -9 362 1 542 109
92 54 110 81 63 93 -37 9 -31 28 25 75 56 48 66 79 23 79 l-27 0 27 28 c34 36
34 44 0 40 -17 -2 -28 2 -29 10 -1 6 -2 14 -3 16 0 3 -31 -4 -68 -15 -105 -30
-330 -69 -403 -70 -137 -2 -620 23 -730 37 -63 8 -159 26 -212 39 -53 14 -98
24 -100 24 -2 -1 -15 -4 -30 -6z"/>

<path d="M4170 1702 c0 -5 19 -19 43 -32 80 -44 80 -45 11 -44 -89 2 -83 -16
21 -66 46 -22 89 -49 94 -59 6 -10 24 -24 41 -31 59 -25 29 -29 -35 -5 -72 28
-85 30 -85 15 0 -15 159 -87 232 -105 134 -34 165 -44 228 -72 64 -27 69 -28
235 -27 179 1 287 15 474 59 85 21 111 31 142 59 20 19 48 40 61 46 29 16 88
71 88 84 0 5 8 18 17 28 17 19 16 20 -6 37 -20 16 -22 21 -11 41 11 20 10 22
-6 17 -301 -92 -356 -101 -634 -101 l-245 -1 -110 32 c-60 17 -153 41 -205 53
-52 12 -106 29 -119 37 -13 8 -35 13 -49 10 -15 -3 -54 3 -87 14 -65 20 -95 24 -95 11z"/>

<path d="M4330 1161 c0 -5 14 -14 30 -21 17 -7 39 -24 49 -39 11 -15 41 -34
70 -44 28 -10 51 -22 51 -27 0 -6 -6 -9 -12 -7 -7 1 -13 -5 -13 -13 0 -31 101
-80 255 -123 102 -28 382 -31 508 -4 92 20 192 54 192 66 0 4 -8 15 -18 24
-14 13 -25 15 -50 8 -17 -5 -34 -6 -37 -1 -3 5 9 12 27 15 40 9 170 73 180 89
12 17 10 22 -17 34 -20 10 -35 8 -75 -8 -62 -24 -80 -25 -80 -4 0 14 -7 15
-40 10 -218 -35 -518 -51 -671 -37 -98 9 -131 17 -212 51 -93 39 -137 49 -137 31z"/>

</g>

<!-- Patas izquierdas (original) -->
<use href="#patas-izquierda"/>

<!-- Patas derechas (espejo de las izquierdas) -->
<use href="#patas-izquierda" transform="translate(1000,0) scale(-1,1)"/>

</svg>
