<?xml version="1.0" standalone="no"?>
<!DOCTYPE svg PUBLIC "-//W3C//DTD SVG 20010904//EN"
 "http://www.w3.org/TR/2001/REC-SVG-20010904/DTD/svg10.dtd">
<svg version="1.0" xmlns="http://www.w3.org/2000/svg"
 width="1000.000000pt" height="660.000000pt" viewBox="0 0 1000.000000 660.000000"
 preserveAspectRatio="xMidYMid meet">
<metadata>
Created by potrace 1.16, written by Peter Selinger 2001-2019
</metadata>
<g transform="translate(0.000000,660.000000) scale(0.100000,-0.100000)"
fill="#000000" stroke="none">
<path d="M5545 6117 c-162 -78 -412 -304 -473 -427 -17 -34 -34 -81 -38 -105
-8 -56 -20 -66 -67 -55 -21 4 -55 6 -77 3 -52 -7 -66 6 -81 75 -16 80 -39 121
-109 191 -76 75 -171 139 -332 219 -138 70 -229 95 -254 70 -11 -11 -12 -21
-5 -41 8 -21 40 -41 153 -96 214 -105 369 -196 408 -239 46 -51 100 -157 100
-196 0 -25 -9 -39 -45 -69 -74 -62 -55 -106 20 -47 20 16 41 27 46 25 4 -3 11
-27 14 -53 11 -77 25 -124 38 -119 19 6 25 53 16 133 -6 54 -5 82 3 91 13 16
64 17 108 2 31 -11 32 -13 26 -53 -4 -22 -9 -69 -13 -103 -5 -54 -3 -63 10
-63 21 0 32 21 47 93 19 82 31 88 76 38 40 -44 54 -45 54 -4 0 17 -15 40 -45
70 -25 24 -45 47 -45 51 0 4 10 40 22 80 21 74 22 74 136 175 114 102 272 220
367 276 82 48 96 61 93 84 -5 37 -69 34 -153 -6z"/>
<path d="M3567 5943 c-13 -13 -7 -54 17 -111 44 -105 57 -196 55 -405 -1 -145
-5 -197 -15 -214 -20 -33 -44 -130 -44 -182 0 -52 67 -265 113 -360 20 -41 49
-79 79 -104 40 -35 46 -45 41 -68 -8 -41 32 -115 80 -150 22 -16 90 -45 151
-65 61 -19 115 -39 119 -44 12 -11 0 -47 -17 -53 -7 -3 -53 20 -102 51 -49 30
-174 100 -279 155 -104 54 -230 123 -280 152 -129 76 -760 394 -953 481 -89
40 -236 112 -325 159 -418 224 -694 340 -1022 431 -234 65 -428 16 -500 -126
-49 -97 -70 -311 -44 -456 42 -239 170 -444 464 -746 133 -136 177 -169 352
-267 62 -35 113 -65 113 -67 0 -2 -17 -32 -38 -66 -54 -88 -72 -148 -72 -238
0 -137 42 -210 161 -278 106 -60 199 -84 355 -90 154 -5 243 4 739 79 143 21
296 43 340 49 44 6 136 25 205 44 421 112 525 141 686 190 98 30 182 52 186
48 10 -11 43 -141 36 -147 -5 -6 -117 -30 -363 -80 -213 -43 -290 -77 -366
-165 -34 -39 -69 -68 -103 -83 -76 -35 -118 -86 -195 -237 -76 -148 -122 -263
-140 -352 -10 -48 -10 -61 4 -87 14 -28 14 -37 0 -90 -8 -32 -15 -94 -15 -137
0 -142 -20 -378 -36 -434 -13 -43 -27 -65 -65 -100 -73 -67 -62 -110 28 -110
51 0 96 32 156 111 37 49 51 127 77 433 19 217 25 256 47 305 14 31 38 92 53
136 29 85 95 236 163 375 42 85 42 85 87 91 25 4 93 23 151 42 104 35 146 44
324 67 50 7 144 26 209 42 l119 30 19 -24 c27 -35 22 -44 -33 -56 -73 -17
-160 -53 -365 -153 -146 -70 -193 -98 -242 -144 -79 -73 -112 -138 -112 -221
0 -57 -2 -64 -29 -83 -37 -26 -69 -93 -131 -266 -64 -181 -79 -241 -86 -345
-7 -101 5 -157 45 -203 22 -25 29 -45 33 -92 3 -33 17 -121 31 -195 28 -151
47 -318 47 -424 0 -75 -6 -89 -67 -182 -54 -78 -38 -144 34 -144 39 0 139 87
161 140 23 56 17 265 -13 450 -14 85 -31 215 -36 288 -9 116 -9 138 6 174 9
22 27 118 41 212 27 185 51 297 89 419 28 88 31 117 12 117 -29 0 -101 -176
-132 -322 -8 -37 -26 -136 -40 -219 -27 -164 -39 -189 -86 -189 -57 0 -79 79
-59 212 15 106 135 470 167 508 12 15 34 31 48 34 24 6 25 9 19 59 -13 106 42
201 159 275 121 76 568 274 584 258 3 -3 -32 -58 -78 -123 -46 -65 -101 -144
-122 -175 -46 -69 -113 -106 -257 -142 -109 -26 -171 -55 -217 -99 -29 -27
-43 -57 -27 -57 3 0 43 16 89 35 45 19 119 43 163 55 44 11 102 29 128 40 26
11 48 19 50 17 2 -2 -9 -55 -25 -118 -16 -63 -34 -149 -40 -192 -23 -168 -6
-563 34 -799 45 -256 135 -461 303 -688 272 -367 403 -480 568 -488 86 -5 214
25 283 65 74 43 219 198 276 293 27 47 61 101 76 120 36 49 183 331 213 412
32 85 48 154 88 398 29 174 32 216 32 395 0 221 -12 339 -50 493 -14 57 -24
107 -22 112 2 6 51 -23 110 -64 59 -40 141 -90 183 -110 41 -20 75 -40 75 -44
0 -4 -20 -16 -44 -26 -24 -11 -48 -27 -54 -37 -9 -14 -9 -17 2 -13 10 4 12 -2
9 -19 -3 -14 -1 -27 4 -30 5 -3 7 12 6 34 -1 21 2 39 8 39 5 0 9 -5 9 -12 0
-6 3 -8 6 -5 4 3 15 2 25 -4 14 -7 16 -15 10 -32 -15 -41 -1 -97 33 -128 44
-40 96 -37 80 4 -3 9 -19 20 -36 26 -38 13 -41 14 -33 1 3 -6 -1 -7 -10 -3
-11 4 -13 8 -5 13 8 5 6 11 -5 20 -19 15 -20 50 -2 74 15 21 103 33 125 18 11
-8 12 -13 1 -30 -10 -16 -17 -18 -35 -10 -13 6 -30 8 -38 5 -30 -12 -16 -35
29 -53 25 -9 50 -24 55 -33 6 -11 9 -12 10 -3 0 7 5 10 10 7 6 -3 10 -1 10 4
0 6 -9 11 -21 11 -15 0 -20 5 -17 23 2 14 9 21 21 21 10 -1 17 5 17 16 0 20
33 36 50 25 5 -3 10 -15 10 -25 0 -11 8 -20 22 -22 28 -4 35 -28 10 -35 -11
-2 -22 -13 -25 -24 -3 -10 -1 -17 4 -13 5 3 9 -6 9 -20 0 -14 5 -28 10 -31 12
-7 14 -45 3 -45 -5 0 -8 -73 -9 -163 -1 -166 -12 -240 -39 -251 -18 -6 -20
-37 -4 -53 16 -16 6 -92 -30 -227 -21 -80 -35 -163 -42 -250 -6 -72 -12 -133
-15 -135 -13 -14 -13 24 1 170 9 90 15 221 14 291 -2 92 2 132 11 143 11 13 9
19 -9 39 -26 28 -39 71 -42 137 -2 33 -7 49 -16 49 -16 0 -19 106 -3 112 6 2
13 36 17 76 l6 72 -37 0 c-20 0 -36 -4 -37 -10 -4 -62 0 -115 10 -118 16 -5
13 -32 -4 -32 -10 0 -15 -10 -15 -31 0 -16 4 -28 8 -25 4 2 14 1 21 -3 10 -7
8 -13 -9 -29 -22 -20 -22 -21 -5 -103 9 -45 24 -98 34 -118 31 -62 32 -100 5
-356 -14 -138 -22 -270 -19 -295 17 -133 52 -217 110 -268 28 -25 45 -32 79
-32 62 0 106 18 106 42 0 25 -39 72 -90 109 -56 41 -64 74 -57 258 4 119 13
190 36 301 17 80 31 168 31 196 0 38 5 55 20 69 21 19 34 60 44 137 5 42 3 47
-16 50 -12 2 -29 15 -37 29 -13 24 -13 29 2 53 10 14 26 26 37 26 18 0 20 7
20 75 0 62 -3 76 -19 84 -10 6 -24 25 -31 42 -12 28 -11 36 3 61 23 40 21 60
-7 117 -34 66 -71 108 -116 131 -37 19 -37 20 -32 68 2 27 -1 66 -8 86 -25 76
-141 184 -315 293 -49 31 -121 77 -159 102 -39 24 -121 69 -184 98 -63 30
-111 58 -107 61 15 15 148 -2 265 -34 69 -18 170 -43 225 -54 55 -11 145 -32
199 -47 90 -25 105 -33 157 -81 65 -59 103 -121 238 -385 84 -166 91 -183 91
-238 0 -55 2 -60 26 -69 34 -13 35 -13 30 13 -17 83 -17 95 5 116 28 26 49 12
49 -30 0 -19 5 -29 15 -29 12 0 15 -13 15 -55 0 -53 11 -72 24 -39 3 9 1 56
-5 104 -9 74 -8 96 6 135 19 58 12 87 -55 230 -90 192 -186 320 -267 356 -42
18 -43 20 -43 65 0 41 -5 50 -37 80 -48 44 -171 103 -313 150 -111 36 -121 37
-285 42 -93 2 -177 8 -186 13 -15 8 -15 14 7 66 13 32 24 66 24 77 0 23 24 20
140 -22 47 -17 163 -47 257 -67 95 -19 214 -48 265 -64 117 -36 176 -48 525
-111 429 -77 521 -89 745 -102 338 -19 498 6 660 103 146 86 208 181 216 325
6 104 -14 173 -71 250 -24 33 -46 64 -50 71 -5 8 20 26 76 53 46 23 113 64
149 91 87 65 488 483 539 562 22 34 68 118 102 186 l62 124 0 136 c0 134 -1
138 -33 203 -32 65 -63 97 -132 134 -30 16 -56 19 -190 18 -142 0 -169 -3
-315 -37 -157 -36 -538 -158 -725 -231 -52 -21 -176 -77 -275 -126 -99 -48
-256 -120 -350 -160 -228 -97 -640 -305 -970 -490 -386 -217 -473 -268 -532
-312 -29 -21 -59 -38 -67 -38 -11 0 -36 46 -36 66 0 2 43 25 96 51 146 72 219
147 238 242 3 20 24 53 49 80 49 52 92 153 134 311 22 85 25 111 22 245 -2 83
-3 249 -4 370 l0 220 33 53 c40 65 48 101 29 126 -13 18 -17 18 -47 6 -82 -34
-124 -98 -140 -212 -12 -84 -4 -418 12 -490 9 -43 7 -55 -20 -120 -17 -40 -45
-122 -62 -183 -39 -136 -74 -225 -113 -288 -27 -44 -40 -53 -151 -107 -66 -32
-152 -68 -190 -79 -60 -19 -70 -20 -85 -8 -9 8 -31 22 -49 31 l-32 17 32 40
c18 22 59 68 92 102 84 88 96 110 96 187 0 221 -179 501 -351 550 -78 23 -158
-34 -212 -148 -56 -119 -46 -250 30 -394 65 -125 157 -205 261 -229 29 -7 52
-15 52 -19 0 -3 -16 -21 -35 -40 l-34 -33 -73 21 c-150 42 -189 47 -388 46
-146 0 -208 -4 -245 -16 -27 -8 -79 -23 -115 -33 l-65 -18 -58 27 c-31 15 -55
31 -52 36 3 4 21 11 42 15 61 11 134 54 201 119 80 77 96 109 111 222 15 123
14 218 -4 289 -12 49 -24 69 -64 107 -68 66 -91 69 -171 27 -149 -80 -320
-375 -320 -554 0 -83 24 -145 67 -171 27 -17 153 -144 153 -154 0 -3 -19 -17
-42 -32 l-42 -26 -47 24 c-27 13 -85 37 -130 54 -87 31 -187 91 -232 137 -34
37 -75 129 -125 283 -60 187 -69 236 -53 315 9 43 13 151 13 320 l1 255 -27
40 c-45 68 -133 119 -159 93z m142 -154 c9 -27 1 -269 -10 -269 -5 0 -9 20 -9
43 0 103 -22 211 -51 256 -16 25 -29 54 -29 65 1 17 9 12 47 -29 25 -27 48
-57 52 -66z m2509 -291 c-1 -207 -3 -233 -8 -143 -15 222 -12 395 7 395 2 0 2
-114 1 -252z m-4980 68 c251 -73 556 -202 864 -367 217 -116 325 -170 407
-204 137 -57 828 -409 969 -494 81 -49 211 -123 289 -164 179 -96 510 -300
495 -305 -6 -2 -78 19 -159 47 -81 27 -292 85 -469 129 -492 123 -827 173
-1149 173 -250 -1 -431 -27 -526 -76 -35 -18 -249 -197 -298 -249 -19 -20 -43
-36 -52 -36 -20 0 -241 117 -304 160 -22 16 -110 99 -196 186 -228 234 -325
374 -390 564 -28 84 -33 111 -37 230 -5 151 9 235 54 327 61 127 240 155 502
79z m7937 -70 c79 -34 117 -91 136 -204 19 -117 6 -184 -62 -323 -32 -66 -77
-147 -99 -179 -56 -83 -426 -467 -513 -533 -86 -66 -219 -147 -239 -147 -9 0
-28 18 -43 40 -51 73 -160 167 -237 204 -170 80 -331 110 -598 111 -181 0
-210 -3 -412 -38 -283 -49 -543 -119 -1174 -318 -124 -39 -228 -68 -231 -66
-6 7 106 99 190 156 254 169 1182 647 1587 816 36 15 130 60 210 100 80 40
208 97 285 128 270 106 687 230 882 262 111 18 264 14 318 -9z m-5478 -313
l-1 -168 37 -118 c41 -128 91 -247 104 -247 5 0 19 -18 33 -40 34 -55 173
-148 275 -184 73 -26 115 -50 115 -65 0 -3 -12 -19 -26 -35 -25 -28 -26 -28
-62 -13 -20 9 -71 26 -112 38 -141 40 -175 68 -186 151 -4 31 -12 49 -23 53
-15 4 -78 99 -114 170 -8 17 -34 86 -57 154 -39 112 -42 131 -37 191 3 37 13
84 21 105 9 21 16 58 16 84 0 43 8 91 15 91 2 0 3 -75 2 -167z m1533 122 c0
-3 -7 -17 -16 -30 -22 -34 -44 -122 -44 -181 0 -91 24 -139 124 -242 89 -92
122 -116 178 -132 22 -7 36 -3 70 20 27 18 46 26 52 20 15 -15 -41 -67 -91
-86 -41 -16 -48 -16 -96 -1 -115 37 -206 139 -252 285 -43 132 -32 228 36 323
18 26 39 38 39 24z m-527 -215 c-1 -58 -8 -141 -17 -185 -15 -79 -16 -81 -78
-139 -86 -80 -136 -107 -205 -113 -68 -5 -110 16 -143 69 -24 39 -36 110 -22
133 7 14 10 7 14 -30 10 -83 98 -150 174 -131 100 25 236 290 250 484 2 32 4
59 4 62 1 3 6 -6 12 -20 6 -14 11 -72 11 -130z m-173 127 c0 -8 -22 -50 -49
-94 -27 -44 -68 -118 -91 -162 -29 -56 -46 -79 -53 -72 -28 28 73 277 129 319
33 24 64 28 64 9z m888 -12 c22 -18 34 -43 51 -108 22 -85 25 -177 6 -184 -11
-3 -22 19 -61 131 -13 37 -34 88 -47 111 -38 68 -7 99 51 50z m797 -233 c-52
-202 -120 -342 -166 -342 -24 0 -24 1 10 74 17 34 51 133 76 221 26 88 57 183
68 210 l22 50 9 -53 c7 -44 4 -70 -19 -160z m-209 -426 c18 -47 -77 -146 -205
-214 l-82 -44 -50 51 c-28 27 -48 54 -45 59 3 6 22 13 42 17 44 8 222 85 279
120 47 29 54 30 61 11z m-846 -22 c108 -18 285 -74 346 -110 84 -48 186 -179
205 -263 7 -33 5 -38 -70 -115 -96 -100 -111 -122 -111 -163 0 -29 8 -38 80
-89 93 -65 96 -76 55 -175 -35 -83 -120 -234 -158 -282 -40 -49 -142 -117
-230 -151 -97 -38 -269 -52 -471 -37 -83 6 -178 18 -211 27 -77 20 -164 67
-202 107 -35 37 -148 216 -158 249 -4 13 -13 32 -19 43 -7 11 -21 51 -31 89
l-18 69 23 19 c12 10 31 18 41 18 16 0 19 -8 19 -50 0 -51 16 -100 33 -100 6
0 8 33 4 88 l-7 89 35 33 c19 19 35 44 35 56 0 12 5 45 12 73 16 70 5 89 -91
151 -45 29 -81 57 -81 62 0 23 56 116 98 160 84 90 145 124 321 180 133 42
181 48 321 43 74 -2 178 -12 230 -21z m2444 -104 c248 -21 456 -79 569 -160
68 -49 161 -164 154 -191 -4 -13 0 -19 11 -19 24 -1 42 -17 89 -80 62 -83 73
-112 73 -183 0 -152 -79 -256 -263 -343 -116 -54 -220 -67 -482 -61 -121 3
-278 13 -350 22 -254 30 -812 127 -965 167 -85 22 -217 51 -294 64 -141 25
-245 55 -332 96 l-49 23 -3 63 c-2 47 -7 65 -19 69 -20 8 -43 -22 -43 -56 0
-50 -13 -53 -63 -18 -50 34 -63 60 -53 102 10 38 68 69 211 113 72 22 234 72
360 112 233 72 632 185 760 215 124 28 404 66 545 73 14 1 79 -3 144 -8z
m-4866 -100 c237 -25 296 -33 447 -61 391 -73 1071 -265 1095 -309 16 -29 12
-75 -8 -93 -21 -19 -85 -47 -107 -47 -9 0 -15 9 -15 23 0 30 -15 51 -30 42 -8
-5 -10 -22 -6 -51 9 -68 28 -60 -525 -219 -408 -117 -423 -120 -884 -189 -509
-76 -626 -89 -752 -81 -166 9 -315 57 -386 124 -52 48 -71 97 -70 186 1 93 25
165 78 238 32 42 39 47 75 47 48 0 62 21 34 51 -19 21 -18 22 48 85 97 92 216
184 264 204 40 18 164 46 234 53 79 8 418 6 508 -3z m1458 -828 c14 -9 64
-107 64 -125 0 -23 -169 -62 -390 -91 -79 -11 -156 -29 -248 -61 -167 -56
-177 -57 -169 -9 17 102 142 167 412 214 131 23 271 57 295 71 18 10 22 11 36
1z m1526 -3 c11 -6 91 -15 178 -20 141 -8 170 -12 257 -43 121 -41 245 -98
290 -132 45 -34 43 -59 -7 -84 -49 -25 -59 -25 -140 0 -36 11 -139 36 -230 55
-91 18 -203 43 -250 54 -47 12 -111 21 -142 21 -31 0 -59 4 -63 10 -7 12 62
150 76 150 6 0 19 -5 31 -11z m-83 -302 c109 -55 324 -194 462 -298 118 -90
162 -147 175 -230 11 -66 27 -96 64 -124 19 -14 30 -25 25 -25 -5 0 0 -7 11
-15 15 -12 8 -11 -29 3 -34 13 -52 27 -65 51 -14 26 -36 41 -122 80 -58 26
-144 73 -192 104 -48 31 -107 66 -132 78 -33 15 -52 34 -72 67 -38 67 -96 144
-186 245 -118 134 -106 147 61 64z m-102 -79 c38 -46 83 -101 100 -123 136
-179 203 -454 203 -841 0 -126 -6 -195 -35 -379 -50 -323 -64 -372 -162 -565
-47 -91 -96 -192 -110 -225 -31 -75 -110 -179 -202 -269 -60 -58 -74 -66 -87
-56 -12 11 -29 11 -86 0 -79 -14 -193 -8 -279 15 -30 8 -68 15 -85 15 -16 0
-45 11 -64 25 -56 41 -68 28 -24 -24 23 -28 24 -32 8 -38 -23 -9 -84 57 -253
274 -187 239 -281 433 -330 682 -52 258 -71 696 -38 876 26 143 81 313 112
345 15 16 25 32 22 37 -7 11 181 281 204 296 11 7 35 2 83 -17 122 -49 201
-58 474 -54 l247 3 110 52 c61 28 113 52 116 52 4 1 38 -36 76 -81z m-2143 43
c16 -18 16 -21 -13 -67 -51 -84 -150 -295 -189 -404 l-37 -105 -36 -3 c-55 -5
-64 14 -43 90 44 159 171 406 241 467 25 23 49 41 53 41 4 0 15 -9 24 -19z
m3149 -11 c57 -25 98 -66 153 -150 52 -81 138 -252 152 -303 13 -48 0 -89 -34
-107 -31 -17 -31 -17 -125 165 -98 189 -173 309 -215 341 -38 29 -43 48 -16
63 24 15 34 14 85 -9z m-3427 -683 c-3 -18 -22 -155 -41 -306 -39 -299 -43
-321 -57 -321 -5 0 -7 8 -4 18 18 59 28 177 33 392 4 203 8 247 20 257 27 21
56 -2 49 -40z m370 -685 c13 -9 25 -138 17 -188 -6 -36 -7 -33 -34 57 -32 105
-35 125 -16 132 17 8 21 8 33 -1z m69 -840 c-6 -23 -54 -74 -87 -93 -36 -20
-27 12 17 61 58 66 65 83 67 183 2 78 2 76 6 -23 1 -58 0 -116 -3 -128z m2804
49 c17 -46 29 -64 56 -80 36 -21 46 -41 21 -41 -24 0 -65 51 -86 106 -19 53
-24 74 -16 74 2 0 13 -27 25 -59z"/>
<path d="M1125 5315 c-140 -22 -340 -88 -333 -110 2 -5 5 -9 8 -8 3 1 43 16
90 32 158 55 215 63 485 68 260 4 300 7 290 23 -9 15 -444 11 -540 -5z"/>
<path d="M1495 4989 c-38 -5 -110 -20 -160 -35 -99 -28 -295 -117 -295 -133 0
-15 -2 -15 81 23 102 46 214 82 317 103 125 24 467 21 728 -8 140 -15 199 -18
207 -10 6 6 9 12 6 15 -6 6 -248 35 -384 46 -143 12 -402 11 -500 -1z"/>
<path d="M2126 4684 c-142 -19 -317 -58 -425 -95 -93 -33 -271 -117 -311 -148
-51 -40 -9 -30 81 18 171 91 359 152 579 188 145 23 559 23 750 -2 192 -24
290 -30 290 -17 0 13 -14 16 -220 43 -208 27 -590 34 -744 13z"/>
<path d="M8605 5274 c-119 -6 -254 -26 -272 -41 -16 -13 -13 -14 32 -9 271 30
487 30 630 0 39 -8 84 -17 100 -20 29 -5 29 -5 10 10 -50 41 -295 70 -500 60z"/>
<path d="M7880 4964 c-224 -16 -358 -32 -366 -45 -7 -11 -27 -12 269 8 317 21
709 23 832 5 113 -17 267 -55 352 -87 71 -27 83 -29 83 -16 0 16 -141 72 -254
100 -61 16 -157 34 -214 40 -133 14 -456 12 -702 -5z"/>
<path d="M7137 4666 c-57 -12 -87 -29 -70 -39 5 -3 27 -1 49 4 68 16 352 22
535 10 412 -26 737 -86 954 -177 84 -36 95 -39 95 -26 0 12 -137 76 -228 106
-244 83 -660 137 -1051 135 -139 0 -248 -5 -284 -13z"/>
<path d="M4680 4474 c-47 -44 -63 -74 -40 -74 19 0 119 85 117 99 -4 29 -28
21 -77 -25z"/>
<path d="M4869 4504 c-45 -28 -90 -114 -60 -114 5 0 29 24 55 54 60 70 62 95
5 60z"/>
<path d="M4906 4477 c-24 -32 -36 -87 -18 -87 13 0 82 88 82 104 0 28 -38 17
-64 -17z"/>
<path d="M5036 4494 c-4 -10 -9 -44 -13 -76 -5 -48 -3 -58 9 -58 22 0 40 50
36 100 -3 45 -21 63 -32 34z"/>
<path d="M5180 4461 c0 -8 57 -57 88 -75 20 -12 33 3 22 24 -19 36 -110 78
-110 51z"/>
<path d="M5115 4428 c12 -54 24 -80 35 -73 15 9 12 58 -6 83 -23 33 -37 28
-29 -10z"/>
<path d="M4383 4338 c-54 -61 -85 -129 -65 -142 13 -8 134 142 127 155 -11 16
-41 10 -62 -13z"/>
<path d="M5545 4340 c-4 -6 12 -41 36 -78 23 -37 49 -77 56 -90 18 -29 35 -19
27 16 -21 84 -99 184 -119 152z"/>
<path d="M4573 4313 c-42 -61 -77 -193 -54 -207 12 -8 35 39 71 147 25 78 16
109 -17 60z"/>
<path d="M5295 4329 c-4 -6 6 -23 23 -39 17 -15 40 -46 51 -68 36 -71 68 -68
50 5 -16 62 -104 135 -124 102z"/>
<path d="M5460 4330 c0 -14 59 -118 71 -126 20 -12 27 7 16 42 -16 51 -87 120
-87 84z"/>
<path d="M4452 4296 c-45 -52 -64 -126 -32 -126 14 0 92 131 86 146 -8 22 -21
17 -54 -20z"/>
<path d="M4747 4278 c-11 -91 -9 -138 8 -138 18 0 27 48 23 124 -4 76 -23 84
-31 14z"/>
<path d="M4673 4307 c-31 -39 -49 -156 -27 -164 24 -8 69 157 46 171 -5 3 -14
0 -19 -7z"/>
<path d="M4814 4295 c-8 -21 -1 -222 9 -231 4 -4 12 -3 18 3 13 13 17 186 5
221 -8 25 -24 29 -32 7z"/>
<path d="M4893 4213 c7 -100 17 -127 40 -104 7 8 12 41 12 91 -1 80 -12 110
-43 110 -13 0 -14 -14 -9 -97z"/>
<path d="M4994 4288 c4 -13 13 -50 22 -83 24 -94 23 -93 40 -70 10 14 13 31 9
55 -11 57 -42 120 -61 120 -12 0 -15 -6 -10 -22z"/>
<path d="M5140 4301 c0 -5 11 -23 25 -39 14 -17 35 -51 46 -76 25 -57 39 -59
39 -6 0 33 -7 48 -41 85 -39 42 -69 58 -69 36z"/>
<path d="M5095 4290 c-9 -15 63 -140 80 -140 18 0 20 42 4 73 -14 27 -60 77
-70 77 -4 0 -11 -5 -14 -10z"/>
<path d="M5517 4143 c-10 -10 -8 -78 3 -108 9 -23 13 -25 25 -15 20 17 20 94
-1 114 -18 18 -18 18 -27 9z"/>
<path d="M4432 4072 c-33 -33 -58 -149 -30 -140 20 7 73 137 61 149 -8 8 -17
5 -31 -9z"/>
<path d="M5251 3935 c0 -145 8 -182 31 -128 20 49 22 155 4 217 -9 31 -21 56
-26 56 -5 0 -9 -64 -9 -145z"/>
<path d="M5366 4052 c-3 -5 -1 -37 4 -73 5 -35 10 -98 10 -139 0 -71 1 -73 18
-57 24 25 30 188 8 240 -14 36 -29 46 -40 29z"/>
<path d="M4641 4013 c-20 -70 -10 -183 15 -183 14 0 22 45 26 150 3 54 0 65
-14 68 -12 2 -20 -7 -27 -35z"/>
<path d="M4501 4003 c-21 -74 -10 -153 20 -153 6 0 29 132 29 170 0 13 -7 20
-20 20 -14 0 -22 -11 -29 -37z"/>
<path d="M4757 4033 c-3 -4 -2 -61 0 -125 4 -85 9 -118 18 -118 7 0 15 10 19
23 8 29 7 132 -2 181 -7 37 -24 57 -35 39z"/>
<path d="M4984 3993 c3 -27 8 -79 12 -118 l6 -70 19 24 c37 45 16 211 -26 211
-13 0 -15 -9 -11 -47z"/>
<path d="M5114 3934 c8 -108 18 -154 35 -154 16 0 22 72 12 150 -12 91 -18
110 -38 110 -14 0 -15 -14 -9 -106z"/>
<path d="M4847 4023 c-9 -8 -9 -226 -1 -247 29 -77 62 141 33 223 -11 31 -19
37 -32 24z"/>
<path d="M4363 3813 c-10 -38 -10 -132 0 -167 14 -51 27 -14 34 92 5 90 4 102
-10 102 -10 0 -20 -12 -24 -27z"/>
<path d="M4489 3732 c-21 -71 -1 -249 25 -221 2 2 5 60 7 128 3 90 1 125 -8
128 -7 3 -17 -12 -24 -35z"/>
<path d="M4625 3759 c-5 -7 -10 -44 -13 -83 -5 -74 15 -146 39 -146 9 0 10 28
5 112 -6 109 -16 143 -31 117z"/>
<path d="M5146 3673 c11 -198 21 -236 45 -166 19 56 15 165 -8 210 -32 66 -43
54 -37 -44z"/>
<path d="M4719 3729 c-12 -23 -8 -177 6 -211 17 -42 25 -10 25 101 0 120 -9
151 -31 110z"/>
<path d="M5290 3687 c0 -30 -3 -88 -6 -130 -8 -88 4 -101 31 -34 26 64 32 160
11 192 -25 39 -36 30 -36 -28z"/>
<path d="M5417 3733 c-11 -17 -20 -233 -10 -233 45 0 66 191 25 232 -5 5 -12
6 -15 1z"/>
<path d="M5500 3713 c0 -15 -7 -69 -17 -120 -9 -51 -13 -96 -9 -101 24 -23 74
148 62 211 -8 44 -36 52 -36 10z"/>
<path d="M5586 3714 c-3 -9 -6 -45 -6 -80 0 -47 4 -64 13 -64 20 0 37 44 37
93 0 55 -29 89 -44 51z"/>
<path d="M4927 3713 c-12 -11 -7 -127 6 -152 17 -34 32 -26 30 17 -7 117 -17
155 -36 135z"/>
<path d="M5039 3720 c0 -3 -2 -67 -4 -142 -3 -112 -1 -138 10 -138 27 0 44
144 26 224 -8 32 -30 71 -32 56z"/>
<path d="M4808 3688 c-14 -27 -14 -122 1 -160 6 -16 18 -28 27 -28 14 0 15 7
10 38 -3 20 -6 67 -6 105 0 69 -10 84 -32 45z"/>
<path d="M4300 3535 c0 -59 86 -218 102 -189 7 13 -74 202 -89 208 -8 4 -13
-4 -13 -19z"/>
<path d="M4407 3513 c-14 -25 53 -182 82 -191 18 -6 10 28 -31 126 -28 67 -40
83 -51 65z"/>
<path d="M4514 3448 c13 -67 85 -193 100 -177 12 11 -80 209 -97 209 -5 0 -7
-13 -3 -32z"/>
<path d="M4628 3464 c-16 -15 35 -136 71 -168 34 -31 27 2 -19 94 -41 82 -43
84 -52 74z"/>
<path d="M5462 3403 c-65 -89 -78 -111 -70 -119 20 -19 138 121 138 163 0 37
-15 27 -68 -44z"/>
<path d="M5383 3447 c-28 -35 -92 -166 -85 -171 17 -10 95 95 107 145 7 29 -7
46 -22 26z"/>
<path d="M4774 3365 c9 -89 17 -125 27 -125 12 0 11 107 -2 153 -17 62 -33 45
-25 -28z"/>
<path d="M5247 3384 c-52 -82 -62 -160 -12 -102 32 38 61 116 47 130 -7 7 -18
-1 -35 -28z"/>
<path d="M4880 3323 c0 -127 29 -162 38 -45 4 63 -8 124 -26 130 -9 3 -12 -20
-12 -85z"/>
<path d="M5166 3395 c-71 -167 -80 -199 -52 -176 25 21 67 130 64 164 -3 28
-5 29 -12 12z"/>
<path d="M5026 3323 c-4 -27 -9 -60 -12 -75 -8 -40 14 -35 32 7 19 45 19 115
0 115 -9 0 -16 -17 -20 -47z"/>
<path d="M7466 4220 c6 -6 53 -22 105 -36 96 -25 260 -96 281 -122 16 -19 -2
-29 -67 -38 -63 -8 -95 -20 -95 -35 0 -12 37 -10 207 7 l62 7 107 -84 c59 -46
159 -133 221 -193 115 -110 149 -130 98 -56 -36 52 -133 142 -265 247 -58 46
-105 89 -105 96 0 6 19 15 43 19 99 17 66 40 -45 31 l-72 -6 -123 62 c-68 33
-163 72 -212 86 -93 26 -158 33 -140 15z"/>
<path d="M6936 4151 c-3 -5 22 -22 56 -38 93 -44 222 -129 209 -138 -7 -4 -69
-11 -139 -15 -70 -5 -158 -14 -196 -20 -87 -14 -109 -9 -221 51 -123 65 -174
84 -187 71 -7 -7 6 -17 43 -33 191 -82 295 -156 500 -356 96 -95 179 -173 182
-173 4 0 7 4 7 10 0 16 -244 274 -314 330 -59 48 -64 55 -47 62 11 4 114 14
229 24 l209 16 43 -22 c60 -30 211 -145 296 -223 38 -35 100 -103 138 -151 65
-80 86 -99 86 -77 0 5 -19 37 -42 72 -61 92 -217 245 -330 324 -96 67 -110 85
-63 85 13 0 27 5 30 10 4 6 -17 10 -56 10 -58 0 -69 4 -163 59 -175 101 -259
140 -270 122z"/>
<path d="M6133 3982 c10 -10 17 -21 17 -24 0 -3 -41 -8 -91 -11 -92 -6 -146
-26 -100 -37 12 -3 70 -2 129 2 59 3 123 2 143 -3 61 -15 237 -182 333 -314 8
-11 18 -17 22 -13 14 14 -82 144 -169 231 -49 48 -86 91 -83 94 4 4 58 9 121
11 63 3 115 8 115 13 0 5 -6 9 -12 10 -7 0 -81 4 -164 8 -126 6 -157 11 -192
29 -24 12 -52 22 -64 22 -20 0 -20 -1 -5 -18z"/>
<path d="M2303 4191 c-99 -47 -205 -115 -294 -187 -36 -30 -75 -54 -86 -54
-26 0 -35 -10 -22 -26 8 -10 -7 -39 -62 -119 -40 -58 -69 -108 -64 -113 4 -4
17 6 29 22 11 17 48 66 82 110 l60 81 167 2 c92 1 168 -1 171 -5 2 -4 -25 -47
-60 -95 -85 -117 -173 -276 -181 -322 -9 -56 8 -39 62 62 77 143 184 293 259
368 40 39 133 112 208 163 147 101 172 122 143 122 -33 0 -260 -151 -358 -237
-36 -32 -39 -33 -105 -28 -37 3 -107 8 -155 11 l-89 6 29 30 c35 37 160 117
280 181 51 26 95 53 98 58 12 19 -33 7 -112 -30z"/>
<path d="M3035 4089 c-60 -39 -128 -86 -150 -103 -62 -51 -78 -56 -170 -56
-65 0 -86 -3 -83 -12 3 -8 29 -15 63 -18 32 -3 60 -10 62 -15 2 -6 -15 -35
-37 -65 -54 -73 -103 -172 -98 -201 3 -20 10 -13 37 41 39 75 124 194 154 215
15 11 49 15 118 15 198 0 264 27 77 32 -67 2 -113 7 -115 14 -2 5 64 54 147
108 82 54 150 102 150 107 0 24 -55 1 -155 -62z"/>
<path d="M3520 4038 c-87 -43 -331 -311 -318 -350 2 -6 39 29 83 78 94 105
131 138 140 124 7 -11 346 -14 458 -3 187 17 -39 38 -286 26 -92 -4 -167 -5
-167 -1 0 4 32 33 70 64 39 32 70 64 70 71 0 16 3 17 -50 -9z"/>
<path d="M4284 2839 c-3 -6 -1 -16 5 -22 6 -6 11 -23 11 -38 0 -25 8 -32 69
-60 39 -18 71 -40 74 -50 10 -38 219 -102 434 -133 146 -21 424 -21 513 -1 82
20 190 57 190 67 0 12 -31 10 -111 -7 -40 -9 -74 -13 -77 -10 -6 5 6 10 64 24
67 18 248 97 252 111 4 10 -7 12 -52 7 -31 -3 -56 -2 -56 2 0 3 14 15 31 25
20 12 27 22 21 28 -7 7 -26 1 -56 -17 -48 -28 -58 -25 -29 7 29 32 3 38 -62
15 -57 -20 -78 -21 -425 -22 -347 0 -370 1 -475 24 -60 13 -138 32 -172 42
-44 14 -68 17 -81 10 -11 -6 -24 -6 -33 0 -19 12 -26 11 -35 -2z m391 -144
c38 -12 38 -13 10 -13 -16 0 -46 6 -65 13 -30 12 -32 13 -10 13 14 0 43 -5 65
-13z m752 -31 c-3 -3 -12 -4 -19 -1 -8 3 -5 6 6 6 11 1 17 -2 13 -5z"/>
<path d="M4188 2293 c-16 -2 -28 -8 -28 -13 0 -4 31 -26 68 -48 69 -41 105
-72 84 -72 -6 0 -46 15 -89 34 -43 19 -79 33 -82 31 -11 -12 14 -35 74 -70 37
-22 71 -47 76 -57 12 -22 0 -23 -27 -3 -24 18 -44 19 -44 1 0 -41 153 -126
305 -171 50 -14 110 -36 135 -47 56 -25 168 -37 450 -44 311 -9 362 1 542 109
92 54 110 81 63 93 -37 9 -31 28 25 75 56 48 66 79 23 79 l-27 0 27 28 c34 36
34 44 0 40 -17 -2 -28 2 -29 10 -1 6 -2 14 -3 16 0 3 -31 -4 -68 -15 -105 -30
-330 -69 -403 -70 -137 -2 -620 23 -730 37 -63 8 -159 26 -212 39 -53 14 -98
24 -100 24 -2 -1 -15 -4 -30 -6z m1262 -398 c0 -9 -81 -26 -92 -19 -8 5 -5 10
8 15 21 8 84 12 84 4z"/>
<path d="M4170 1702 c0 -5 19 -19 43 -32 80 -44 80 -45 11 -44 -89 2 -83 -16
21 -66 46 -22 89 -49 94 -59 6 -10 24 -24 41 -31 59 -25 29 -29 -35 -5 -72 28
-85 30 -85 15 0 -15 159 -87 232 -105 134 -34 165 -44 228 -72 64 -27 69 -28
235 -27 179 1 287 15 474 59 85 21 111 31 142 59 20 19 48 40 61 46 29 16 88
71 88 84 0 5 8 18 17 28 17 19 16 20 -6 37 -20 16 -22 21 -11 41 11 20 10 22
-6 17 -301 -92 -356 -101 -634 -101 l-245 -1 -110 32 c-60 17 -153 41 -205 53
-52 12 -106 29 -119 37 -13 8 -35 13 -49 10 -15 -3 -54 3 -87 14 -65 20 -95
24 -95 11z m245 -132 c8 -13 -5 -13 -25 0 -13 8 -13 10 2 10 9 0 20 -4 23 -10z"/>
<path d="M4330 1161 c0 -5 14 -14 30 -21 17 -7 39 -24 49 -39 11 -15 41 -34
70 -44 28 -10 51 -22 51 -27 0 -6 -6 -9 -12 -7 -7 1 -13 -5 -13 -13 0 -31 101
-80 255 -123 102 -28 382 -31 508 -4 92 20 192 54 192 66 0 4 -8 15 -18 24
-14 13 -25 15 -50 8 -17 -5 -34 -6 -37 -1 -3 5 9 12 27 15 40 9 170 73 180 89
12 17 10 22 -17 34 -20 10 -35 8 -75 -8 -62 -24 -80 -25 -80 -4 0 14 -7 15
-40 10 -218 -35 -518 -51 -671 -37 -98 9 -131 17 -212 51 -93 39 -137 49 -137
31z m413 -218 c-7 -2 -19 -2 -25 0 -7 3 -2 5 12 5 14 0 19 -2 13 -5z"/>
<path d="M7244 2561 c3 -5 -26 -17 -64 -27 -39 -10 -75 -21 -82 -25 -7 -4 25
-42 86 -100 54 -52 101 -96 105 -99 5 -3 11 -12 14 -20 3 -8 5 53 5 135 -1 83
-3 137 -5 122 l-4 -28 -20 26 c-19 23 -47 37 -35 16z"/>
<path d="M6750 2300 c0 -39 1 -40 28 -34 15 4 29 8 31 10 8 7 -10 54 -19 49
-5 -3 -11 -1 -15 5 -13 22 -25 8 -25 -30z"/>
<path d="M6355 2299 c-4 -6 -5 -12 -2 -15 2 -3 7 2 10 11 7 17 1 20 -8 4z"/>
<path d="M6181 2281 c-1 -20 1 -21 14 -11 16 14 21 25 6 16 -5 -4 -12 0 -14 6
-3 7 -6 2 -6 -11z"/>
<path d="M6880 2254 c0 -20 -6 -34 -16 -38 -9 -3 -13 -13 -11 -23 3 -10 8 -35
12 -55 4 -28 11 -38 25 -38 10 0 22 -9 25 -20 12 -38 23 -20 14 21 -6 23 -9
49 -8 58 4 45 -3 81 -21 102 l-19 24 -1 -31z"/>
<path d="M6971 2254 c13 -16 29 -19 29 -5 0 5 -9 11 -21 14 -16 4 -18 3 -8 -9z"/>
<path d="M7003 2229 c-5 -17 -12 -20 -39 -17 -19 2 -34 0 -34 -4 0 -4 10 -8
23 -9 21 -1 21 -1 -3 -8 -14 -4 -20 -9 -15 -11 16 -8 255 0 255 8 0 8 -149 62
-170 62 -6 0 -14 -9 -17 -21z"/>
<path d="M6774 2220 c-21 -8 -21 -10 -8 -77 8 -37 16 -86 19 -108 23 -176 97
-304 211 -366 22 -11 27 -10 44 7 11 10 22 33 26 51 5 28 1 37 -41 82 -34 36
-52 67 -66 112 -17 53 -54 129 -63 129 -2 0 -3 -33 -2 -72 2 -82 23 -133 82
-198 45 -50 27 -62 -25 -15 -64 58 -116 225 -134 429 -2 33 -12 39 -43 26z"/>
<path d="M6504 2025 c-7 -18 3 -35 22 -35 8 0 14 10 14 25 0 27 -27 35 -36 10z"/>
</g>
</svg>
