<?xml version="1.0" standalone="no"?>
<!DOCTYPE svg PUBLIC "-//W3C//DTD SVG 20010904//EN"
 "http://www.w3.org/TR/2001/REC-SVG-20010904/DTD/svg10.dtd">
<svg version="1.0" xmlns="http://www.w3.org/2000/svg"
 width="1000.000000pt" height="1000.000000pt" viewBox="0 0 1000.000000 1000.000000"
 preserveAspectRatio="xMidYMid meet">
<metadata>
Created by potrace 1.16, written by Peter Selinger 2001-2019
</metadata>
<g transform="translate(0.000000,1000.000000) scale(0.100000,-0.100000)"
fill="#000000" stroke="none">
<path d="M4575 7770 c-1488 -111 -2769 -794 -3303 -1760 -135 -243 -215 -472
-253 -725 -19 -122 -16 -479 4 -597 39 -227 102 -415 209 -625 228 -449 587
-821 1109 -1150 117 -73 419 -232 539 -282 527 -222 1064 -353 1640 -402 188
-16 773 -17 960 -1 616 53 1231 210 1730 443 1070 498 1719 1289 1789 2180 11
140 4 332 -19 475 -90 569 -461 1132 -1025 1556 -488 367 -1055 619 -1741 772
-166 38 -488 89 -659 106 -145 14 -827 21 -980 10z m862 -35 c439 -35 805
-105 1197 -227 686 -213 1324 -602 1718 -1045 53 -59 106 -121 118 -138 12
-16 0 -5 -26 25 -26 30 -115 123 -198 205 -238 237 -500 430 -801 590 -49 27
-109 59 -132 71 -58 32 -280 130 -388 171 -272 105 -611 200 -905 253 -380 69
-618 90 -1010 91 -302 0 -362 -3 -625 -32 -271 -30 -436 -60 -718 -128 -219
-54 -548 -161 -692 -226 -16 -8 -82 -37 -145 -65 -221 -99 -458 -235 -669
-385 -141 -100 -242 -185 -389 -327 -57 -55 -106 -98 -108 -95 -2 2 49 55 113
118 410 397 937 704 1554 904 402 130 847 215 1285 244 207 14 621 12 821 -4z
m3 -225 c1091 -87 2068 -492 2678 -1110 137 -138 234 -262 351 -445 119 -186
228 -489 262 -725 15 -109 15 -361 -1 -465 -84 -558 -410 -1058 -955 -1465
-742 -554 -1807 -856 -2910 -826 -362 9 -649 42 -981 111 -180 38 -185 39
-424 111 -433 131 -847 330 -1176 565 -61 44 -120 88 -130 97 -11 9 -42 35
-69 57 -87 70 -225 206 -323 320 -260 303 -425 647 -483 1010 -17 103 -17 407
0 510 73 457 320 887 711 1243 651 592 1608 954 2700 1022 166 10 565 5 750
-10z m-3815 -1092 c-48 -54 -63 -69 -45 -43 18 25 73 85 78 85 2 0 -13 -19
-33 -42z m-105 -128 c-11 -16 -26 -33 -33 -37 -12 -7 0 11 32 50 23 28 24 20
1 -13z m7011 -42 c17 -24 18 -29 6 -19 -18 14 -42 51 -33 51 3 0 15 -15 27
-32z m69 -99 c15 -28 5 -23 -15 7 -9 15 -12 23 -6 20 6 -4 16 -16 21 -27z"/>
<path d="M4685 7359 c-280 -15 -675 -74 -958 -145 -346 -86 -705 -224 -997
-383 -539 -294 -935 -682 -1140 -1114 -126 -268 -178 -512 -167 -782 32 -741
574 -1421 1477 -1853 752 -361 1668 -511 2603 -427 1224 109 2285 642 2781
1395 182 277 258 489 297 832 19 169 -10 411 -73 608 -297 931 -1418 1658
-2831 1835 -338 42 -648 53 -992 34z m1715 -604 c0 -8 -9 -72 -20 -142 -12
-71 -32 -198 -45 -283 -14 -85 -27 -170 -30 -187 l-6 -33 -393 0 c-300 0 -396
-3 -409 -13 -19 -13 -20 -19 -82 -417 -20 -124 -44 -279 -55 -345 -43 -266
-330 -2092 -330 -2098 0 -4 -142 -7 -315 -7 l-315 0 5 23 c2 12 19 112 36 222
51 333 90 579 185 1175 85 530 204 1306 210 1361 5 55 4 67 -11 79 -15 13 -82
16 -400 18 l-382 3 8 47 c4 26 24 151 44 277 20 127 41 254 46 283 l10 52
1125 0 c985 0 1124 -2 1124 -15z m-2140 -1010 c0 -8 -14 -76 -30 -150 l-30
-135 -453 -447 c-248 -246 -521 -515 -605 -598 -85 -82 -160 -162 -168 -176
-27 -54 -26 -54 488 -57 360 -2 468 -5 468 -15 0 -7 -14 -81 -32 -164 l-31
-153 -784 0 c-624 0 -783 3 -783 13 0 7 13 75 30 152 l30 140 407 400 c878
860 856 837 798 863 -19 9 -148 12 -470 12 -244 0 -446 3 -448 8 -2 4 12 78
31 165 l35 157 773 0 c683 0 774 -2 774 -15z m2923 -8 c219 -45 323 -91 418
-186 94 -95 113 -147 113 -311 0 -92 -5 -141 -18 -185 -68 -226 -257 -385
-553 -465 -146 -40 -253 -51 -556 -59 -250 -6 -301 -10 -314 -23 -9 -9 -47
-149 -92 -334 l-76 -319 -253 -3 c-138 -1 -252 0 -252 2 0 5 114 487 174 741
26 105 70 291 100 415 29 124 82 343 117 488 l64 263 525 -4 c425 -4 540 -7
603 -20z"/>
<path d="M6492 5437 c-6 -7 -22 -60 -36 -117 -98 -412 -105 -453 -85 -466 19
-12 333 -6 434 8 144 19 262 78 315 155 34 50 49 102 50 176 0 139 -72 207
-257 243 -99 19 -406 20 -421 1z"/>
</g>
</svg>
