<?xml version="1.0" standalone="no"?>
<!DOCTYPE svg PUBLIC "-//W3C//DTD SVG 20010904//EN"
 "http://www.w3.org/TR/2001/REC-SVG-20010904/DTD/svg10.dtd">
<svg version="1.0" xmlns="http://www.w3.org/2000/svg"
 width="1000.000000pt" height="1000.000000pt" viewBox="0 0 1000.000000 1000.000000"
 preserveAspectRatio="xMidYMid meet">
<metadata>
Created by potrace 1.16, written by Peter Selinger 2001-2019
</metadata>
<g transform="translate(0.000000,1000.000000) scale(0.100000,-0.100000)"
fill="#000000" stroke="none">
<path d="M4418 8783 c6 -2 18 -2 25 0 6 3 1 5 -13 5 -14 0 -19 -2 -12 -5z"/>
<path d="M5383 8783 c9 -2 23 -2 30 0 6 3 -1 5 -18 5 -16 0 -22 -2 -12 -5z"/>
<path d="M4368 8773 c6 -2 18 -2 25 0 6 3 1 5 -13 5 -14 0 -19 -2 -12 -5z"/>
<path d="M4318 8763 c7 -3 16 -2 19 1 4 3 -2 6 -13 5 -11 0 -14 -3 -6 -6z"/>
<path d="M4278 8753 c7 -3 16 -2 19 1 4 3 -2 6 -13 5 -11 0 -14 -3 -6 -6z"/>
<path d="M4238 8743 c7 -3 16 -2 19 1 4 3 -2 6 -13 5 -11 0 -14 -3 -6 -6z"/>
<path d="M4130 8720 c-20 -6 -21 -8 -5 -8 11 0 29 3 40 8 25 11 -1 11 -35 0z"/>
<path d="M4030 8690 c-13 -9 -13 -10 0 -10 8 0 22 5 30 10 13 9 13 10 0 10 -8
0 -22 -5 -30 -10z"/>
<path d="M3965 8665 c-25 -12 -26 -14 -5 -9 28 7 60 23 45 23 -5 0 -23 -6 -40
-14z"/>
<path d="M5810 8677 c8 -9 143 -58 147 -53 3 2 -20 13 -49 24 -68 25 -104 36
-98 29z"/>
<path d="M5097 8644 c144 -10 323 -35 433 -59 24 -5 24 -5 3 4 -64 29 -386 71
-523 69 -69 -1 -53 -3 87 -14z"/>
<path d="M3824 8611 c-484 -201 -933 -582 -1214 -1031 -30 -47 -88 -157 -131
-245 -156 -324 -235 -642 -243 -980 -4 -158 -4 -155 19 105 19 229 43 345 121
595 32 103 145 346 214 460 16 28 33 57 37 65 13 26 86 135 102 151 9 9 23 26
31 39 8 12 31 41 51 64 20 22 54 64 74 91 43 57 144 158 195 195 19 14 64 52
100 86 64 59 216 164 380 261 107 64 183 102 285 142 44 18 82 34 84 37 11 11
-21 0 -105 -35z"/>
<path d="M5975 8610 c3 -5 11 -10 16 -10 37 0 395 -201 476 -266 23 -19 45
-34 50 -34 4 0 28 -19 53 -41 25 -22 70 -59 100 -81 89 -67 331 -317 384 -395
27 -40 53 -73 57 -73 5 0 9 -5 9 -11 0 -6 14 -28 30 -49 17 -21 30 -40 30 -43
0 -3 15 -27 33 -53 18 -27 59 -102 91 -166 63 -125 87 -155 36 -45 -66 143
-192 345 -298 477 -82 103 -231 257 -329 341 -88 76 -128 107 -243 190 -69 51
-246 152 -365 210 -125 60 -141 66 -130 49z"/>
<path d="M4300 8590 c-11 -8 -7 -9 15 -4 37 8 45 14 19 14 -10 0 -26 -5 -34
-10z"/>
<path d="M4827 8579 c-9 -5 -24 -23 -33 -40 -15 -29 -14 -31 19 -64 38 -38 57
-44 57 -19 0 8 -14 20 -31 26 -36 12 -37 47 -1 63 12 5 22 18 22 27 0 20 -7
22 -33 7z"/>
<path d="M4112 8540 c-390 -133 -738 -339 -1012 -597 -37 -35 -78 -73 -93 -86
-15 -12 -27 -27 -27 -32 0 -5 -17 -29 -38 -54 -20 -25 -50 -64 -65 -86 -23
-32 -20 -30 14 10 77 89 252 265 337 338 263 227 590 406 935 512 62 19 101
34 87 34 -14 0 -76 -18 -138 -39z"/>
<path d="M4591 8544 c-12 -21 -19 -44 -16 -55 7 -22 57 -59 79 -59 26 0 18 14
-21 35 -45 25 -49 35 -23 65 21 24 27 50 11 50 -5 0 -19 -16 -30 -36z"/>
<path d="M4690 8548 c-14 -23 -16 -36 -9 -49 13 -25 78 -73 86 -65 12 11 -12
41 -36 44 -11 2 -26 12 -31 22 -8 15 -4 23 20 40 35 25 39 40 10 40 -12 0 -28
-13 -40 -32z"/>
<path d="M4921 8554 c-24 -31 -26 -43 -10 -78 12 -26 35 -40 50 -30 15 9 10
20 -16 32 -14 6 -25 20 -25 30 0 10 11 25 25 32 14 7 25 19 25 27 0 22 -27 15
-49 -13z"/>
<path d="M5568 8573 c7 -3 16 -2 19 1 4 3 -2 6 -13 5 -11 0 -14 -3 -6 -6z"/>
<path d="M4502 8537 c-36 -37 -38 -44 -17 -83 15 -29 35 -42 68 -43 29 -1 19
17 -17 29 -57 18 -62 33 -26 74 41 47 34 67 -8 23z"/>
<path d="M5015 8544 c-14 -15 -25 -30 -25 -34 0 -19 33 -70 46 -70 11 0 12 4
4 19 -5 11 -15 23 -20 26 -18 11 -10 35 15 45 14 5 25 16 25 25 0 23 -18 18
-45 -11z"/>
<path d="M5630 8557 c0 -5 152 -57 166 -57 19 0 -24 21 -76 35 -30 9 -63 18
-72 21 -10 3 -18 3 -18 1z"/>
<path d="M5107 8543 c-16 -15 -6 -30 17 -26 16 3 23 10 19 19 -5 15 -25 19
-36 7z"/>
<path d="M5190 8535 c-7 -9 -10 -18 -7 -21 10 -11 37 5 37 21 0 19 -14 19 -30
0z"/>
<path d="M5161 8485 c-1 -31 29 -69 43 -55 8 8 6 14 -7 21 -10 6 -22 20 -27
32 -8 21 -9 21 -9 2z"/>
<path d="M5825 8490 c27 -12 43 -12 25 0 -8 5 -22 9 -30 9 -10 0 -8 -3 5 -9z"/>
<path d="M5235 8481 c-8 -13 3 -18 59 -26 58 -9 57 8 -2 25 -46 12 -49 12 -57
1z"/>
<path d="M5090 8462 c0 -12 7 -25 15 -29 27 -10 30 6 7 30 l-22 21 0 -22z"/>
<path d="M5895 8465 c17 -8 57 -26 90 -41 33 -15 68 -31 78 -36 9 -5 17 -6 17
-3 0 8 -157 81 -190 89 -21 5 -20 4 5 -9z"/>
<path d="M4333 8435 c-248 -62 -425 -131 -626 -241 -183 -101 -404 -261 -502
-365 -56 -59 -27 -40 100 66 308 257 607 411 999 514 112 30 172 51 136 50 -8
-1 -57 -12 -107 -24z"/>
<path d="M5390 8451 c0 -6 12 -13 28 -16 262 -56 486 -142 718 -275 180 -103
282 -178 460 -337 45 -40 85 -73 90 -73 15 0 -119 130 -206 199 -283 226 -597
383 -939 472 -64 16 -124 32 -133 35 -10 3 -18 1 -18 -5z"/>
<path d="M4585 8364 c-55 -7 -122 -18 -150 -25 -481 -110 -856 -310 -1170
-624 -267 -266 -468 -598 -570 -943 -75 -254 -97 -419 -93 -689 l3 -193 80 46
c232 133 699 366 920 459 247 104 512 209 580 231 22 7 85 29 140 48 393 143
1072 311 1575 390 209 33 807 86 973 86 53 0 97 3 97 6 0 3 -25 49 -57 102
-239 410 -624 748 -1067 937 -189 80 -447 150 -646 175 -117 14 -494 11 -615
-6z m630 -105 c274 -26 611 -140 865 -294 259 -157 455 -334 643 -582 43 -56
127 -194 127 -208 0 -12 -19 -3 -39 18 -11 12 -60 76 -109 142 -115 155 -229
275 -358 379 -361 289 -741 449 -1204 506 -109 13 -372 13 -480 -1 -478 -59
-915 -256 -1246 -561 -243 -225 -382 -415 -516 -709 -107 -235 -170 -502 -189
-809 -11 -179 -14 -194 -29 -185 -13 8 -13 195 1 326 18 183 47 320 99 482
180 557 605 1040 1135 1293 139 66 354 140 500 173 208 46 509 57 800 30z
m390 -834 c23 -241 27 -222 -54 -227 -25 -1 -46 2 -47 7 -1 6 -5 45 -9 88 -6
73 -8 77 -31 77 -32 0 -35 -11 -25 -100 4 -41 7 -76 6 -77 -1 -2 -29 -6 -61
-9 l-60 -6 -20 213 -19 214 25 6 c14 4 42 7 63 8 36 1 37 0 37 -36 0 -21 3
-55 6 -75 6 -34 10 -38 36 -38 29 0 30 1 24 38 -3 20 -7 55 -8 77 -3 40 -3 40
37 46 89 14 78 35 100 -206z m-516 119 c31 -26 60 -100 44 -115 -4 -4 -31 -11
-59 -14 l-51 -7 -7 36 c-8 40 -17 49 -40 40 -21 -8 -20 -38 7 -163 15 -69 28
-108 39 -115 25 -15 33 -1 33 57 l0 51 43 9 c68 13 75 7 70 -68 -6 -97 -52
-135 -164 -135 -50 0 -60 4 -88 33 -37 36 -63 129 -72 252 -7 88 13 125 78
148 70 25 131 22 167 -9z m-458 -94 c45 -25 69 -135 35 -168 -14 -15 -13 -17
13 -28 22 -9 34 -25 50 -71 11 -32 27 -70 35 -84 l14 -26 -60 -17 c-34 -9 -62
-15 -64 -13 -3 2 -15 35 -28 73 -20 60 -26 69 -49 72 -33 4 -33 -1 -6 -91 11
-38 17 -73 12 -77 -10 -9 -103 -34 -107 -29 -7 10 -119 409 -115 413 2 2 42
16 89 29 92 28 150 33 181 17z m-427 -152 c14 -33 15 -43 4 -49 -7 -5 -16 -9
-20 -9 -3 0 -27 -9 -52 -19 -44 -20 -45 -20 -33 -51 6 -17 16 -29 22 -26 5 2
33 13 61 24 l51 21 17 -42 c9 -22 13 -44 8 -48 -4 -3 -29 -14 -55 -24 -26 -10
-49 -21 -51 -24 -3 -3 2 -21 9 -38 l14 -32 60 24 c33 14 64 25 69 25 4 0 15
-20 24 -44 l16 -44 -118 -46 c-66 -25 -123 -46 -127 -46 -7 0 -156 375 -158
396 0 7 210 92 231 93 7 1 19 -18 28 -41z m-308 -370 c35 -70 64 -130 64 -132
0 -7 -91 -58 -96 -53 -3 2 -34 60 -69 128 -36 68 -65 120 -65 114 0 -5 18 -64
40 -130 22 -66 40 -126 40 -132 0 -12 -49 -43 -68 -43 -6 0 -47 50 -92 110
-45 61 -84 110 -86 110 -3 0 24 -57 59 -126 l64 -125 -49 -25 c-28 -14 -51
-24 -53 -22 -9 9 -197 380 -194 382 19 17 153 76 159 69 4 -4 38 -50 74 -102
36 -52 66 -91 66 -87 0 5 -18 60 -40 122 l-39 114 77 39 77 39 33 -62 c18 -33
62 -118 98 -188z"/>
<path d="M4500 7353 c0 -5 5 -25 11 -46 7 -26 15 -37 26 -35 47 9 37 88 -12
88 -14 0 -25 -3 -25 -7z"/>
<path d="M6091 8377 c20 -17 121 -68 115 -58 -7 11 -98 61 -112 61 -4 0 -5 -2
-3 -3z"/>
<path d="M6225 8303 c6 -6 28 -20 50 -32 22 -13 31 -15 20 -6 -22 18 -86 53
-70 38z"/>
<path d="M6320 8246 c0 -3 37 -30 83 -62 115 -80 236 -182 350 -297 53 -54 97
-94 97 -89 0 19 -230 243 -306 297 -157 113 -224 158 -224 151z"/>
<path d="M6860 7783 c0 -5 20 -31 45 -58 25 -28 41 -41 36 -30 -12 25 -81 99
-81 88z"/>
<path d="M3053 7767 c-54 -20 -50 -29 12 -25 l60 3 0 -53 c-1 -48 1 -52 13
-35 14 19 11 89 -5 103 -16 15 -49 18 -80 7z"/>
<path d="M6723 7732 c-22 -17 -22 -17 32 -19 30 0 55 3 55 8 0 5 -9 9 -19 9
-11 0 -23 5 -26 10 -9 14 -16 12 -42 -8z"/>
<path d="M6688 7694 c-4 -3 -5 -12 -2 -20 14 -46 15 -47 25 -37 8 8 7 19 -3
37 -8 15 -17 24 -20 20z"/>
<path d="M2950 7675 c0 -16 20 -19 58 -9 36 10 25 24 -18 24 -29 0 -40 -4 -40
-15z"/>
<path d="M6785 7660 c-4 -6 12 -10 39 -10 25 0 46 5 46 10 0 6 -18 10 -39 10
-22 0 -43 -4 -46 -10z"/>
<path d="M2812 7603 c-157 -224 -227 -347 -277 -491 -48 -136 -43 -137 14 -2
51 125 123 262 181 350 64 95 110 170 106 170 -3 0 -13 -12 -24 -27z"/>
<path d="M3044 7606 c-4 -10 -2 -22 4 -28 8 -8 13 -7 18 6 4 10 2 22 -4 28 -8
8 -13 7 -18 -6z"/>
<path d="M2889 7591 l-24 -20 23 -1 c12 0 31 5 41 12 31 19 54 -7 48 -54 -6
-46 9 -60 24 -21 9 23 7 35 -8 63 -22 43 -66 52 -104 21z"/>
<path d="M6760 7592 c0 -5 7 -15 15 -22 8 -7 15 -8 15 -2 0 5 -7 15 -15 22 -8
7 -15 8 -15 2z"/>
<path d="M6872 7593 c-14 -3 -29 -18 -39 -39 -16 -34 -16 -35 6 -57 22 -20 23
-21 16 -2 -4 11 -8 31 -9 45 -1 22 3 25 42 28 43 3 55 15 26 26 -9 3 -16 5
-17 5 -1 -1 -12 -4 -25 -6z"/>
<path d="M7040 7548 c18 -27 35 -48 37 -48 8 0 -33 62 -51 78 -11 9 -5 -4 14
-30z"/>
<path d="M2829 7501 c-31 -25 -18 -37 20 -21 16 6 39 9 51 5 19 -6 21 -12 15
-46 -4 -25 -3 -39 4 -39 6 0 11 6 11 14 0 8 3 21 6 30 7 18 -46 76 -69 76 -8
0 -25 -9 -38 -19z"/>
<path d="M6910 7498 c0 -8 15 -14 41 -15 51 -1 48 21 -4 25 -25 2 -37 -1 -37
-10z"/>
<path d="M6880 7441 c14 -27 36 -40 27 -17 -4 10 -7 22 -7 27 0 5 -7 9 -15 9
-12 0 -14 -4 -5 -19z"/>
<path d="M6985 7420 c-11 -4 -29 -17 -40 -29 -15 -18 -17 -26 -7 -39 6 -9 31
-51 56 -93 24 -41 52 -82 61 -89 10 -8 6 2 -8 23 -14 21 -42 72 -63 113 -40
82 -38 96 16 93 41 -2 52 0 46 10 -9 13 -40 19 -61 11z"/>
<path d="M7120 7421 c0 -6 4 -13 10 -16 6 -3 7 1 4 9 -7 18 -14 21 -14 7z"/>
<path d="M2770 7399 c-16 -28 -7 -34 23 -14 38 25 69 6 60 -37 -5 -24 -3 -30
8 -26 25 8 22 48 -6 74 -32 30 -70 31 -85 3z"/>
<path d="M7165 7340 c14 -27 28 -50 30 -50 3 0 -6 23 -20 50 -14 28 -28 50
-30 50 -3 0 6 -22 20 -50z"/>
<path d="M7025 7341 c-3 -5 3 -16 12 -23 10 -7 31 -38 47 -68 33 -63 47 -82
54 -76 6 7 -87 176 -98 176 -5 0 -11 -4 -15 -9z"/>
<path d="M2732 7308 c-19 -19 -14 -33 6 -15 32 29 72 15 72 -25 0 -10 5 -18
10 -18 19 0 10 39 -12 54 -27 19 -59 21 -76 4z"/>
<path d="M2700 7231 c-9 -18 -8 -18 20 -8 20 8 25 14 17 19 -18 12 -25 10 -37
-11z"/>
<path d="M7380 7231 c0 -6 4 -13 10 -16 6 -3 7 1 4 9 -7 18 -14 21 -14 7z"/>
<path d="M2777 7196 c-6 -16 2 -28 14 -20 12 7 11 34 0 34 -5 0 -11 -6 -14
-14z"/>
<path d="M2661 7163 c-24 -23 -24 -23 -2 -23 12 0 24 7 27 15 11 27 -1 30 -25
8z"/>
<path d="M2727 7120 c-3 -13 0 -20 8 -20 21 0 27 16 11 29 -11 9 -15 7 -19 -9z"/>
<path d="M7518 7133 c7 -3 16 -2 19 1 4 3 -2 6 -13 5 -11 0 -14 -3 -6 -6z"/>
<path d="M7610 7123 c25 -2 86 -8 135 -13 50 -6 142 -15 204 -21 197 -18 293
-35 308 -55 17 -23 11 -40 -13 -37 -10 1 -98 11 -194 22 -96 11 -231 23 -300
25 -139 6 -123 3 175 -30 83 -9 191 -21 240 -28 l90 -11 3 -32 c2 -18 7 -33
12 -33 10 0 17 57 12 108 -3 31 -9 42 -26 46 -66 16 -573 67 -645 64 l-46 -1
45 -4z"/>
<path d="M2660 7058 c-31 -68 -25 -89 10 -35 32 52 35 62 20 72 -6 4 -19 -13
-30 -37z"/>
<path d="M6735 6980 c-560 -22 -1285 -142 -1890 -311 -964 -271 -1892 -697
-2767 -1271 -308 -202 -386 -259 -393 -285 -9 -37 -1 -38 47 -6 24 16 99 68
168 115 884 605 1815 1047 2870 1362 161 48 556 143 718 172 75 14 173 32 217
40 521 98 1334 144 1880 105 240 -16 560 -50 638 -67 25 -6 27 -4 27 29 0 20
-3 38 -8 40 -10 7 -386 54 -522 66 -161 14 -746 21 -985 11z"/>
<path d="M2613 6938 c-13 -17 -79 -243 -98 -335 -18 -88 -39 -294 -32 -319 3
-11 5 -2 6 19 3 114 61 393 116 561 25 77 28 99 8 74z"/>
<path d="M5678 6933 c6 -2 18 -2 25 0 6 3 1 5 -13 5 -14 0 -19 -2 -12 -5z"/>
<path d="M2456 6885 c-3 -9 -6 -24 -5 -33 0 -9 5 -4 10 12 9 32 6 48 -5 21z"/>
<path d="M5418 6883 c7 -3 16 -2 19 1 4 3 -2 6 -13 5 -11 0 -14 -3 -6 -6z"/>
<path d="M6580 6874 c-358 -22 -637 -58 -1095 -144 -511 -96 -1223 -316 -1770
-547 -252 -107 -317 -136 -555 -254 -431 -214 -814 -435 -1170 -677 -69 -46
-164 -110 -212 -141 l-86 -56 0 -1112 c0 -612 3 -1113 7 -1113 3 0 85 54 181
120 96 66 213 144 260 174 332 211 440 273 820 476 866 463 1850 800 2805 959
567 95 717 106 1390 106 544 0 719 -9 983 -51 52 -8 98 -12 103 -9 5 4 9 440
9 1101 0 867 -3 1096 -12 1099 -38 13 -369 49 -613 65 -324 23 -717 24 -1045
4z m1182 -445 c157 -33 254 -128 288 -280 18 -82 9 -259 -18 -326 -58 -150
-187 -229 -389 -240 l-103 -6 0 -238 0 -239 -215 0 -215 0 0 670 0 670 300 0
c181 0 320 -4 352 -11z m-991 -38 c112 -43 190 -142 228 -293 28 -107 63 -442
63 -598 0 -204 -40 -302 -153 -380 -125 -85 -422 -116 -575 -59 -78 29 -137
86 -179 173 -60 124 -98 388 -99 691 -1 176 1 194 22 246 68 169 247 252 522
245 88 -3 128 -9 171 -25z m-1003 -173 c75 -36 120 -90 154 -188 19 -53 23
-86 23 -176 0 -108 -1 -112 -33 -165 -19 -29 -29 -55 -24 -57 6 -2 29 -17 52
-33 57 -41 92 -121 129 -292 34 -155 47 -188 78 -202 18 -8 42 -69 31 -80 -2
-2 -97 -23 -211 -47 l-208 -45 -23 27 c-24 29 -49 109 -91 289 -33 144 -37
151 -80 151 -28 0 -35 -4 -35 -20 0 -11 20 -117 45 -237 25 -119 45 -222 45
-228 0 -9 -408 -101 -415 -93 -2 2 -62 293 -135 648 -72 355 -134 648 -137
652 -2 5 -2 8 1 8 3 0 137 27 298 60 161 32 309 61 328 63 70 8 145 -4 208
-35z m-859 -289 c28 -91 51 -169 51 -172 0 -3 -46 -20 -102 -38 -57 -17 -107
-35 -112 -39 -10 -10 -4 -33 72 -275 138 -443 190 -612 194 -628 2 -16 -27
-28 -197 -82 -110 -36 -201 -65 -202 -65 -1 0 -16 46 -34 103 -109 355 -251
813 -255 816 -2 2 -51 -10 -108 -27 -57 -18 -108 -32 -113 -32 -11 0 -119 338
-111 345 3 3 178 59 389 126 211 66 402 126 424 133 22 8 43 11 46 7 4 -3 30
-81 58 -172z m-871 -449 c400 -948 383 -905 364 -912 -9 -4 -102 -43 -205 -87
l-188 -79 -146 194 c-80 107 -150 194 -155 194 -5 0 -7 -3 -4 -8 23 -37 175
-427 169 -432 -19 -19 -346 -151 -353 -143 -4 4 -49 107 -100 228 -51 121
-125 297 -165 390 -88 204 -244 580 -247 596 -3 13 389 182 407 175 6 -2 69
-84 140 -182 71 -98 130 -173 132 -168 2 6 -33 97 -77 203 -45 107 -78 197
-73 202 4 4 87 42 183 82 172 73 175 74 186 53 7 -11 66 -149 132 -306z
m-1085 -242 c194 -369 548 -1060 545 -1063 -8 -8 -370 -195 -377 -195 -5 0
-98 -55 -207 -121 -110 -67 -268 -164 -352 -215 -85 -52 -157 -94 -160 -94 -4
0 -40 55 -80 121 l-73 120 -25 327 c-30 408 -33 432 -46 432 -6 0 -67 -34
-136 -76 -72 -44 -128 -72 -133 -67 -13 13 -179 284 -179 292 0 6 666 416 693
427 10 3 38 -33 90 -118 l75 -123 24 -377 c13 -208 27 -380 30 -383 3 -4 48
20 100 52 51 32 119 74 151 93 40 24 56 39 52 50 -3 9 -40 83 -84 166 -237
452 -351 677 -346 682 7 7 358 190 367 191 3 1 35 -54 71 -121z"/>
<path d="M7540 6010 c0 -98 0 -100 23 -100 40 0 59 32 60 99 0 68 -19 101 -60
101 -23 0 -23 -2 -23 -100z"/>
<path d="M6492 6093 c-25 -62 31 -664 69 -734 13 -26 46 -24 60 3 26 48 -27
621 -66 714 -16 38 -50 47 -63 17z"/>
<path d="M5426 5891 c-6 -9 28 -179 38 -188 3 -3 16 -3 29 1 26 6 47 43 47 82
0 30 -26 95 -43 106 -16 11 -65 10 -71 -1z"/>
<path d="M5378 6873 c7 -3 16 -2 19 1 4 3 -2 6 -13 5 -11 0 -14 -3 -6 -6z"/>
<path d="M5275 6863 c-16 -3 -34 -9 -39 -13 -12 -12 66 0 79 11 6 6 6 8 0 8
-6 -1 -23 -4 -40 -6z"/>
<path d="M5138 6823 c6 -2 18 -2 25 0 6 3 1 5 -13 5 -14 0 -19 -2 -12 -5z"/>
<path d="M4550 6660 c-8 -5 -10 -10 -5 -10 6 0 17 5 25 10 8 5 11 10 5 10 -5
0 -17 -5 -25 -10z"/>
<path d="M8388 6523 c6 -2 18 -2 25 0 6 3 1 5 -13 5 -14 0 -19 -2 -12 -5z"/>
<path d="M2372 6500 c0 -14 2 -19 5 -12 2 6 2 18 0 25 -3 6 -5 1 -5 -13z"/>
<path d="M8552 6495 c37 -8 78 -20 90 -27 13 -7 27 -11 32 -10 8 3 4 -43 -9
-103 -12 -55 -13 -55 -38 -46 -29 11 -296 61 -326 61 -17 0 -21 -6 -21 -29 0
-34 2 -35 115 -51 95 -14 202 -38 226 -50 14 -8 18 -4 23 22 3 17 13 39 21 48
9 10 16 42 17 90 l3 75 -46 11 c-25 7 -70 14 -100 17 -51 6 -51 5 13 -8z"/>
<path d="M3675 6340 c-3 -5 -2 -10 4 -10 5 0 13 5 16 10 3 6 2 10 -4 10 -5 0
-13 -4 -16 -10z"/>
<path d="M3570 6295 c-14 -8 -20 -14 -14 -15 5 0 19 7 30 15 24 18 16 19 -16
0z"/>
<path d="M8285 6282 c-3 -3 -5 -457 -5 -1008 l0 -1003 -67 -39 c-38 -22 -119
-68 -181 -102 -62 -35 -115 -67 -118 -71 -6 -10 21 -16 111 -24 85 -8 343 -49
478 -76 54 -11 102 -18 105 -14 14 13 -4 156 -48 390 -50 267 -59 319 -69 400
-6 44 -17 118 -26 165 -41 225 -40 216 -12 346 14 65 33 169 42 229 9 61 34
193 56 295 37 178 81 441 75 448 -3 3 -241 52 -308 64 -15 3 -30 3 -33 0z"/>
<path d="M3470 6250 c-8 -5 -10 -10 -5 -10 6 0 17 5 25 10 8 5 11 10 5 10 -5
0 -17 -5 -25 -10z"/>
<path d="M3365 6200 c-3 -6 1 -7 9 -4 18 7 21 14 7 14 -6 0 -13 -4 -16 -10z"/>
<path d="M3320 6180 c-8 -5 -10 -10 -5 -10 6 0 17 5 25 10 8 5 11 10 5 10 -5
0 -17 -5 -25 -10z"/>
<path d="M3244 6145 c-25 -19 -14 -19 22 0 16 8 22 15 13 15 -8 0 -24 -7 -35
-15z"/>
<path d="M3195 6120 c-3 -5 -2 -10 4 -10 5 0 13 5 16 10 3 6 2 10 -4 10 -5 0
-13 -4 -16 -10z"/>
<path d="M3140 6090 c-9 -6 -10 -10 -3 -10 6 0 15 5 18 10 8 12 4 12 -15 0z"/>
<path d="M3075 6060 c-3 -6 1 -7 9 -4 18 7 21 14 7 14 -6 0 -13 -4 -16 -10z"/>
<path d="M2955 6007 c-39 -18 -81 -40 -95 -50 -14 -10 -42 -22 -62 -28 -22 -5
-38 -16 -38 -24 0 -14 22 -11 45 5 6 4 61 33 123 64 101 52 127 68 105 65 -5
0 -40 -15 -78 -32z"/>
<path d="M2694 5874 c-9 -13 -25 -24 -35 -24 -10 0 -22 -6 -26 -13 -4 -7 -30
-26 -56 -41 -27 -15 -46 -30 -43 -33 3 -3 23 5 43 19 21 14 54 33 74 42 20 9
46 26 57 36 12 11 26 20 32 20 19 0 10 16 -10 17 -12 1 -27 -9 -36 -23z"/>
<path d="M2518 5835 c-47 -25 -69 -45 -48 -45 14 0 48 20 83 48 37 28 24 27
-35 -3z"/>
<path d="M2425 5780 c-3 -6 1 -7 9 -4 18 7 21 14 7 14 -6 0 -13 -4 -16 -10z"/>
<path d="M2458 5723 c-10 -2 -18 -9 -18 -14 0 -6 8 -5 20 1 11 6 20 13 20 15
0 3 -1 4 -2 4 -2 -1 -11 -3 -20 -6z"/>
<path d="M2010 5512 c-80 -54 -186 -125 -235 -159 -97 -65 -119 -86 -113 -104
3 -8 10 -6 21 6 42 41 100 85 107 80 5 -3 19 7 32 23 26 31 168 128 181 124 5
-1 5 3 1 9 -4 7 0 9 14 5 14 -5 25 0 35 15 9 11 20 18 26 14 6 -3 11 -2 11 4
0 5 16 26 37 46 20 19 34 35 32 35 -2 0 -69 -44 -149 -98z"/>
<path d="M1973 5419 c-35 -22 -46 -37 -15 -20 22 13 58 40 52 41 -3 0 -20 -10
-37 -21z"/>
<path d="M1675 5175 c0 -18 3 -31 8 -28 4 2 7 15 7 28 0 13 -3 26 -7 28 -5 3
-8 -10 -8 -28z"/>
<path d="M1495 4639 c-71 -55 -156 -120 -187 -145 -32 -24 -58 -51 -58 -60 0
-12 13 -5 43 23 24 22 57 49 73 59 16 10 43 32 60 49 29 28 85 71 158 121 35
24 63 54 50 53 -5 0 -67 -45 -139 -100z"/>
<path d="M6680 4639 c-249 -12 -433 -32 -815 -89 -722 -108 -1525 -347 -2295
-682 -201 -88 -689 -332 -870 -435 -292 -167 -922 -570 -987 -632 -14 -13 -23
-34 -23 -52 0 -35 -8 -39 120 51 885 623 1910 1122 2915 1419 379 112 940 232
1355 291 150 21 551 51 807 60 238 9 672 1 812 -15 25 -3 127 -12 226 -20 99
-9 204 -20 234 -25 90 -16 93 -15 89 28 l-3 37 -55 6 c-30 4 -136 16 -236 28
-322 38 -852 51 -1274 30z"/>
<path d="M1589 4533 c-266 -191 -305 -223 -296 -246 3 -9 11 -17 16 -17 6 0
48 28 93 63 46 34 121 89 167 122 74 53 101 84 101 116 0 16 -14 10 -81 -38z"/>
<path d="M7093 4483 c26 -2 68 -2 95 0 26 2 4 3 -48 3 -52 0 -74 -1 -47 -3z"/>
<path d="M1554 4415 c-49 -36 -124 -91 -167 -122 -55 -39 -76 -60 -72 -71 3
-8 12 -56 21 -106 8 -50 24 -127 34 -171 29 -121 76 -341 90 -420 7 -38 21
-106 31 -150 25 -107 24 -128 -11 -355 -101 -657 -142 -916 -156 -1005 -9 -55
-18 -118 -19 -140 -2 -22 -8 -53 -14 -68 -6 -16 -11 -37 -11 -48 0 -18 1 -18
18 -1 25 22 35 31 177 138 255 193 529 381 880 604 71 45 82 56 63 58 -59 7
-111 -19 -359 -183 -252 -167 -315 -212 -582 -412 -134 -101 -178 -129 -163
-105 28 45 852 628 931 658 18 7 20 34 3 34 -53 -1 -327 -23 -435 -36 -73 -8
-137 -12 -144 -9 -6 5 -10 41 -9 99 6 300 -1 1876 -8 1876 -5 0 -49 -29 -98
-65z"/>
<path d="M7398 4473 c17 -2 47 -2 65 0 17 2 3 4 -33 4 -36 0 -50 -2 -32 -4z"/>
<path d="M7571 4466 c2 -2 65 -9 139 -16 74 -6 186 -18 248 -26 126 -16 212
-18 127 -3 -131 23 -527 57 -514 45z"/>
<path d="M6775 4339 c-172 -8 -461 -31 -635 -50 -225 -25 -717 -116 -999 -185
-698 -171 -1376 -421 -2014 -744 -265 -134 -387 -200 -387 -212 0 -15 98 -243
127 -297 14 -25 41 -75 61 -111 87 -160 236 -353 390 -507 335 -332 821 -562
1304 -614 140 -15 584 -6 703 15 112 19 348 85 446 125 206 82 389 187 554
315 493 387 823 1005 885 1661 12 125 28 604 21 611 -6 6 -261 2 -456 -7z
m371 -156 c8 -89 -1 -347 -16 -473 -18 -147 -57 -315 -108 -468 -58 -172 -150
-375 -167 -368 -7 2 -20 -12 -30 -32 -61 -130 -241 -369 -382 -509 -221 -218
-491 -391 -755 -482 -54 -18 -98 -37 -98 -41 0 -4 -37 -16 -82 -28 -318 -81
-703 -94 -1028 -36 -108 19 -239 54 -265 69 -11 7 -49 22 -85 34 -175 57 -465
225 -632 366 -43 36 -81 65 -86 65 -11 0 -117 110 -197 205 -186 221 -444 705
-375 705 5 0 52 -87 104 -192 91 -186 184 -338 270 -443 64 -78 188 -209 202
-215 7 -3 44 -31 82 -64 248 -210 518 -349 854 -441 152 -42 209 -53 325 -66
212 -22 637 3 706 42 9 5 46 16 81 24 175 41 401 134 568 235 324 196 592 479
767 811 27 50 51 85 53 78 12 -36 129 264 178 455 50 198 70 343 76 551 6 208
13 295 24 295 5 0 12 -35 16 -77z m-471 -183 c0 -32 -4 -45 -15 -47 -86 -11
-90 -13 -90 -43 0 -29 1 -30 50 -30 l50 0 0 -45 c0 -47 -3 -50 -70 -57 -19 -2
-25 -9 -25 -28 0 -23 4 -25 53 -28 l52 -3 0 -44 c0 -24 -3 -46 -7 -48 -5 -3
-54 -8 -110 -12 l-102 -7 -3 158 -3 159 -35 0 -35 0 -3 -166 -2 -166 -52 -6
c-29 -4 -54 -4 -57 -1 -3 3 -8 75 -10 159 l-3 154 -27 3 c-23 3 -26 8 -29 49
l-3 46 98 13 c180 23 328 38 353 36 23 -1 25 -5 25 -46z m-520 -57 c29 -32 35
-46 35 -83 0 -45 -19 -86 -48 -103 -18 -12 -8 -49 27 -101 16 -23 31 -51 35
-62 6 -20 2 -22 -50 -29 -31 -4 -60 -3 -65 2 -5 5 -19 35 -32 67 -12 32 -26
57 -32 57 -6 -1 -10 -33 -10 -74 l0 -72 -48 -8 c-26 -5 -50 -7 -53 -4 -3 3 -8
100 -11 215 l-6 210 49 7 c27 3 56 8 64 9 8 2 37 4 63 5 43 1 51 -3 82 -36z
m-278 -24 c5 -53 -5 -67 -49 -74 -47 -8 -58 -18 -58 -54 0 -22 2 -23 44 -17
l45 7 6 -35 c10 -50 4 -58 -46 -70 -37 -9 -44 -15 -44 -36 0 -24 2 -25 53 -22
l52 3 0 -50 c0 -49 -1 -50 -32 -55 -18 -3 -63 -10 -99 -16 -36 -5 -71 -10 -77
-10 -9 0 -12 57 -12 210 0 116 1 210 3 211 108 21 194 36 202 35 6 -2 11 -14
12 -27z m-267 -206 l0 -176 -40 -38 c-78 -74 -184 -83 -230 -19 -18 25 -20 44
-20 193 0 184 -6 169 72 183 l37 6 3 -158 3 -159 30 0 30 0 5 165 5 165 45 11
c25 6 48 9 53 7 4 -2 7 -83 7 -180z m-310 73 c0 -40 -3 -45 -32 -56 -56 -20
-63 -26 -66 -55 -4 -27 -3 -27 42 -21 l46 7 0 -45 c0 -43 -1 -45 -42 -59 l-43
-14 4 -77 3 -76 -34 -14 c-19 -8 -47 -16 -62 -18 l-28 -3 -5 211 -5 211 99 26
c130 33 123 34 123 -17z m-456 -128 c12 -42 68 -259 88 -337 4 -17 -113 -52
-119 -36 -12 35 -20 39 -59 24 -26 -10 -40 -22 -44 -39 -5 -21 -22 -31 -105
-62 -55 -21 -108 -36 -119 -35 -12 1 -25 19 -38 52 -38 97 -61 96 -49 -2 4
-35 5 -67 1 -72 -8 -15 -100 -52 -111 -45 -5 3 -9 75 -9 160 0 165 -2 170 -51
143 -19 -10 -20 -19 -18 -170 1 -87 -1 -162 -5 -166 -13 -14 -99 -42 -109 -36
-6 3 -8 65 -5 160 l5 154 -49 -3 -49 -3 -21 -55 c-33 -92 -33 -102 3 -161 18
-30 38 -61 45 -69 26 -32 21 -51 -21 -67 -78 -29 -85 -28 -98 6 -14 38 -35 40
-42 4 -15 -74 -15 -74 -135 -123 -63 -25 -138 -59 -167 -73 -29 -15 -55 -27
-58 -27 -3 0 -4 98 -3 217 l3 217 110 46 c61 25 135 59 165 74 51 26 55 26 67
10 7 -10 13 -21 13 -26 0 -4 9 -8 20 -8 16 0 20 7 20 30 0 20 7 34 23 44 52
33 400 164 511 192 74 19 101 13 127 -29 29 -46 21 -106 -21 -158 -32 -40 -32
-40 -13 -67 10 -15 22 -36 28 -47 6 -11 17 -21 25 -23 12 -2 25 41 59 192 24
106 47 200 52 207 7 11 109 57 131 58 4 1 14 -23 22 -51z m757 -933 c17 -38
18 -51 9 -79 -13 -41 -42 -69 -63 -60 -8 3 -23 21 -32 41 -28 58 -2 143 43
143 18 0 28 -10 43 -45z m-273 -60 c16 -13 40 -48 53 -77 22 -50 24 -65 24
-233 0 -174 -1 -182 -25 -230 -34 -64 -78 -92 -120 -75 -61 25 -98 129 -107
297 -9 171 23 294 85 327 38 21 56 20 90 -9z m-395 -35 c-1 -8 -16 -55 -32
-103 -17 -48 -31 -91 -31 -95 0 -5 15 -6 34 -4 33 4 36 1 62 -49 20 -40 28
-73 32 -129 7 -114 -23 -193 -90 -243 -27 -20 -30 -20 -62 -4 -22 10 -45 34
-63 64 -27 46 -28 53 -27 173 0 112 4 139 38 260 20 74 42 138 49 142 7 5 30
7 52 6 29 -2 39 -7 38 -18z m184 -532 c-3 -13 -11 -56 -18 -96 -12 -72 -31
-104 -50 -85 -11 11 6 156 22 185 5 10 19 18 30 18 17 0 20 -5 16 -22z"/>
<path d="M6017 3883 c-4 -3 -7 -26 -7 -50 0 -31 5 -45 16 -50 20 -8 53 32 54
64 0 29 -45 55 -63 36z"/>
<path d="M4740 3485 c-13 -64 -11 -89 10 -92 35 -7 42 11 30 80 -7 37 -16 67
-20 67 -5 0 -14 -25 -20 -55z"/>
<path d="M4400 3434 c0 -47 3 -55 18 -52 9 2 26 20 37 40 16 30 17 39 6 52 -7
9 -24 16 -37 16 -22 0 -24 -4 -24 -56z"/>
<path d="M3716 3240 c-5 -35 -11 -42 -54 -62 -34 -17 -48 -30 -50 -47 -3 -21
-1 -23 25 -18 15 3 38 8 51 12 21 7 22 5 22 -39 0 -46 -1 -48 -44 -67 -46 -20
-67 -52 -47 -72 8 -8 21 -6 47 8 l36 19 18 -24 c15 -20 20 -22 24 -10 3 8 15
42 26 75 46 128 46 114 6 193 -20 40 -40 72 -45 72 -5 0 -11 -18 -15 -40z"/>
<path d="M5534 2726 c-3 -7 -4 -33 -2 -57 3 -38 6 -44 23 -41 45 7 58 59 23
92 -26 24 -37 25 -44 6z"/>
<path d="M5252 2523 c-4 -10 -7 -76 -6 -148 0 -137 10 -175 44 -175 27 0 34
48 27 189 -6 131 -11 151 -38 151 -11 0 -23 -8 -27 -17z"/>
<path d="M4854 2288 c-9 -27 -8 -134 1 -148 10 -16 42 -12 49 6 9 24 7 110 -4
138 -12 32 -36 34 -46 4z"/>
<path d="M5598 4333 c6 -2 18 -2 25 0 6 3 1 5 -13 5 -14 0 -19 -2 -12 -5z"/>
<path d="M7604 4139 c4 -106 10 -197 14 -201 10 -10 33 4 218 124 83 53 188
118 234 145 46 26 85 53 88 60 5 17 -18 21 -223 38 -99 8 -216 18 -259 21
l-79 7 7 -194z"/>
<path d="M5358 4283 c7 -3 16 -2 19 1 4 3 -2 6 -13 5 -11 0 -14 -3 -6 -6z"/>
<path d="M5308 4273 c7 -3 16 -2 19 1 4 3 -2 6 -13 5 -11 0 -14 -3 -6 -6z"/>
<path d="M5258 4263 c7 -3 16 -2 19 1 4 3 -2 6 -13 5 -11 0 -14 -3 -6 -6z"/>
<path d="M5168 4243 c6 -2 18 -2 25 0 6 3 1 5 -13 5 -14 0 -19 -2 -12 -5z"/>
<path d="M5128 4233 c7 -3 16 -2 19 1 4 3 -2 6 -13 5 -11 0 -14 -3 -6 -6z"/>
<path d="M5058 4213 c7 -3 16 -2 19 1 4 3 -2 6 -13 5 -11 0 -14 -3 -6 -6z"/>
<path d="M7342 4065 c-7 -313 -29 -501 -87 -732 -52 -208 -105 -342 -179 -451
-20 -30 -30 -52 -23 -50 6 2 29 29 49 59 148 217 258 730 246 1154 l-4 130 -2
-110z"/>
<path d="M4805 4150 c-25 -11 1 -11 35 0 20 6 21 8 5 8 -11 0 -29 -3 -40 -8z"/>
<path d="M4725 4125 c-40 -14 -40 -14 -5 -8 19 3 42 9 50 14 22 12 1 9 -45 -6z"/>
<path d="M4640 4100 c-8 -5 -10 -10 -5 -10 6 0 17 5 25 10 8 5 11 10 5 10 -5
0 -17 -5 -25 -10z"/>
<path d="M4445 4040 l-20 -9 20 0 c11 0 27 4 35 9 13 9 13 10 0 9 -8 0 -24 -4
-35 -9z"/>
<path d="M7812 4003 c-34 -20 -62 -40 -62 -44 0 -4 39 -10 88 -14 130 -9 357
-41 537 -75 88 -17 185 -33 215 -37 58 -6 70 -15 70 -49 0 -12 7 -28 16 -35
15 -12 16 -10 9 21 -4 19 -16 44 -26 55 -10 12 -22 35 -25 53 -4 18 -10 34
-13 36 -10 7 -491 84 -600 97 -52 6 -105 15 -119 20 -13 5 -24 9 -25 9 -2 0
-30 -17 -65 -37z"/>
<path d="M4365 4010 c-8 -13 5 -13 25 0 13 8 13 10 -2 10 -9 0 -20 -4 -23 -10z"/>
<path d="M4126 3930 c-87 -32 -100 -40 -67 -40 12 0 29 7 37 15 9 8 26 15 38
15 12 0 40 9 62 20 56 28 22 23 -70 -10z"/>
<path d="M3975 3870 c-3 -5 1 -10 9 -10 8 0 18 5 21 10 3 6 -1 10 -9 10 -8 0
-18 -4 -21 -10z"/>
<path d="M7782 3874 c-6 -3 -10 -10 -6 -15 3 -5 -5 -9 -18 -10 -13 -1 29 -7
92 -15 213 -25 476 -67 724 -115 112 -22 126 -23 126 -10 0 5 -8 7 -18 4 -10
-2 -24 3 -31 11 -8 9 -26 16 -42 16 -15 0 -31 5 -34 10 -3 6 -24 10 -46 10
-22 0 -50 5 -62 12 -12 7 -60 15 -107 19 -89 8 -161 21 -244 45 -26 8 -64 14
-83 14 -19 0 -43 4 -53 10 -21 11 -179 23 -198 14z"/>
<path d="M3930 3850 c-9 -6 -10 -10 -3 -10 6 0 15 5 18 10 8 12 4 12 -15 0z"/>
<path d="M3830 3810 c-8 -5 -10 -10 -5 -10 6 0 17 5 25 10 8 5 11 10 5 10 -5
0 -17 -5 -25 -10z"/>
<path d="M3735 3771 c-33 -16 -52 -30 -42 -30 18 -1 117 45 117 54 0 10 -16 5
-75 -24z"/>
<path d="M3640 3730 c-13 -8 -13 -10 2 -10 9 0 20 5 23 10 8 13 -5 13 -25 0z"/>
<path d="M3585 3705 c-16 -7 -23 -14 -14 -14 8 -1 24 6 35 14 24 18 18 18 -21
0z"/>
<path d="M3500 3670 c-8 -5 -10 -10 -5 -10 6 0 17 5 25 10 8 5 11 10 5 10 -5
0 -17 -5 -25 -10z"/>
<path d="M3270 3564 c-25 -13 -34 -22 -21 -18 28 7 92 44 76 44 -5 -1 -30 -12
-55 -26z"/>
<path d="M3057 3459 c-76 -39 -136 -74 -132 -77 3 -3 11 0 17 6 7 7 20 12 30
12 17 0 36 8 78 32 8 4 22 11 30 14 17 6 27 12 90 54 73 48 34 34 -113 -41z"/>
<path d="M7562 3480 c0 -14 2 -19 5 -12 2 6 2 18 0 25 -3 6 -5 1 -5 -13z"/>
<path d="M7551 3404 c0 -11 3 -14 6 -6 3 7 2 16 -1 19 -3 4 -6 -2 -5 -13z"/>
<path d="M2841 3346 c-30 -16 -39 -25 -29 -29 8 -3 22 2 30 11 8 10 24 22 34
29 32 20 12 14 -35 -11z"/>
<path d="M7541 3354 c0 -11 3 -14 6 -6 3 7 2 16 -1 19 -3 4 -6 -2 -5 -13z"/>
<path d="M7531 3315 c-1 -11 -4 -31 -6 -45 l-6 -25 11 25 c6 13 9 33 7 45 -4
19 -4 19 -6 0z"/>
<path d="M2745 3292 c-16 -9 -61 -35 -100 -58 -38 -22 -101 -58 -140 -79 -114
-62 -383 -234 -627 -401 -38 -25 -68 -50 -68 -55 0 -14 26 -11 40 6 15 18 129
95 140 95 5 0 10 3 12 8 5 12 85 72 96 72 5 0 15 7 22 15 7 8 19 15 27 15 8 0
32 14 53 30 21 17 40 30 43 30 3 0 21 14 39 30 33 31 206 140 222 140 21 0
134 60 139 74 4 9 16 16 27 16 11 0 20 5 20 10 0 6 8 10 19 10 17 0 77 47 69
55 -2 2 -17 -4 -33 -13z"/>
<path d="M7506 3204 c-4 -14 -5 -28 -3 -31 3 -2 8 8 11 23 4 14 5 28 3 31 -3
2 -8 -8 -11 -23z"/>
<path d="M2631 3079 c-2 -29 90 -194 131 -236 48 -49 66 -49 22 0 -46 50 -76
96 -116 177 -20 41 -37 68 -37 59z"/>
<path d="M2546 2930 c10 -40 34 -93 40 -88 2 3 -7 30 -21 59 -13 30 -22 43
-19 29z"/>
<path d="M2234 2859 c-117 -73 -380 -248 -428 -284 -30 -23 -15 -27 55 -16 99
16 348 31 516 31 l152 0 -37 83 c-21 45 -55 124 -77 175 -21 50 -42 92 -46 92
-3 0 -64 -36 -135 -81z"/>
<path d="M7406 2885 c-9 -26 -7 -32 5 -12 6 10 9 21 6 23 -2 3 -7 -2 -11 -11z"/>
<path d="M7386 2835 c-9 -26 -7 -32 5 -12 6 10 9 21 6 23 -2 3 -7 -2 -11 -11z"/>
<path d="M7079 2778 c-36 -68 -61 -124 -50 -113 18 19 83 146 78 151 -3 3 -16
-14 -28 -38z"/>
<path d="M2720 2801 c0 -6 4 -13 10 -16 6 -3 7 1 4 9 -7 18 -14 21 -14 7z"/>
<path d="M2610 2773 c0 -5 7 -18 15 -29 13 -18 14 -18 8 4 -5 22 -23 41 -23
25z"/>
<path d="M6987 2763 c-4 -3 -7 -11 -7 -17 0 -6 5 -5 12 2 6 6 9 14 7 17 -3 3
-9 2 -12 -2z"/>
<path d="M2760 2742 c6 -13 14 -21 18 -18 3 4 -2 14 -12 24 -18 16 -18 16 -6
-6z"/>
<path d="M2640 2711 c0 -5 9 -19 20 -32 l21 -24 -16 33 c-15 31 -25 41 -25 23z"/>
<path d="M6947 2677 c-9 -20 -23 -40 -32 -43 -17 -7 -21 -24 -5 -24 14 0 62
79 57 93 -2 7 -11 -5 -20 -26z"/>
<path d="M7312 2665 c-30 -62 -27 -71 4 -12 14 27 24 51 22 53 -3 2 -14 -17
-26 -41z"/>
<path d="M7142 2655 c-12 -25 -20 -45 -17 -45 7 0 47 81 43 86 -3 2 -14 -17
-26 -41z"/>
<path d="M2680 2641 c0 -6 4 -13 10 -16 6 -3 7 1 4 9 -7 18 -14 21 -14 7z"/>
<path d="M2900 2633 c0 -12 5 -25 10 -28 13 -8 13 15 0 35 -8 12 -10 11 -10
-7z"/>
<path d="M2736 2545 c20 -38 53 -95 73 -125 20 -30 42 -67 50 -82 16 -32 71
-87 71 -71 0 6 -18 33 -39 60 -22 27 -68 95 -103 150 -87 139 -95 149 -52 68z"/>
<path d="M6977 2593 c-4 -3 -7 -12 -7 -20 0 -11 4 -11 20 -1 11 7 20 16 20 20
0 10 -24 10 -33 1z"/>
<path d="M7265 2570 c-9 -16 -13 -30 -11 -30 3 0 12 14 21 30 9 17 13 30 11
30 -3 0 -12 -13 -21 -30z"/>
<path d="M2830 2580 c20 -13 33 -13 25 0 -3 6 -14 10 -23 10 -15 0 -15 -2 -2
-10z"/>
<path d="M6868 2567 c-5 -10 -8 -31 -8 -45 1 -24 2 -25 11 -9 6 10 9 30 7 45
-2 23 -4 24 -10 9z"/>
<path d="M2951 2563 c0 -4 4 -17 9 -28 8 -19 9 -19 9 2 1 12 -3 25 -9 28 -5 3
-10 3 -9 -2z"/>
<path d="M6838 2545 c-6 -30 -3 -43 8 -33 3 4 4 19 2 35 l-3 28 -7 -30z"/>
<path d="M2860 2504 c0 -15 63 -35 74 -24 5 5 7 12 4 15 -10 11 -78 18 -78 9z"/>
<path d="M6905 2490 c-22 -24 -6 -26 35 -5 36 19 38 25 7 25 -13 0 -32 -9 -42
-20z"/>
<path d="M7216 2485 c-9 -13 -16 -27 -16 -29 0 -3 -22 -38 -48 -78 -58 -87
-65 -98 -59 -98 6 0 110 157 131 198 20 38 15 42 -8 7z"/>
<path d="M3011 2485 c1 -32 14 -61 23 -47 4 6 0 24 -8 39 -13 23 -15 24 -15 8z"/>
<path d="M6781 2482 c-14 -26 -5 -45 9 -22 7 11 10 12 10 2 0 -7 5 -10 10 -7
6 3 10 13 10 21 0 8 -4 13 -9 10 -5 -4 -11 0 -13 6 -3 8 -9 4 -17 -10z"/>
<path d="M7023 2458 c-37 -53 -46 -68 -39 -68 4 0 44 57 70 98 18 29 -3 8 -31
-30z"/>
<path d="M6719 2404 l-22 -24 25 0 c33 0 51 20 33 37 -10 9 -18 6 -36 -13z"/>
<path d="M2925 2410 c3 -5 17 -10 31 -10 14 0 22 4 19 10 -3 6 -17 10 -31 10
-14 0 -22 -4 -19 -10z"/>
<path d="M3067 2400 c6 -21 21 -35 29 -27 6 6 -18 47 -27 47 -4 0 -5 -9 -2
-20z"/>
<path d="M6817 2413 c-26 -7 -10 -23 23 -23 34 0 60 9 60 21 0 9 -51 10 -83 2z"/>
<path d="M2382 2384 c-13 -9 -29 -17 -37 -18 -8 -1 -26 -15 -42 -30 l-28 -29
30 16 c47 25 121 77 110 77 -6 0 -21 -7 -33 -16z"/>
<path d="M2203 2331 c-68 -48 -74 -55 -39 -47 32 8 106 62 106 77 0 15 -12 9
-67 -30z"/>
<path d="M6662 2347 c-29 -30 -28 -50 3 -82 29 -28 89 -36 79 -10 -4 9 -19 15
-35 15 -30 0 -30 0 -25 50 2 28 3 50 2 50 -1 0 -12 -10 -24 -23z"/>
<path d="M6953 2358 c-48 -62 -64 -88 -57 -88 8 0 32 32 67 87 10 17 2 17 -10
1z"/>
<path d="M3130 2344 c1 -5 7 -20 15 -34 13 -24 14 -24 15 -4 0 12 -7 27 -15
34 -8 7 -15 9 -15 4z"/>
<path d="M2990 2330 c0 -5 12 -10 26 -10 14 0 23 4 19 10 -3 6 -15 10 -26 10
-10 0 -19 -4 -19 -10z"/>
<path d="M6746 2331 c-6 -9 62 -6 72 3 3 3 -11 6 -31 6 -20 0 -38 -4 -41 -9z"/>
<path d="M2749 2243 c23 -32 59 -78 81 -103 23 -25 7 1 -36 58 -82 110 -111
138 -45 45z"/>
<path d="M3060 2270 c-9 -6 -7 -11 8 -19 25 -13 75 -15 68 -2 -10 15 -62 30
-76 21z"/>
<path d="M2084 2197 c-155 -106 -214 -148 -214 -152 0 -5 262 166 305 199 11
8 16 15 10 15 -5 0 -51 -28 -101 -62z"/>
<path d="M6580 2184 c-101 -104 -398 -329 -461 -349 -10 -4 -19 -12 -19 -19 0
-16 -164 -98 -306 -155 -56 -22 -164 -57 -240 -77 -146 -39 -200 -61 -92 -39
294 63 627 211 873 388 76 55 243 197 289 245 25 27 29 52 7 52 -4 0 -27 -21
-51 -46z"/>
<path d="M3227 2150 c113 -107 215 -189 249 -200 19 -7 32 -16 29 -21 -4 -5 3
-9 14 -9 12 0 20 -6 19 -12 -2 -7 7 -14 20 -16 13 -2 26 -10 29 -18 3 -8 14
-14 25 -14 10 0 17 -4 14 -8 -9 -15 195 -123 344 -184 138 -57 436 -144 462
-136 7 3 -26 15 -72 27 -156 41 -305 89 -396 126 -103 43 -244 114 -259 131
-5 6 -37 28 -70 49 -33 20 -95 63 -139 94 -43 31 -82 56 -86 56 -8 0 -166 134
-199 169 -14 14 -29 26 -35 26 -6 -1 17 -27 51 -60z"/>
<path d="M3010 2166 c0 -2 8 -10 18 -17 15 -13 16 -12 3 4 -13 16 -21 21 -21
13z"/>
<path d="M6979 2133 c-13 -16 -12 -17 4 -4 16 13 21 21 13 21 -2 0 -10 -8 -17
-17z"/>
<path d="M6944 2088 l-19 -23 23 19 c21 18 27 26 19 26 -2 0 -12 -10 -23 -22z"/>
<path d="M3100 2070 c0 -5 5 -10 11 -10 5 0 7 5 4 10 -3 6 -8 10 -11 10 -2 0
-4 -4 -4 -10z"/>
<path d="M1840 2033 c-8 -4 -20 -12 -27 -19 -11 -11 -126 -91 -171 -119 -9 -5
-25 -18 -36 -28 -12 -11 -41 -33 -66 -49 -25 -17 -57 -42 -72 -56 -15 -13 -38
-24 -52 -24 -14 0 -26 -6 -26 -13 0 -7 -14 -26 -31 -43 -32 -32 -52 -32 -77
-3 -12 14 -13 13 -9 -7 3 -13 -1 -35 -8 -49 -8 -15 -13 -29 -11 -31 2 -2 107
74 232 169 126 94 262 194 302 221 39 27 72 51 72 53 0 6 1 6 -20 -2z"/>
<path d="M3189 1983 c29 -33 64 -66 77 -72 13 -6 24 -9 24 -8 0 1 -35 34 -77
72 l-78 70 54 -62z"/>
<path d="M6876 2013 c-4 -4 -14 -8 -21 -8 -16 0 -208 -185 -200 -193 3 -3 -3
-15 -12 -27 -10 -12 -3 -5 15 14 19 20 37 35 41 34 4 -1 50 41 102 93 51 52
91 94 88 94 -3 0 -9 -3 -13 -7z m-16 -16 c0 -1 -37 -38 -82 -82 l-83 -80 80
83 c74 76 85 87 85 79z"/>
<path d="M3053 1896 c140 -137 323 -279 472 -365 l40 -23 -30 25 c-16 15 -33
26 -36 27 -4 0 -33 18 -65 40 -33 22 -81 56 -109 75 -27 18 -68 51 -91 72 -22
21 -61 55 -86 75 -26 21 -84 72 -130 114 -52 48 -39 33 35 -40z"/>
<path d="M3370 1831 c19 -17 44 -36 55 -42 11 -6 4 3 -15 20 -19 17 -44 36
-55 42 -11 6 -4 -3 15 -20z"/>
<path d="M3450 1771 c0 -10 30 -24 37 -17 3 2 -5 9 -16 16 -12 6 -21 7 -21 1z"/>
<path d="M3560 1697 c37 -24 90 -49 90 -43 0 5 -108 66 -117 66 -4 0 8 -10 27
-23z"/>
<path d="M6525 1694 c-19 -15 -22 -21 -9 -15 18 9 52 41 43 41 -2 0 -17 -12
-34 -26z"/>
<path d="M3685 1632 c21 -20 155 -87 155 -77 0 3 -37 23 -82 46 -46 23 -78 37
-73 31z"/>
<path d="M6415 1614 l-30 -26 33 22 c17 12 32 23 32 26 0 7 -4 5 -35 -22z"/>
<path d="M6329 1559 l-24 -20 28 17 c15 9 27 18 27 20 0 8 -8 4 -31 -17z"/>
<path d="M4495 1544 c-14 -15 -25 -36 -25 -46 0 -26 37 -78 56 -78 20 0 18 7
-16 50 -16 21 -30 40 -30 43 0 3 20 13 45 22 44 18 52 35 14 35 -11 0 -31 -12
-44 -26z"/>
<path d="M4610 1535 c-7 -9 -10 -18 -6 -22 8 -9 56 14 56 27 0 15 -36 12 -50
-5z"/>
<path d="M5093 1535 c-3 -9 -3 -18 0 -21 9 -9 27 6 27 22 0 19 -19 18 -27 -1z"/>
<path d="M5170 1529 c0 -18 2 -19 15 -9 8 7 15 16 15 21 0 5 -7 9 -15 9 -9 0
-15 -9 -15 -21z"/>
<path d="M4699 1508 c-37 -41 -36 -52 3 -91 29 -29 33 -30 36 -13 3 13 -5 27
-22 39 -36 26 -33 41 14 60 43 16 53 37 19 37 -11 0 -33 -15 -50 -32z"/>
<path d="M4939 1533 c-9 -2 -23 -20 -33 -39 -16 -34 -16 -37 5 -65 11 -16 29
-29 40 -29 27 0 24 28 -3 32 -34 5 -35 43 -2 71 27 24 24 37 -7 30z"/>
<path d="M5016 1524 c-29 -28 -31 -63 -5 -90 22 -24 49 -32 49 -15 0 5 -11 16
-25 25 -30 20 -31 33 -4 62 24 25 9 43 -15 18z"/>
<path d="M6223 1501 c-34 -20 -66 -40 -70 -45 -9 -10 127 63 142 76 21 19 -14
4 -72 -31z"/>
<path d="M4802 1499 c-16 -26 -18 -38 -10 -61 14 -41 68 -67 68 -33 0 9 -11
20 -24 24 -13 5 -26 19 -29 31 -4 18 1 24 29 36 39 17 45 34 10 34 -16 0 -31
-10 -44 -31z"/>
<path d="M5248 1513 c-10 -2 -18 -9 -18 -15 0 -11 64 -2 90 13 16 9 -39 11
-72 2z"/>
<path d="M3570 1506 c0 -3 9 -10 20 -16 11 -6 20 -8 20 -6 0 3 -9 10 -20 16
-11 6 -20 8 -20 6z"/>
<path d="M4560 1485 c0 -14 47 -75 58 -75 19 0 14 16 -14 49 -23 28 -44 40
-44 26z"/>
<path d="M5785 1480 c-13 -6 -15 -9 -5 -9 8 0 22 4 30 9 18 12 2 12 -25 0z"/>
<path d="M3647 1459 c7 -7 15 -10 18 -7 3 3 -2 9 -12 12 -14 6 -15 5 -6 -5z"/>
<path d="M5090 1455 c0 -17 22 -29 41 -23 6 2 0 12 -15 21 -23 15 -26 16 -26
2z"/>
<path d="M5170 1460 c0 -12 42 -31 50 -23 6 5 -30 33 -42 33 -4 0 -8 -5 -8
-10z"/>
<path d="M6075 1420 c-3 -6 1 -7 9 -4 18 7 21 14 7 14 -6 0 -13 -4 -16 -10z"/>
<path d="M3770 1400 c19 -11 40 -19 45 -19 6 0 -6 8 -25 19 -19 11 -39 19 -45
19 -5 0 6 -8 25 -19z"/>
<path d="M3860 1361 c8 -5 26 -12 40 -15 l25 -7 -25 15 c-14 9 -32 15 -40 15
-13 0 -13 -1 0 -8z"/>
<path d="M4528 1353 c6 -2 18 -2 25 0 6 3 1 5 -13 5 -14 0 -19 -2 -12 -5z"/>
<path d="M5845 1325 c-25 -12 -26 -14 -5 -9 28 7 60 23 45 23 -5 0 -23 -6 -40
-14z"/>
<path d="M5765 1300 c-13 -5 -14 -9 -5 -9 8 0 24 4 35 9 13 5 14 9 5 9 -8 0
-24 -4 -35 -9z"/>
<path d="M4078 1283 c7 -3 16 -2 19 1 4 3 -2 6 -13 5 -11 0 -14 -3 -6 -6z"/>
<path d="M5658 1263 c7 -3 16 -2 19 1 4 3 -2 6 -13 5 -11 0 -14 -3 -6 -6z"/>
<path d="M5578 1243 c7 -3 16 -2 19 1 4 3 -2 6 -13 5 -11 0 -14 -3 -6 -6z"/>
</g>
</svg>
