<?xml version="1.0" standalone="no"?>
<!DOCTYPE svg PUBLIC "-//W3C//DTD SVG 20010904//EN"
 "http://www.w3.org/TR/2001/REC-SVG-20010904/DTD/svg10.dtd">
<svg version="1.0" xmlns="http://www.w3.org/2000/svg"
 width="1000.000000pt" height="1151.000000pt" viewBox="0 0 1000.000000 1151.000000"
 preserveAspectRatio="xMidYMid meet">
<metadata>
Created by potrace 1.16, written by Peter Selinger 2001-2019
</metadata>
<g transform="translate(0.000000,1151.000000) scale(0.100000,-0.100000)"
fill="#000000" stroke="none">
<path d="M9960 6250 l0 -5260 -4980 0 -4980 0 0 -495 0 -495 5000 0 5000 0 0
5755 c0 5748 0 5755 -20 5755 -20 0 -20 -7 -20 -5260z"/>
<path d="M9804 11395 c-4 -8 -12 -15 -20 -15 -8 0 -14 -5 -14 -11 0 -6 8 -9
18 -7 24 5 52 -61 52 -123 0 -26 -7 -127 -15 -223 -9 -96 -17 -260 -18 -364
-1 -138 -6 -193 -15 -205 -12 -14 -23 -80 -38 -222 -3 -22 -9 -74 -15 -115 -5
-41 -14 -109 -19 -150 -19 -154 -45 -307 -76 -445 -8 -38 -19 -92 -24 -120 -4
-27 -16 -74 -26 -103 -15 -45 -15 -56 -4 -77 8 -14 17 -22 21 -18 11 11 46
188 63 323 9 63 22 144 30 180 35 155 46 213 61 340 9 74 25 187 36 250 51
305 90 677 92 888 l2 174 -33 29 c-36 33 -50 36 -58 14z"/>
<path d="M2965 11390 c8 -13 45 -13 65 0 11 7 3 10 -28 10 -26 0 -41 -4 -37
-10z"/>
<path d="M3298 11393 c6 -2 18 -2 25 0 6 3 1 5 -13 5 -14 0 -19 -2 -12 -5z"/>
<path d="M5193 11394 c4 -4 396 -10 870 -12 474 -2 859 -1 856 2 -9 10 -1735
19 -1726 10z"/>
<path d="M1997 11383 c94 -2 252 -2 350 0 98 1 21 2 -172 2 -192 1 -273 -1
-178 -2z"/>
<path d="M6971 11385 c8 -7 78 -9 85 -2 4 4 -14 7 -41 7 -27 0 -46 -2 -44 -5z"/>
<path d="M7365 11380 c-4 -6 11 -10 37 -9 33 0 38 2 23 9 -28 12 -53 12 -60 0z"/>
<path d="M8150 11382 c-102 -1 -179 -6 -172 -11 13 -8 112 -7 937 8 l410 8
-495 -1 c-272 -1 -578 -2 -680 -4z"/>
<path d="M9340 11381 c8 -6 29 -11 47 -11 40 0 50 -15 28 -40 -13 -15 -15 -25
-8 -47 11 -33 46 -39 51 -9 2 11 14 30 27 44 l23 25 15 -24 c9 -13 25 -53 36
-87 18 -60 19 -78 10 -283 -9 -210 -18 -332 -39 -519 -5 -47 -14 -148 -20
-225 -6 -77 -15 -160 -20 -185 -5 -25 -14 -83 -20 -130 -16 -117 -57 -364 -81
-490 -11 -58 -24 -134 -29 -170 -9 -68 -106 -544 -115 -569 -3 -8 -17 -69 -30
-137 -14 -68 -29 -143 -35 -166 -5 -24 -21 -97 -35 -163 -26 -119 -45 -198
-90 -370 -13 -49 -33 -133 -46 -185 -12 -52 -44 -167 -71 -255 -28 -88 -61
-196 -74 -240 -13 -44 -42 -134 -64 -200 -23 -66 -55 -165 -71 -220 -17 -55
-34 -105 -39 -110 -5 -6 -24 -55 -43 -110 -50 -144 -96 -267 -106 -286 -5 -9
-24 -54 -42 -100 -17 -46 -47 -122 -66 -168 -20 -46 -48 -118 -63 -160 -38
-104 -131 -302 -189 -404 -11 -21 -21 -46 -21 -56 0 -10 -9 -26 -19 -35 -11
-10 -22 -30 -26 -44 -10 -42 -226 -466 -266 -524 -11 -14 -19 -31 -19 -37 0
-6 -17 -40 -37 -76 -21 -36 -46 -80 -55 -97 -9 -17 -39 -68 -65 -112 -26 -44
-57 -98 -68 -118 -31 -58 -84 -147 -130 -218 -23 -36 -59 -93 -81 -128 -97
-157 -165 -261 -201 -307 -22 -27 -56 -75 -76 -105 -90 -133 -157 -224 -301
-409 -67 -84 -130 -165 -141 -180 -29 -39 -356 -419 -405 -471 -24 -25 -80
-88 -125 -140 -72 -83 -116 -129 -225 -232 -47 -45 -101 -111 -95 -116 3 -3
16 5 30 18 13 14 46 47 74 74 28 27 51 53 51 58 0 4 5 8 10 8 13 0 70 57 70
70 0 6 6 10 14 10 8 0 16 4 18 9 2 5 66 76 144 158 149 156 190 201 319 353
44 51 100 117 125 146 113 130 309 387 455 592 16 24 46 65 66 91 20 26 44 61
53 77 9 16 32 49 51 74 19 25 38 52 42 60 4 8 30 51 58 95 96 148 110 170 152
240 23 39 68 115 99 170 32 55 65 111 74 125 55 81 368 680 452 865 27 61 68
148 90 195 22 47 63 137 90 200 28 63 56 129 63 145 15 32 96 232 179 440 29
72 69 177 90 235 21 58 49 132 61 165 13 33 50 139 83 235 32 96 67 198 76
225 10 28 24 70 31 95 7 25 38 126 68 225 29 99 64 216 77 260 13 44 36 123
52 175 16 52 37 127 48 165 10 39 26 95 35 125 8 30 35 136 60 235 25 99 49
194 54 210 5 17 14 53 20 80 6 28 27 120 45 205 19 85 42 196 51 245 9 50 23
119 30 155 8 36 20 97 26 135 6 39 19 113 29 165 10 53 28 161 39 242 11 80
23 152 26 159 3 8 9 50 14 94 6 44 17 132 26 195 8 63 24 180 35 260 32 230
70 627 70 726 l0 91 -92 11 c-142 18 -336 26 -318 13z m318 -93 c-2 -12 -8
-23 -14 -25 -17 -6 -27 29 -12 39 22 13 30 9 26 -14z"/>
<path d="M7208 11373 c23 -2 59 -2 80 0 20 2 1 4 -43 4 -44 0 -61 -2 -37 -4z"/>
<path d="M7503 11373 c20 -2 54 -2 75 0 20 2 3 4 -38 4 -41 0 -58 -2 -37 -4z"/>
<path d="M7708 11373 c46 -2 118 -2 160 0 42 1 5 3 -83 3 -88 0 -123 -2 -77
-3z"/>
<path d="M1135 11208 c-352 -5 -702 -7 -779 -4 l-138 5 6 -147 c3 -81 10 -293
16 -472 15 -458 35 -717 76 -961 13 -81 24 -163 24 -183 0 -21 4 -56 9 -79 5
-23 17 -91 26 -152 15 -97 30 -173 91 -470 20 -99 72 -322 101 -440 14 -55 33
-136 43 -180 10 -44 23 -93 29 -110 6 -16 27 -93 46 -170 43 -175 37 -157 142
-475 154 -470 283 -851 303 -895 13 -28 86 -206 120 -290 167 -419 258 -622
410 -910 35 -66 99 -190 142 -275 43 -85 95 -184 115 -220 20 -36 59 -108 86
-160 49 -92 198 -335 410 -667 27 -42 52 -86 57 -97 19 -52 346 -523 577 -833
142 -192 480 -615 512 -643 3 -3 55 -61 116 -130 144 -163 603 -629 729 -739
237 -207 317 -272 329 -264 7 4 81 66 166 137 84 72 170 145 191 161 129 105
428 382 610 565 379 381 695 754 1113 1314 39 52 166 229 243 340 48 68 217
320 314 466 35 52 93 145 130 205 37 61 91 148 120 195 147 238 468 835 578
1075 28 61 67 146 87 190 20 44 43 94 51 110 115 252 345 842 453 1165 136
403 189 579 252 835 22 88 55 223 74 300 78 318 181 843 216 1104 5 41 12 77
14 81 12 19 89 635 110 875 8 99 20 227 26 285 5 58 14 195 19 305 7 159 6
203 -5 213 -10 11 -16 11 -33 1 -19 -12 -215 -8 -927 17 -77 3 -738 8 -1470
10 -731 2 -1557 9 -1835 14 -597 12 -3185 10 -4095 -2z m5794 -179 c140 -22
263 -119 335 -261 44 -90 53 -121 70 -243 41 -294 -75 -581 -275 -678 -147
-72 -334 -77 -474 -12 -140 65 -255 241 -286 437 -18 116 -7 297 25 391 94
280 315 414 605 366z m-4564 -20 c4 -6 7 -53 7 -104 -1 -100 -3 -104 -90 -210
-9 -11 -32 -43 -52 -70 -19 -28 -71 -99 -115 -158 -44 -59 -109 -147 -145
-196 -36 -48 -73 -98 -82 -112 -10 -13 -38 -51 -62 -84 l-45 -60 302 -5 302
-5 3 -97 3 -98 -461 0 -460 0 0 91 0 92 172 236 c94 130 192 264 217 299 25
35 81 111 124 168 42 58 77 109 77 114 0 6 -113 11 -272 12 l-273 3 -3 84 c-2
46 -1 90 2 98 4 10 85 13 425 13 290 0 422 -3 426 -11z m440 -594 l0 -600
-130 0 -130 0 -3 594 c-2 469 0 596 10 603 7 4 67 7 133 6 l120 -3 0 -600z
m541 578 c10 -16 23 -37 29 -48 6 -11 50 -87 99 -170 119 -200 161 -271 231
-392 33 -56 63 -102 68 -103 4 0 7 164 7 365 l0 365 23 5 c12 3 60 5 107 3
l85 -3 0 -600 0 -600 -125 -3 -126 -3 -24 43 c-13 24 -57 99 -98 168 -41 69
-82 139 -92 155 -9 17 -32 55 -50 85 -38 64 -54 91 -104 178 -20 35 -44 76
-54 90 -10 15 -24 40 -32 56 -14 26 -16 -11 -20 -370 l-5 -399 -107 -3 -108
-3 0 599 c0 329 3 602 7 605 3 4 66 7 139 7 l132 0 18 -27z m1672 -75 l3 -97
-153 -3 -153 -3 -3 -502 -2 -503 -135 0 -135 0 -2 503 -3 502 -155 5 -155 5
-3 84 c-2 46 -1 90 2 98 5 11 85 13 448 11 l443 -3 3 -97z m827 88 c82 -17
132 -43 180 -91 155 -156 132 -441 -44 -553 -31 -19 -58 -36 -60 -38 -4 -3 48
-136 90 -231 11 -24 19 -46 19 -51 0 -5 9 -27 20 -50 11 -22 20 -45 20 -50 0
-4 9 -26 19 -48 40 -82 43 -79 -108 -79 l-133 0 -15 40 c-8 22 -38 99 -65 170
-28 72 -60 155 -71 185 -12 30 -25 61 -30 68 -11 15 -243 17 -252 2 -3 -5 -7
-112 -8 -237 l-2 -228 -127 -3 -128 -3 0 599 c0 329 3 602 7 605 13 13 624 7
688 -7z m2357 3 c123 -27 208 -91 260 -197 20 -40 23 -62 23 -157 0 -91 -4
-118 -21 -156 -40 -85 -124 -160 -216 -191 -18 -7 -123 -14 -233 -17 l-200 -6
-5 -235 -5 -235 -119 -3 c-83 -2 -122 1 -127 9 -9 15 -12 1182 -3 1192 12 12
588 8 646 -4z m-4282 -1325 c2748 -4 3866 -12 3908 -27 35 -12 52 -47 34 -70
-5 -6 -12 -30 -15 -52 -8 -60 -54 -314 -73 -397 -8 -40 -22 -102 -29 -138 -8
-36 -23 -103 -35 -150 -12 -47 -30 -119 -40 -160 -10 -41 -28 -106 -40 -145
-12 -38 -28 -92 -35 -120 -8 -27 -37 -126 -65 -220 -28 -93 -55 -186 -60 -205
-8 -30 -101 -302 -155 -455 -10 -27 -28 -81 -42 -120 -13 -38 -42 -117 -65
-175 -22 -58 -45 -118 -51 -135 -14 -38 -30 -63 -41 -61 -4 0 -18 -26 -31 -59
-12 -33 -34 -83 -47 -110 -14 -28 -38 -81 -53 -120 -15 -38 -36 -81 -45 -95
-10 -14 -26 -50 -36 -80 -9 -30 -21 -60 -25 -65 -16 -21 -79 -197 -74 -206 11
-18 -384 -782 -475 -919 -20 -30 -54 -86 -75 -125 -21 -38 -66 -110 -99 -160
-34 -49 -80 -121 -103 -160 -77 -128 -81 -131 -225 -166 -121 -30 -129 -31
-153 -15 -38 25 -34 78 11 141 113 158 574 897 574 920 0 2 22 42 49 87 26 46
83 151 126 233 42 83 85 157 94 165 10 8 48 96 86 195 37 99 81 209 96 244 16
35 29 67 29 72 0 19 166 397 186 425 25 34 77 170 179 464 124 362 188 583
306 1065 22 88 46 185 54 215 7 30 23 100 35 155 12 55 25 116 31 136 5 20 9
50 9 68 l0 31 -532 0 c-534 0 -1040 5 -1863 19 -242 4 -818 8 -1280 9 -462 1
-1049 5 -1305 8 -416 6 -466 5 -478 -9 -11 -13 -11 -28 2 -89 8 -40 22 -124
30 -186 9 -62 25 -145 35 -185 11 -39 27 -101 36 -137 17 -64 24 -93 63 -260
31 -131 70 -277 162 -605 56 -200 71 -251 90 -307 11 -32 31 -97 44 -145 13
-49 38 -124 54 -168 17 -44 48 -129 70 -190 21 -60 51 -135 65 -166 15 -31 27
-62 27 -70 0 -8 12 -34 26 -59 14 -25 41 -83 60 -129 19 -46 38 -89 43 -95 5
-6 27 -56 49 -111 94 -232 140 -333 216 -470 24 -44 68 -125 97 -180 28 -55
63 -116 76 -135 12 -19 23 -38 23 -42 0 -4 26 -54 57 -110 31 -57 77 -141 103
-188 26 -47 61 -105 79 -130 18 -25 57 -83 88 -130 31 -47 82 -125 114 -174
33 -48 59 -92 59 -98 0 -5 -7 -23 -16 -40 -13 -26 -20 -29 -47 -25 -51 7 -241
69 -257 83 -9 7 -52 70 -95 139 -126 198 -161 259 -352 610 -132 241 -359 724
-457 970 -16 39 -44 107 -62 152 -47 113 -129 329 -169 443 -18 52 -49 142
-70 200 -38 111 -88 265 -110 340 -7 25 -35 119 -63 210 -89 292 -155 558
-206 825 -163 851 -167 884 -126 917 14 11 30 16 39 12 9 -4 936 -8 2061 -10z
m1268 -447 c4 -21 -24 -57 -45 -57 -8 0 -28 -13 -45 -30 -16 -16 -36 -30 -44
-30 -8 0 -14 -5 -14 -12 0 -16 -40 -58 -56 -58 -6 0 -39 -30 -72 -66 -50 -55
-60 -72 -65 -112 -5 -39 -1 -53 19 -83 13 -19 24 -43 24 -52 0 -24 27 -21 33
3 4 15 14 20 36 20 20 0 34 -7 41 -20 6 -11 17 -20 25 -20 8 0 15 -6 15 -13 0
-7 18 -30 40 -52 25 -25 42 -52 46 -74 4 -20 15 -51 26 -69 24 -43 27 -192 3
-192 -8 0 -18 -12 -21 -27 -4 -15 -22 -42 -41 -60 -38 -39 -40 -48 -13 -63 11
-6 20 -17 20 -25 0 -22 27 -18 33 5 3 14 14 20 31 20 14 0 26 5 26 10 0 6 8
10 18 10 34 1 127 54 130 75 2 11 7 30 13 43 5 12 13 32 18 45 6 12 13 41 16
64 4 23 13 47 21 54 8 6 14 23 14 38 0 15 5 32 11 38 8 8 11 83 10 241 -1 151
2 233 9 237 5 3 10 14 10 24 0 10 9 21 21 24 11 3 23 15 26 26 7 28 41 27 45
-1 3 -13 -5 -39 -16 -58 -20 -33 -21 -51 -22 -295 -1 -285 -7 -347 -35 -387
-11 -14 -19 -39 -19 -55 0 -19 -9 -38 -25 -53 -32 -30 -55 -75 -55 -108 0 -27
-44 -72 -71 -72 -9 0 -22 -6 -28 -14 -7 -8 -26 -18 -42 -21 -25 -6 -29 -11
-29 -41 0 -27 4 -34 20 -34 11 0 25 9 32 20 7 11 18 20 25 20 7 0 13 7 13 14
0 15 17 26 110 71 30 14 62 30 70 34 8 4 19 17 25 29 6 13 50 41 112 73 57 28
103 56 103 63 0 7 19 22 43 33 23 12 77 38 120 58 46 22 82 46 86 57 5 13 30
28 73 43 65 23 127 48 160 66 10 5 24 9 32 9 8 0 21 12 28 27 7 15 22 29 33
32 11 2 32 12 47 22 14 11 35 19 46 19 12 0 23 4 26 9 3 4 26 14 51 21 25 7
45 19 45 26 0 8 10 14 25 14 14 0 34 9 45 20 11 11 33 20 49 20 17 0 33 5 36
10 3 6 19 10 35 10 16 0 32 5 35 10 3 6 17 10 30 10 13 0 27 5 30 10 3 6 26
10 50 10 31 0 47 5 54 17 10 19 100 41 169 42 52 1 112 -22 112 -43 0 -9 4
-16 10 -16 5 0 21 -11 35 -25 18 -19 25 -36 25 -65 0 -21 5 -51 10 -65 14 -37
-6 -153 -31 -181 -11 -11 -19 -28 -19 -38 0 -28 -36 -99 -64 -125 -14 -14 -26
-34 -26 -46 0 -19 -40 -65 -57 -65 -14 0 -53 -44 -53 -59 0 -9 -22 -41 -50
-71 -27 -30 -50 -60 -50 -67 0 -7 -6 -13 -13 -13 -7 0 -26 -13 -42 -30 -16
-16 -38 -30 -50 -30 -12 0 -32 -11 -45 -25 l-23 -24 25 -53 c48 -100 43 -255
-10 -310 -14 -16 -32 -28 -39 -28 -7 0 -13 -6 -13 -14 0 -31 -39 -47 -201 -83
-73 -16 -85 -16 -225 1 -82 9 -165 19 -184 21 -47 5 -154 22 -214 33 -27 5
-53 17 -58 26 -7 12 -23 16 -63 16 -30 0 -57 5 -60 10 -3 6 -24 10 -46 10 -21
0 -39 5 -39 10 0 6 -13 10 -28 10 -16 0 -44 8 -63 17 -32 16 -81 28 -161 40
-21 3 -38 10 -38 17 0 10 -72 36 -100 36 -6 0 -10 -13 -10 -28 0 -15 -5 -33
-11 -39 -7 -7 -9 -18 -6 -27 4 -11 28 -16 99 -19 51 -2 113 -10 138 -16 25 -7
57 -15 72 -18 14 -3 28 -13 31 -23 2 -9 17 -20 33 -24 15 -4 45 -21 66 -38 32
-25 38 -35 38 -69 0 -32 3 -39 20 -39 11 0 20 -4 20 -10 0 -5 6 -10 13 -10 16
0 57 -64 57 -90 0 -11 5 -20 10 -20 6 0 10 -6 10 -14 0 -7 7 -19 15 -26 8 -6
21 -37 30 -68 8 -32 20 -65 25 -74 13 -23 13 -48 0 -48 -5 0 -10 -20 -10 -45
0 -45 -12 -60 -24 -29 -10 27 -31 9 -37 -32 -3 -21 -8 -32 -11 -24 -3 8 -11
31 -18 50 -6 19 -17 54 -23 78 -6 23 -14 42 -18 42 -10 0 -39 59 -39 81 0 10
-4 21 -10 24 -5 3 -10 14 -10 24 0 10 -9 26 -20 36 -11 10 -20 26 -20 35 0 9
-9 25 -20 35 -11 10 -20 23 -20 28 0 16 -33 36 -62 37 -15 0 -30 5 -33 10 -3
6 -26 10 -50 10 -33 0 -47 5 -54 19 -10 18 -34 26 -114 38 -20 3 -40 9 -43 14
-7 12 -101 11 -109 -1 -3 -5 2 -10 12 -10 32 0 73 -24 73 -42 0 -11 8 -18 19
-18 11 0 21 -4 23 -8 2 -4 17 -14 34 -22 34 -17 104 -75 104 -87 0 -5 14 -14
31 -22 38 -17 99 -79 99 -101 0 -9 7 -25 15 -36 8 -10 15 -34 15 -51 0 -18 5
-33 10 -33 6 0 10 -6 10 -14 0 -7 15 -29 33 -48 41 -44 62 -97 41 -105 -21 -8
-18 -61 6 -75 15 -10 20 -24 20 -54 0 -35 -4 -43 -22 -48 -22 -6 -22 -7 -5
-20 21 -16 22 -27 2 -20 -8 4 -15 1 -15 -5 0 -6 9 -11 20 -11 29 0 27 -58 -5
-113 -18 -34 -26 -66 -31 -136 -4 -50 -11 -94 -15 -97 -5 -3 -9 -71 -9 -152
l0 -147 30 -28 c17 -16 30 -35 30 -43 0 -8 5 -14 10 -14 22 0 8 -30 -20 -45
-29 -15 -32 -15 -70 16 -22 18 -40 40 -40 50 0 10 -4 20 -9 23 -11 7 -25 97
-23 146 0 19 5 74 9 121 13 129 9 235 -12 318 -14 55 -16 78 -7 91 6 10 8 21
5 24 -4 3 -6 34 -6 69 0 46 4 62 14 62 11 0 15 -28 19 -130 5 -134 10 -155 37
-155 11 0 13 -5 7 -17 -4 -10 -11 -67 -15 -128 -4 -60 -11 -128 -14 -150 -4
-22 -2 -51 4 -65 8 -21 10 -13 10 42 1 37 6 70 11 73 6 3 10 28 10 55 0 27 5
52 10 55 6 3 10 39 10 80 0 41 5 77 10 80 6 4 10 60 10 135 0 93 3 130 13 134
8 3 7 8 -5 16 -22 14 -23 34 -2 55 15 14 14 18 -11 41 -22 20 -30 23 -42 12
-9 -7 -13 -23 -11 -40 3 -20 1 -25 -6 -18 -5 5 -18 10 -28 10 -10 0 -18 7 -18
15 0 8 9 15 19 15 20 0 35 25 25 41 -3 5 -20 7 -37 4 -18 -4 -43 -2 -57 4 -17
7 -20 10 -7 10 23 1 22 22 -2 28 -11 3 -21 15 -23 26 -2 13 -12 23 -23 25 -11
2 -24 9 -30 16 -10 12 -82 56 -92 56 -3 0 -2 -21 1 -47 29 -194 34 -346 17
-503 -7 -58 -14 -139 -17 -180 -3 -41 -10 -79 -15 -84 -5 -6 -9 -18 -9 -28 0
-11 -9 -38 -20 -60 -11 -23 -20 -47 -20 -52 0 -6 -9 -29 -19 -51 -11 -22 -24
-51 -30 -65 -6 -14 -20 -38 -31 -55 -11 -16 -22 -37 -26 -45 -3 -8 -10 -23
-15 -32 -5 -10 -9 -24 -9 -31 0 -7 -13 -26 -30 -42 -16 -16 -30 -33 -30 -39 0
-14 -102 -116 -116 -116 -6 0 -14 -9 -17 -20 -4 -15 -14 -20 -42 -20 -20 0
-45 -5 -55 -10 -24 -13 -110 8 -110 27 0 8 -8 16 -17 20 -25 9 -116 102 -133
136 -8 15 -28 45 -45 65 -17 20 -39 54 -50 75 -11 21 -30 48 -42 59 -13 12
-23 30 -23 39 0 10 -9 34 -20 54 -11 20 -20 44 -20 55 0 11 -4 20 -10 20 -5 0
-10 8 -10 18 0 10 -4 22 -8 28 -14 15 -50 217 -50 284 0 14 -3 104 -7 200 -5
147 -3 192 13 284 13 77 15 109 7 112 -6 3 -30 -2 -54 -11 -24 -8 -54 -15 -66
-15 -12 0 -34 -9 -48 -20 -22 -18 -57 -27 -57 -16 0 16 14 36 25 36 7 0 18 7
25 15 7 8 27 15 46 15 18 0 36 5 39 10 3 6 22 10 41 10 24 0 34 5 34 15 0 9 8
19 18 22 21 8 42 28 42 41 0 5 9 17 20 27 11 10 20 26 20 36 0 11 16 39 35 65
42 54 43 64 10 64 -14 0 -25 -4 -25 -10 0 -5 -9 -10 -19 -10 -11 0 -23 -4 -26
-10 -3 -5 -14 -10 -24 -10 -10 0 -26 -9 -36 -20 -10 -11 -24 -20 -31 -20 -24
0 -64 -23 -64 -37 0 -7 -7 -13 -16 -13 -23 0 -98 -55 -111 -81 -26 -56 -35
-91 -29 -119 4 -22 2 -30 -9 -30 -23 0 -75 -109 -75 -157 0 -12 -5 -35 -11
-50 -6 -15 -15 -37 -19 -48 -13 -32 -21 -75 -27 -143 -4 -51 -1 -68 13 -83 36
-40 64 -11 64 65 0 30 5 58 10 61 6 3 10 31 10 61 0 35 7 70 20 96 11 23 20
52 20 64 0 13 5 26 10 29 6 3 10 14 10 24 0 24 26 46 35 31 4 -7 2 -17 -4 -23
-6 -6 -11 -29 -11 -52 0 -23 -4 -45 -9 -51 -5 -5 -12 -27 -15 -49 -3 -22 -10
-67 -15 -100 -5 -33 -13 -81 -17 -108 -3 -26 -11 -50 -15 -53 -13 -7 -11 -261
1 -269 6 -3 10 -17 10 -30 0 -13 5 -27 10 -30 6 -4 10 -66 10 -154 l0 -147
-39 -38 c-30 -29 -45 -37 -67 -34 -26 3 -29 6 -28 39 1 23 11 50 28 72 27 35
27 38 22 149 -7 173 -28 312 -47 324 -5 3 -9 20 -9 38 0 19 -7 51 -16 72 -12
30 -14 57 -9 128 6 92 13 119 46 192 11 22 19 52 19 67 0 15 5 27 10 27 6 0
10 7 10 15 0 8 8 29 18 47 11 18 21 54 24 80 7 58 58 142 98 160 16 7 31 19
33 28 4 14 43 36 156 89 25 12 51 21 58 21 7 0 17 9 23 20 6 11 19 20 29 20
21 0 44 23 34 33 -10 10 -68 8 -78 -2 -6 -5 -35 -12 -65 -15 -147 -15 -160
-18 -171 -37 -5 -11 -20 -19 -34 -19 -13 0 -27 -4 -30 -10 -3 -5 -19 -10 -35
-10 -40 0 -80 -17 -80 -34 0 -7 -7 -19 -15 -26 -8 -7 -15 -22 -15 -35 0 -12
-3 -25 -7 -29 -9 -9 -33 -77 -33 -96 0 -8 -9 -26 -20 -40 -11 -14 -20 -37 -20
-52 0 -15 -4 -30 -10 -33 -5 -3 -10 -17 -10 -31 0 -13 -4 -24 -9 -24 -10 0
-19 -85 -29 -270 -7 -124 -15 -153 -71 -260 -5 -9 -26 -16 -55 -18 -43 -3 -46
-1 -46 21 0 13 13 36 29 51 41 39 43 56 60 396 10 203 17 266 32 276 5 3 9 13
9 23 0 9 9 27 20 39 11 12 20 30 20 41 0 11 5 23 10 26 6 3 10 16 10 27 0 25
37 68 57 68 7 0 18 11 23 25 5 14 21 30 36 35 14 6 28 18 31 28 5 19 63 55
106 66 15 3 27 13 27 21 0 11 11 15 39 15 22 0 43 5 46 10 3 6 28 10 55 10 27
0 52 5 55 10 3 6 26 10 51 10 37 0 44 3 44 19 0 11 -4 23 -10 26 -5 3 -10 14
-10 24 0 26 -26 45 -47 35 -17 -7 -26 -9 -65 -13 -10 0 -18 -8 -18 -16 0 -10
-10 -15 -34 -15 -19 0 -38 -4 -41 -10 -3 -5 -15 -10 -25 -10 -11 0 -35 -9 -55
-20 -20 -11 -45 -20 -57 -20 -23 0 -81 -17 -110 -31 -10 -5 -35 -9 -57 -9 -29
0 -40 -4 -44 -19 -3 -14 -18 -20 -58 -25 -122 -16 -199 -26 -294 -36 -55 -5
-110 -15 -123 -20 -13 -6 -87 -10 -166 -10 -109 0 -147 3 -162 15 -10 8 -28
15 -38 15 -25 0 -86 47 -86 66 0 7 -5 14 -10 14 -18 0 -32 53 -31 125 0 90 8
130 32 151 27 24 24 39 -16 71 -19 15 -35 34 -35 41 0 6 -7 12 -16 12 -19 0
-103 55 -127 84 -9 12 -24 36 -33 54 -9 17 -22 32 -30 32 -15 0 -64 61 -64 81
0 8 -18 31 -39 52 -21 20 -42 47 -48 60 -6 12 -22 48 -37 79 -14 31 -26 73
-26 92 0 19 -4 38 -10 41 -6 4 -10 65 -10 150 0 121 3 150 18 177 10 18 22 45
25 59 7 29 35 45 50 30 6 -6 2 -14 -12 -23 -11 -7 -21 -19 -21 -26 0 -12 -5
-23 -28 -69 -15 -28 -16 -269 -2 -278 5 -3 10 -21 10 -40 0 -40 16 -79 47
-118 13 -16 23 -34 23 -41 0 -23 25 -66 43 -72 9 -3 17 -11 17 -17 0 -7 9 -19
20 -27 11 -8 20 -25 20 -38 0 -12 8 -25 18 -29 18 -7 92 -83 92 -95 0 -15 48
-54 93 -77 26 -13 47 -28 47 -33 0 -4 11 -8 24 -8 15 0 26 -7 29 -20 6 -25 45
-27 54 -2 10 28 65 82 85 82 10 0 18 7 18 15 0 7 6 18 13 22 6 4 17 17 23 28
6 10 26 28 45 39 30 17 59 20 244 24 207 4 387 -10 486 -38 19 -6 49 -10 67
-10 25 0 35 -5 39 -20 4 -15 14 -20 39 -20 18 0 48 -8 67 -19 18 -10 51 -21
73 -24 88 -13 114 -20 120 -28 3 -5 16 -9 29 -9 13 0 27 -4 30 -10 3 -5 17
-10 31 -10 15 0 24 -6 24 -15 0 -8 9 -15 20 -15 11 0 20 7 20 15 0 8 -7 15
-15 15 -9 0 -25 9 -37 20 -11 10 -35 26 -53 34 -18 9 -38 22 -45 31 -7 8 -19
15 -26 15 -8 0 -14 6 -14 14 0 12 -63 48 -163 91 -22 9 -42 27 -47 41 -5 13
-21 29 -35 36 -14 6 -25 15 -25 20 0 4 -6 8 -14 8 -22 0 -136 59 -136 71 0 15
-26 39 -42 39 -7 0 -49 17 -93 39 -44 21 -88 42 -98 45 -9 3 -21 16 -26 29 -7
17 -20 27 -45 31 -20 4 -36 11 -36 16 0 6 -9 10 -20 10 -11 0 -28 4 -38 9 -9
5 -39 19 -66 32 -27 13 -51 31 -53 39 -2 9 -19 22 -36 30 -18 7 -53 26 -79 41
-25 15 -49 25 -52 22 -8 -8 -67 38 -61 48 9 13 35 11 35 -4 0 -6 28 -23 63
-36 34 -13 71 -32 82 -41 11 -10 31 -20 45 -22 14 -2 30 -13 36 -27 7 -13 27
-30 46 -38 18 -8 40 -18 48 -23 9 -4 30 -11 48 -15 18 -3 32 -11 32 -16 0 -5
9 -9 19 -9 25 0 81 -32 81 -46 0 -6 12 -17 28 -25 15 -8 29 -16 32 -19 11 -11
93 -50 104 -50 24 0 79 -33 83 -50 3 -9 20 -23 39 -30 19 -8 34 -17 34 -22 0
-4 9 -8 20 -8 11 0 20 -4 20 -10 0 -5 9 -10 20 -10 11 0 20 -4 20 -8 0 -5 16
-15 36 -22 20 -8 40 -25 45 -37 5 -13 21 -28 36 -33 16 -6 40 -17 55 -25 16
-9 29 -11 33 -6 3 6 -4 15 -15 21 -15 8 -20 21 -20 55 0 39 -5 49 -36 78 -20
18 -38 44 -39 57 -2 14 -10 45 -19 70 -9 25 -16 52 -16 61 0 9 -7 30 -15 45
-18 36 -11 110 17 170 17 36 19 59 15 165 -4 134 -15 194 -41 233 -15 24 -22
77 -11 88 9 9 55 -4 55 -15 0 -6 12 -24 28 -40 l27 -28 1 -262 c2 -259 8 -343
25 -361 5 -6 9 -19 9 -30 0 -12 9 -32 20 -46 11 -14 20 -35 20 -47 0 -24 65
-83 92 -83 9 0 20 -4 23 -10 3 -5 17 -10 31 -10 13 0 24 -4 24 -10 0 -5 9 -10
20 -10 11 0 20 -5 20 -12 0 -16 31 -48 47 -48 7 0 13 11 13 25 0 14 7 28 15
31 19 8 19 24 0 24 -8 0 -21 11 -30 23 -8 13 -26 29 -40 35 -18 9 -25 19 -25
41 0 16 -4 33 -10 36 -5 3 -10 33 -10 65 0 32 5 62 10 65 6 3 10 14 10 24 0
28 61 142 97 181 18 19 33 41 33 48 0 6 7 12 15 12 8 0 19 9 25 20 6 11 19 20
30 20 22 0 70 -41 70 -60 0 -6 10 -25 21 -42 19 -27 21 -39 17 -131 -5 -110
-20 -155 -67 -204 -15 -16 -30 -36 -33 -45 -7 -17 -62 -48 -85 -48 -7 0 -13
-4 -13 -10 0 -5 8 -10 18 -10 10 0 23 -5 30 -12 9 -9 15 -9 24 0 7 7 24 12 38
12 14 0 31 5 37 11 6 6 61 9 154 6 151 -5 216 -13 236 -29 9 -7 18 -5 30 7 16
17 16 18 -2 31 -10 8 -29 14 -41 14 -26 0 -41 16 -46 50 -1 14 -13 29 -24 34
-30 13 -53 56 -65 119 -6 28 -13 65 -16 80 -6 30 9 93 33 139 17 31 10 69 -15
92 -17 15 -19 13 -31 -26 -15 -48 -28 -68 -42 -68 -6 0 -8 13 -4 33 4 17 8 46
9 62 2 28 0 30 -33 30 l-35 0 -3 -62 c-4 -75 -17 -82 -26 -15 -3 27 -9 52 -12
55 -3 3 -21 -3 -40 -14 -44 -24 -43 -14 2 27 32 29 34 36 28 69 -3 19 -14 41
-23 48 -18 14 -41 51 -41 68 0 15 -31 38 -51 39 -9 0 -22 7 -29 15 -7 8 -36
26 -66 41 -30 14 -54 33 -54 40 0 8 -9 14 -19 14 -11 0 -23 5 -26 10 -3 6 -14
10 -24 10 -26 0 -56 47 -41 64 8 11 17 11 45 2 19 -7 38 -15 41 -19 4 -4 17
-7 28 -7 12 0 26 -8 33 -19 6 -10 25 -21 42 -24 21 -5 35 -15 41 -32 5 -14 20
-29 32 -34 35 -13 103 -85 118 -123 35 -92 41 -100 67 -95 19 3 27 0 30 -14 3
-11 8 -19 12 -19 8 0 31 50 31 67 0 7 9 28 20 48 11 20 20 44 20 53 0 10 20
38 45 62 25 24 45 49 45 55 0 6 12 18 28 27 15 9 38 27 52 40 14 13 42 32 63
41 20 10 37 25 37 33 0 23 64 15 68 -9z m-2590 -326 c13 0 20 -5 17 -11 -8
-13 -175 -13 -175 -1 0 5 5 11 10 13 9 3 96 3 148 -1z m147 -41 c25 -11 45
-27 45 -35 0 -9 10 -15 24 -15 14 0 28 -4 31 -10 3 -5 17 -10 31 -10 13 0 24
-4 24 -10 0 -5 11 -10 25 -10 14 0 25 -4 25 -9 0 -5 12 -11 27 -13 37 -4 45
-38 10 -38 -16 0 -26 7 -30 20 -3 12 -14 20 -25 20 -12 0 -24 5 -27 10 -3 6
-17 10 -30 10 -13 0 -27 5 -30 10 -3 6 -17 10 -30 10 -13 0 -27 5 -30 10 -3 6
-17 10 -31 10 -14 0 -24 6 -24 14 0 8 -22 22 -49 32 -28 10 -47 22 -44 27 7
12 52 2 108 -23z m153 -167 c-3 -16 -17 -18 -110 -21 -58 -1 -118 2 -133 8
-52 20 -13 30 116 30 119 0 130 -2 127 -17z m-320 -22 c10 -6 8 -10 -8 -14
-26 -7 -52 1 -44 14 7 11 35 11 52 0z m-83 -21 c3 -5 -3 -10 -14 -10 -12 0
-21 5 -21 10 0 6 6 10 14 10 8 0 18 -4 21 -10z m-70 -20 c3 -5 -1 -10 -10 -10
-9 0 -13 5 -10 10 3 6 8 10 10 10 2 0 7 -4 10 -10z m743 -149 c7 -1 10 -5 7
-11 -8 -12 -405 -14 -405 -2 0 5 2 11 4 13 4 4 345 4 394 0z m-423 -20 c3 -5
1 -12 -5 -16 -14 -9 -52 4 -45 16 8 12 42 12 50 0z m550 0 c9 -16 -9 -21 -51
-14 -31 5 -34 8 -19 14 28 11 63 11 70 0z m-627 -31 c3 -16 -54 -47 -66 -36
-3 4 -2 10 4 14 6 4 13 15 17 25 8 21 40 19 45 -3z m-78 -50 c0 -5 -4 -10 -10
-10 -5 0 -10 5 -10 10 0 6 5 10 10 10 6 0 10 -4 10 -10z m943 -86 c31 -4 47
-11 47 -20 0 -10 14 -14 48 -14 44 0 99 -18 62 -21 -8 0 -28 -2 -45 -3 -16 -1
-46 1 -65 6 -19 4 -120 8 -225 8 -104 1 -200 4 -212 7 -33 7 -29 33 5 34 15 0
36 4 47 9 21 10 253 6 338 -6z m-429 -43 c7 -10 -42 -21 -61 -14 -7 3 -10 9
-7 14 7 12 61 12 68 0z m-99 -21 c4 -6 -7 -10 -25 -10 -18 0 -29 4 -25 10 3 6
15 10 25 10 10 0 22 -4 25 -10z m-75 -20 c0 -5 -12 -10 -26 -10 -14 0 -23 4
-19 10 3 6 15 10 26 10 10 0 19 -4 19 -10z m-70 -20 c0 -5 -4 -10 -10 -10 -5
0 -10 5 -10 10 0 6 5 10 10 10 6 0 10 -4 10 -10z m-45 -20 c3 -5 -1 -10 -9
-10 -9 0 -16 -6 -16 -13 0 -8 -9 -22 -20 -32 -23 -21 -26 -15 -7 17 26 47 40
57 52 38z m2696 -1443 c-1 -12 -15 -9 -19 4 -3 6 1 10 8 8 6 -3 11 -8 11 -12z
m297 1 c-6 -18 -28 -21 -28 -4 0 9 7 16 16 16 9 0 14 -5 12 -12z m157 -38 c0
-10 -11 -15 -35 -16 -19 -1 -29 0 -22 3 6 3 12 11 12 20 0 9 8 13 23 11 12 -2
22 -10 22 -18z m-80 -10 c4 -11 3 -34 0 -51 -9 -40 -36 -35 -48 11 -7 28 -5
36 9 47 24 18 32 16 39 -7z m-61 -42 c4 -29 9 -77 12 -106 7 -59 24 -61 24 -1
0 52 13 49 28 -7 7 -25 24 -62 37 -82 16 -23 25 -51 25 -74 0 -33 -3 -38 -23
-38 -26 0 -45 18 -73 70 -10 19 -22 37 -25 40 -18 15 -29 55 -29 104 0 30 -4
58 -10 61 -11 7 -14 68 -3 78 18 19 32 3 37 -45z m-902 -1364 c624 -3 638 -5
638 -59 0 -15 -21 -68 -46 -118 -82 -166 -158 -357 -245 -622 -27 -82 -49
-151 -49 -152 0 -30 606 177 773 264 18 9 54 22 81 29 47 12 51 12 93 -12 40
-24 54 -50 36 -68 -4 -4 -9 -341 -10 -748 l-2 -742 -26 -25 c-35 -36 -82 -32
-180 13 -44 21 -93 44 -110 51 -146 68 -598 235 -634 235 -26 0 -26 -1 44
-215 70 -213 114 -324 191 -480 35 -72 64 -144 64 -160 0 -17 -9 -45 -21 -64
l-20 -34 -187 7 c-103 3 -443 9 -757 12 -624 7 -589 3 -621 66 -14 26 -12 34
40 140 69 143 87 184 126 283 28 70 160 459 160 471 0 8 -37 4 -81 -10 -24 -7
-71 -21 -104 -31 -67 -19 -293 -104 -390 -145 -22 -10 -65 -28 -95 -40 -30
-12 -80 -33 -110 -47 -85 -40 -108 -44 -141 -28 -16 9 -34 25 -41 38 -9 17
-11 182 -8 702 2 374 4 714 4 756 1 71 3 77 31 102 17 15 38 27 47 27 10 0 52
-16 93 -35 41 -19 108 -50 148 -69 153 -71 594 -236 631 -236 37 0 -118 471
-237 723 -71 148 -75 168 -46 208 l23 32 185 -8 c102 -4 441 -9 753 -11z"/>
<path d="M6735 10820 c-82 -37 -135 -119 -154 -240 -16 -101 -19 -173 -10
-260 16 -166 64 -261 151 -304 90 -45 165 -31 242 47 74 74 88 123 94 317 5
164 -4 230 -40 310 -55 123 -176 179 -283 130z"/>
<path d="M5410 10818 c-1 -6 -1 -295 -1 -315 1 -23 3 -23 132 -23 189 0 249
20 298 100 50 83 4 192 -97 227 -31 11 -331 20 -332 11z"/>
<path d="M7812 10653 l3 -168 105 -3 c226 -7 307 43 298 184 -3 56 -8 68 -37
98 -45 46 -87 56 -240 56 l-131 0 2 -167z"/>
<path d="M4028 9028 c9 -18 20 -67 23 -108 l6 -75 1 80 c2 79 -10 124 -35 132
-8 3 -6 -7 5 -29z"/>
<path d="M5460 8883 c0 -74 3 -103 10 -93 13 20 13 200 0 200 -6 0 -10 -42
-10 -107z"/>
<path d="M6935 8810 c-3 -5 -26 -10 -50 -10 -24 0 -47 -4 -50 -10 -3 -5 -21
-10 -40 -10 -19 0 -37 -4 -40 -10 -3 -5 -19 -10 -35 -10 -19 0 -33 -7 -40 -20
-8 -14 -21 -20 -45 -20 -24 0 -35 -5 -35 -15 0 -8 -6 -15 -14 -15 -8 0 -27 -5
-43 -12 -15 -6 -31 -12 -35 -12 -3 -1 -10 -4 -14 -8 -4 -5 -17 -8 -28 -8 -35
-1 -130 -53 -141 -77 -5 -13 -15 -23 -21 -23 -10 0 -44 -15 -116 -51 -10 -5
-27 -9 -37 -9 -11 0 -22 -4 -26 -9 -3 -5 -19 -12 -36 -16 -17 -4 -42 -20 -56
-36 -15 -16 -33 -29 -42 -29 -9 0 -27 -9 -41 -20 -14 -11 -30 -20 -37 -20 -7
0 -28 -9 -48 -20 -20 -11 -40 -20 -46 -20 -13 0 -39 -26 -39 -39 0 -6 -30 -25
-67 -42 -129 -60 -155 -74 -161 -89 -10 -24 -22 -33 -119 -80 -51 -25 -93 -51
-93 -57 0 -7 -6 -13 -13 -13 -7 0 -26 -13 -42 -30 -16 -16 -34 -30 -41 -30
-18 0 -55 -55 -49 -72 4 -9 -9 -22 -36 -37 -38 -21 -41 -26 -35 -55 6 -28 39
-65 59 -66 4 0 7 18 7 40 0 59 18 49 22 -12 3 -50 5 -53 38 -64 19 -6 51 -17
70 -24 19 -6 42 -12 50 -12 36 1 70 -11 70 -23 0 -9 18 -15 53 -18 74 -8 117
-18 117 -28 0 -5 8 -9 18 -9 10 0 22 -4 28 -9 9 -9 52 -15 179 -27 33 -3 64
-10 70 -15 5 -5 35 -9 67 -9 46 0 59 -4 67 -19 8 -14 26 -20 78 -24 118 -11
424 -14 429 -5 3 4 16 8 28 8 15 0 26 7 29 20 3 11 13 20 22 20 27 0 102 58
120 92 9 18 19 63 22 100 5 60 3 71 -22 115 -16 26 -34 52 -42 56 -7 4 -13 15
-13 23 0 9 -16 31 -35 50 -19 18 -35 38 -35 44 0 6 -7 13 -15 16 -8 4 -15 13
-15 20 0 8 -8 17 -17 21 -10 3 -25 12 -33 18 -15 12 -29 16 -125 37 -70 15
-385 22 -399 8 -13 -13 -126 -13 -126 0 0 6 28 10 64 10 36 0 68 5 71 10 3 6
17 10 30 10 14 0 29 9 35 20 10 18 21 20 125 20 104 0 115 -2 125 -20 7 -13
21 -20 40 -20 16 0 32 -4 35 -10 3 -5 22 -10 41 -10 34 0 40 -2 104 -35 39
-21 84 -64 120 -116 13 -18 25 -36 26 -38 2 -2 16 6 32 18 17 12 34 21 39 21
6 0 18 9 28 20 10 11 24 20 32 20 7 0 13 6 13 13 0 8 22 32 49 55 26 22 56 56
65 76 9 19 39 54 66 79 28 25 50 51 50 59 0 8 17 32 38 53 40 42 57 71 53 93
-1 7 7 29 18 50 35 67 54 193 31 207 -5 3 -10 23 -10 43 0 45 -8 59 -45 78
-32 16 -220 20 -230 4z m-110 -150 c22 -6 9 -8 -47 -9 -46 -1 -78 3 -78 9 0
11 80 11 125 0z m230 0 c4 -6 -20 -10 -67 -9 -52 1 -66 3 -48 9 36 12 108 12
115 0z m60 -20 c3 -5 1 -10 -4 -10 -6 0 -11 5 -11 10 0 6 2 10 4 10 3 0 8 -4
11 -10z m-356 -151 l26 -1 -25 -8 c-33 -10 -144 -12 -195 -2 l-40 7 60 6 c33
4 80 5 104 3 24 -2 56 -4 70 -5z m-324 -18 c14 -6 3 -10 -41 -15 -67 -7 -147
1 -138 15 6 11 151 11 179 0z m490 -1 c4 -6 -16 -10 -52 -10 -41 0 -54 3 -43
10 20 13 87 13 95 0z m83 -40 c22 -29 22 -30 3 -30 -28 0 -71 21 -71 35 0 36
41 33 68 -5z m72 -40 c0 -5 -9 -10 -20 -10 -11 0 -20 5 -20 10 0 6 9 10 20 10
11 0 20 -4 20 -10z m-744 -105 c5 -11 22 -15 68 -15 75 0 115 -19 46 -21 -25
-1 -65 -1 -90 1 -25 1 -127 3 -227 3 -100 1 -179 5 -177 9 3 4 18 8 35 8 19 0
29 5 29 15 0 13 24 15 155 15 129 0 157 -3 161 -15z m279 -45 c4 -6 -16 -10
-52 -10 -41 0 -54 3 -43 10 20 13 87 13 95 0z m100 -20 c4 -6 -10 -10 -34 -10
-23 0 -41 5 -41 10 0 6 15 10 34 10 19 0 38 -4 41 -10z m60 -20 c3 -5 -3 -10
-14 -10 -12 0 -21 5 -21 10 0 6 6 10 14 10 8 0 18 -4 21 -10z m55 -20 c0 -5
-7 -10 -15 -10 -8 0 -15 5 -15 10 0 6 7 10 15 10 8 0 15 -4 15 -10z m40 -29
c0 -11 6 -21 13 -24 6 -2 9 -7 5 -11 -10 -12 -48 17 -48 36 0 10 7 18 15 18 8
0 15 -9 15 -19z m-995 -71 c-3 -5 -18 -10 -33 -10 -15 0 -52 -9 -82 -20 -30
-11 -65 -20 -77 -20 -14 0 -23 -6 -23 -15 0 -10 -10 -15 -30 -15 -16 0 -45 -9
-65 -20 -20 -11 -51 -20 -70 -20 -19 0 -35 -4 -35 -10 0 -5 -11 -10 -25 -10
-14 0 -34 -4 -45 -10 -11 -5 -29 -14 -40 -20 -11 -5 -33 -10 -49 -10 -20 0
-30 -6 -34 -20 -3 -14 -14 -20 -31 -20 -19 0 -26 5 -26 20 0 16 7 20 30 20 17
0 30 4 30 9 0 8 22 15 98 28 17 3 32 9 32 14 0 5 11 9 25 9 14 0 35 5 48 12
49 25 58 28 86 28 20 0 30 6 34 20 4 14 14 20 34 20 16 0 33 4 39 8 15 14 91
33 107 26 8 -3 18 -1 22 5 3 6 24 11 46 11 24 0 38 -4 34 -10z m380 -92 c14
-6 25 -15 25 -20 0 -11 -48 -10 -55 2 -3 6 -15 10 -26 10 -11 0 -17 5 -14 10
8 13 38 13 70 -2z m-355 -38 c0 -5 -4 -10 -10 -10 -5 0 -10 5 -10 10 0 6 5 10
10 10 6 0 10 -4 10 -10z m440 0 c0 -5 -9 -10 -20 -10 -11 0 -20 5 -20 10 0 6
9 10 20 10 11 0 20 -4 20 -10z m-390 -20 c0 -5 7 -10 15 -10 8 0 15 -4 15 -10
0 -5 -7 -10 -15 -10 -8 0 -15 5 -15 10 0 6 -7 10 -15 10 -8 0 -15 5 -15 10 0
6 7 10 15 10 8 0 15 -4 15 -10z m458 -10 c22 -14 50 -20 88 -20 47 0 55 -3 52
-17 -2 -11 -14 -19 -32 -21 l-28 -4 33 -34 c18 -19 37 -34 42 -34 10 0 28 -19
43 -45 6 -11 20 -24 32 -30 12 -5 22 -15 22 -21 0 -5 14 -23 30 -39 30 -28 39
-55 20 -55 -5 0 -10 6 -10 13 0 16 -37 51 -62 60 -10 4 -18 13 -18 20 0 8 -9
22 -20 32 -11 10 -20 24 -20 32 0 7 -6 13 -13 13 -8 0 -24 12 -38 26 -45 49
-70 56 -143 40 -35 -7 -69 -10 -76 -6 -18 11 10 28 58 36 26 4 42 12 42 20 0
8 -6 14 -13 14 -8 0 -22 9 -32 20 -24 27 -1 27 43 0z m-750 -37 c-2 -10 -12
-18 -23 -18 -11 0 -21 8 -23 18 -3 13 3 17 23 17 20 0 26 -4 23 -17z m360 5
c-5 -11 64 -58 85 -58 10 0 21 -8 24 -18 2 -10 18 -24 35 -31 17 -8 33 -22 35
-32 3 -11 13 -19 22 -19 21 0 41 -19 41 -38 0 -15 37 -52 51 -52 5 0 19 -21
31 -47 12 -27 28 -57 37 -68 16 -19 15 -19 -9 -4 -23 15 -48 49 -69 94 -12 25
-72 84 -103 99 -13 6 -27 20 -32 31 -5 11 -30 31 -56 44 -41 20 -56 23 -116
18 -99 -9 -146 -17 -170 -29 -18 -8 -29 -5 -58 15 -26 17 -33 26 -23 30 8 3
19 1 25 -5 6 -6 33 -7 68 -4 33 4 89 9 127 12 69 6 82 15 47 34 -24 13 -27 43
-4 38 8 -2 14 -6 12 -10z m-313 -38 c14 -16 15 -20 4 -20 -16 0 -39 19 -39 32
0 14 16 9 35 -12z m-180 -25 c33 -4 74 -13 90 -20 l30 -13 -41 -1 c-22 -1 -43
-4 -46 -7 -3 -3 7 -20 23 -37 16 -18 35 -44 41 -59 7 -15 21 -29 33 -32 16 -4
17 -8 7 -18 -11 -11 -19 -7 -42 22 -16 19 -38 45 -50 58 -11 12 -20 27 -20 31
0 5 -11 16 -25 25 -18 12 -48 16 -115 16 -93 0 -113 12 -39 24 22 4 48 13 56
22 10 9 19 11 27 5 6 -5 38 -12 71 -16z m332 -72 c4 -9 24 -35 45 -57 21 -23
44 -53 51 -68 6 -16 16 -28 20 -28 14 0 37 -28 37 -45 0 -11 -10 -6 -35 18
-19 19 -35 39 -35 45 0 5 -12 21 -27 34 -16 13 -33 33 -39 44 -6 10 -20 23
-32 29 -25 11 -30 45 -7 45 9 0 19 -8 22 -17z m-172 -163 c3 -5 1 -10 -4 -10
-6 0 -11 5 -11 10 0 6 2 10 4 10 3 0 8 -4 11 -10z"/>
<path d="M4890 8663 c-21 -25 -24 -37 -23 -111 0 -48 5 -88 12 -95 6 -6 11
-20 11 -32 0 -22 72 -98 103 -109 11 -3 21 -15 24 -26 4 -14 14 -20 34 -20 16
0 29 5 29 12 0 6 10 22 22 35 12 13 16 23 10 23 -6 0 -14 -4 -17 -10 -8 -14
-41 -13 -67 3 -39 21 -88 74 -88 94 0 11 -11 30 -25 43 -22 21 -25 31 -25 98
0 56 4 80 17 94 9 10 14 20 11 23 -2 3 -15 -7 -28 -22z"/>
<path d="M4600 8585 c0 -36 -5 -75 -12 -88 -24 -46 -28 -57 -28 -70 0 -20 -27
-72 -47 -89 -51 -44 -139 -22 -145 35 -3 26 -6 28 -12 14 -9 -19 18 -87 34
-87 6 0 10 -6 10 -14 0 -7 8 -16 18 -18 26 -7 82 3 82 14 0 13 40 50 71 66 20
11 28 26 37 71 15 70 16 217 2 226 -6 4 -10 -18 -10 -60z"/>
<path d="M4485 8632 c-15 -10 -35 -49 -35 -67 0 -8 -4 -24 -10 -35 -5 -11 -14
-29 -20 -40 -5 -11 -10 -31 -10 -45 0 -14 5 -25 10 -25 6 0 10 11 10 24 0 13
7 29 15 36 8 7 15 18 15 25 0 6 9 20 20 30 11 10 20 28 20 41 0 13 5 26 10 29
6 3 10 13 10 21 0 15 -18 19 -35 6z"/>
<path d="M5000 8618 c0 -41 42 -158 57 -158 24 0 26 31 4 70 -11 21 -21 49
-21 62 0 24 -16 48 -32 48 -4 0 -8 -10 -8 -22z"/>
<path d="M5471 8602 c-6 -11 -11 -32 -11 -46 0 -15 -4 -34 -9 -44 -11 -21 -31
-106 -31 -131 0 -10 -9 -30 -20 -44 -19 -24 -28 -87 -12 -87 14 0 32 23 32 42
0 18 4 28 28 75 7 13 12 36 12 53 0 17 9 48 20 70 21 41 26 95 11 119 -7 11
-11 10 -20 -7z"/>
<path d="M4030 8536 c0 -41 5 -78 10 -81 6 -3 10 -26 10 -49 0 -26 6 -48 14
-56 8 -6 20 -28 26 -48 22 -69 35 -92 52 -92 14 0 18 -9 18 -43 0 -50 22 -77
63 -77 14 0 28 -4 31 -9 10 -15 87 -23 102 -10 18 15 1 39 -28 39 -24 0 -68
29 -68 44 0 7 -12 19 -27 26 -40 20 -113 91 -113 110 0 9 -9 35 -20 58 -11 22
-20 56 -20 74 -1 18 -7 44 -15 58 -8 14 -14 46 -15 72 0 26 -4 50 -10 53 -6 4
-10 -21 -10 -69z"/>
<path d="M4615 8201 c-3 -6 -22 -11 -41 -11 -19 0 -34 -4 -34 -10 0 -5 -7 -10
-16 -10 -9 0 -18 -8 -21 -18 -2 -10 -19 -24 -36 -31 -43 -18 -117 -90 -117
-114 0 -10 -4 -27 -10 -37 -8 -15 -2 -23 40 -50 50 -32 50 -33 50 -85 0 -63
-19 -104 -65 -139 -31 -24 -35 -32 -35 -72 0 -24 5 -44 10 -44 6 0 10 -13 10
-30 0 -16 4 -30 9 -30 5 0 13 -10 17 -22 8 -27 36 -67 47 -68 4 0 7 7 7 15 0
8 -4 15 -10 15 -5 0 -10 13 -10 29 0 17 -4 33 -10 36 -12 7 -14 35 -2 35 11 0
32 -51 32 -77 0 -13 5 -23 10 -23 6 0 10 -7 10 -15 0 -8 -4 -15 -10 -15 -5 0
-10 -9 -10 -19 0 -19 47 -61 68 -61 5 0 12 -9 15 -20 4 -14 14 -20 35 -20 17
0 34 -4 37 -10 4 -6 70 -10 164 -10 124 0 165 3 189 16 18 8 32 19 32 24 0 5
16 17 35 26 36 17 44 29 23 37 -10 3 -10 10 2 33 8 16 21 33 27 37 7 4 13 15
13 22 0 15 12 20 23 9 10 -10 -22 -64 -38 -64 -8 0 -15 -9 -15 -20 0 -11 7
-20 15 -20 8 0 15 4 15 10 0 5 9 18 20 28 11 10 21 27 23 38 1 11 15 43 30 72
15 28 27 62 27 75 0 13 5 28 12 35 9 9 6 17 -12 37 -13 14 -29 25 -35 25 -38
0 -59 76 -29 101 9 7 20 23 25 36 5 13 14 23 21 23 19 0 40 54 35 92 -4 30 -5
31 -12 11 -10 -32 -41 -14 -50 29 -4 18 -10 38 -14 43 -3 6 -6 19 -6 30 0 13
-13 26 -39 38 -21 10 -40 27 -43 38 -3 11 -14 19 -27 19 -12 0 -26 4 -31 9
-23 22 -338 41 -350 22z m35 -20 c0 -5 -6 -11 -14 -14 -8 -3 -16 -16 -18 -28
-2 -12 -9 -24 -16 -27 -15 -5 -6 44 12 65 13 14 36 17 36 4z m80 1 c0 -4 -5
-13 -12 -20 -9 -9 -9 -15 0 -24 9 -9 12 -8 12 6 0 16 22 46 34 46 14 0 4 -44
-15 -71 -16 -23 -24 -27 -34 -19 -9 8 -15 8 -20 0 -3 -6 -10 -8 -15 -5 -7 5 7
57 23 83 9 13 27 16 27 4z m100 -42 c0 -44 -2 -50 -21 -50 -18 0 -20 4 -14 23
4 12 9 34 12 50 9 45 23 31 23 -23z m90 17 c0 -8 9 -22 20 -32 21 -19 26 -35
11 -35 -16 0 -73 59 -66 70 9 15 35 12 35 -3z m-51 -39 c1 -5 -3 -8 -9 -8 -5
0 -10 12 -9 28 0 24 1 25 9 7 5 -11 9 -23 9 -27z m-403 -53 c4 -9 14 -14 23
-13 24 4 15 -41 -15 -72 -23 -23 -24 -23 -24 -4 0 11 5 25 12 32 9 9 9 15 0
24 -8 8 -14 5 -23 -15 -15 -34 -29 -35 -29 -2 0 14 4 25 9 25 5 0 11 9 14 20
6 24 25 26 33 5z m105 -8 c-6 -6 -11 -21 -11 -33 0 -13 -4 -26 -10 -29 -5 -3
-10 -17 -10 -31 0 -13 -4 -24 -10 -24 -26 0 -5 111 25 132 14 10 28 -3 16 -15z
m110 -30 c1 -18 3 -24 6 -14 10 39 23 13 22 -45 0 -60 -1 -62 -16 -40 -8 12
-23 22 -33 22 -18 0 -18 1 -5 83 7 44 24 40 26 -6z m327 21 c20 -43 24 -78 7
-78 -10 0 -15 10 -15 31 0 22 -5 32 -20 36 -11 3 -20 12 -20 19 0 23 36 16 48
-8z m81 0 c21 -58 23 -70 10 -66 -8 3 -16 13 -17 24 -2 10 -13 29 -25 42 l-20
22 22 0 c13 0 25 -9 30 -22z m-166 -33 c3 -11 9 -31 13 -45 7 -23 6 -24 -10
-11 -13 11 -20 11 -28 3 -19 -19 -27 -14 -39 28 -9 30 -9 43 0 54 15 18 58 0
64 -29z m-303 6 c0 -17 -4 -33 -10 -36 -5 -3 -10 -15 -10 -26 0 -10 -4 -19
-10 -19 -5 0 -10 13 -10 29 0 17 5 33 10 36 6 3 10 15 10 26 0 10 5 19 10 19
6 0 10 -13 10 -29z m141 -13 c11 -43 5 -68 -19 -76 -8 -2 -12 15 -12 57 0 71
14 79 31 19z m57 30 c13 -13 17 -98 4 -98 -19 0 -32 27 -32 67 0 44 7 52 28
31z m297 -129 c7 -33 -5 -56 -24 -45 -6 4 -11 23 -11 42 0 44 26 46 35 3z
m-633 -39 c-6 -11 -12 -29 -12 -40 0 -11 -4 -20 -10 -20 -13 0 -13 41 0 76 8
21 13 25 23 15 9 -9 9 -16 -1 -31z m538 -65 c0 -57 -4 -95 -10 -95 -6 0 -10
38 -10 95 0 57 4 95 10 95 6 0 10 -38 10 -95z m-404 54 c3 -6 1 -16 -5 -22 -6
-6 -11 -30 -11 -54 0 -24 -4 -43 -10 -43 -11 0 -14 113 -3 123 9 10 21 8 29
-4z m64 -69 c0 -38 -4 -71 -9 -74 -10 -7 -18 69 -13 122 6 58 22 23 22 -48z
m198 13 c13 -58 8 -85 -14 -76 -10 4 -14 24 -14 76 0 79 11 79 28 0z m-343 35
c-3 -13 -9 -33 -12 -45 -9 -39 -23 -25 -23 22 0 39 3 45 21 45 18 0 20 -4 14
-22z m185 -4 c13 -33 13 -80 -1 -105 -18 -34 -28 -11 -27 61 0 72 11 89 28 44z
m90 -5 c8 -31 1 -99 -11 -99 -5 0 -9 22 -9 49 0 27 -3 57 -7 67 -4 11 -2 15 7
12 8 -2 17 -15 20 -29z m150 -34 c0 -37 -4 -65 -10 -65 -6 0 -10 28 -10 65 0
37 4 65 10 65 6 0 10 -28 10 -65z m-510 -131 c0 -36 -4 -64 -10 -64 -6 0 -10
30 -10 71 0 44 4 68 10 64 6 -3 10 -35 10 -71z m70 -39 c0 -50 -4 -85 -10 -85
-11 0 -14 152 -3 163 12 13 13 7 13 -78z m80 -5 c0 -47 -4 -80 -10 -80 -6 0
-10 33 -10 80 0 47 4 80 10 80 6 0 10 -33 10 -80z m300 9 c10 -54 2 -109 -16
-109 -11 0 -14 20 -14 87 0 64 3 84 11 76 6 -6 15 -31 19 -54z m-510 11 c0
-22 -4 -40 -10 -40 -5 0 -10 18 -10 40 0 22 5 40 10 40 6 0 10 -18 10 -40z
m270 -38 c0 -74 -5 -88 -27 -71 -8 7 -13 34 -13 75 0 57 2 64 20 64 18 0 20
-7 20 -68z m110 3 c0 -37 -4 -65 -10 -65 -6 0 -10 28 -10 65 0 37 4 65 10 65
6 0 10 -28 10 -65z m60 -20 c0 -50 -4 -85 -10 -85 -6 0 -10 35 -10 85 0 50 4
85 10 85 6 0 10 -35 10 -85z m150 30 c0 -47 -17 -95 -33 -95 -5 0 -6 14 -2 33
3 17 9 51 12 74 6 55 23 46 23 -12z m60 -15 c0 -40 -4 -70 -10 -70 -6 0 -10
30 -10 70 0 40 4 70 10 70 6 0 10 -30 10 -70z m60 31 c0 -22 -4 -43 -10 -46
-5 -3 -10 -17 -10 -30 0 -13 -4 -26 -9 -30 -17 -10 -19 10 -5 50 8 22 13 47
13 55 -2 28 1 40 11 40 6 0 10 -18 10 -39z m50 -1 c0 -24 -25 -71 -33 -63 -9
8 -9 88 0 96 10 10 33 -13 33 -33z m-450 -35 c0 -41 -12 -66 -23 -48 -8 13 5
103 14 97 5 -3 9 -25 9 -49z m-214 -101 c16 -39 18 -64 4 -64 -13 0 -26 28
-33 73 -7 45 8 41 29 -9z m54 -22 c0 -16 9 -38 20 -50 18 -19 27 -42 16 -42
-18 0 -36 15 -36 30 0 11 -4 22 -10 25 -5 3 -10 19 -10 36 0 16 5 29 10 29 6
0 10 -13 10 -28z m60 -2 c0 -16 5 -30 10 -30 6 0 10 -7 10 -15 0 -24 -14 -17
-27 12 -16 32 -17 63 -3 63 6 0 10 -13 10 -30z m419 8 c-1 -27 -30 -80 -47
-86 -19 -6 -14 23 8 43 11 10 20 29 20 42 0 12 5 23 10 23 6 0 10 -10 9 -22z
m-352 -30 c-3 -8 -6 -5 -6 6 -1 11 2 17 5 13 3 -3 4 -12 1 -19z m67 6 c21 -8
23 -104 2 -104 -18 0 -26 22 -26 71 0 42 0 42 24 33z m156 -29 c0 -8 -4 -17
-10 -20 -6 -4 -10 5 -10 20 0 15 4 24 10 20 6 -3 10 -12 10 -20z m-60 -19 c0
-32 -24 -66 -37 -52 -9 8 16 86 27 86 6 0 10 -15 10 -34z m110 13 c0 -11 -8
-28 -17 -37 -16 -16 -16 -15 -10 8 4 14 7 31 7 38 0 6 5 12 10 12 6 0 10 -9
10 -21z m-253 -36 c-3 -10 -5 -4 -5 12 0 17 2 24 5 18 2 -7 2 -21 0 -30z m178
-2 c3 -5 1 -12 -5 -16 -5 -3 -10 1 -10 9 0 18 6 21 15 7z"/>
<path d="M5325 8200 c-3 -5 -17 -10 -31 -10 -13 0 -24 -4 -24 -10 0 -5 -7 -10
-15 -10 -8 0 -15 -6 -15 -14 0 -19 -44 -46 -75 -46 -32 0 -31 -5 1 -35 32 -29
29 -29 74 -5 19 11 50 26 68 35 23 11 32 22 32 40 0 13 5 27 10 30 15 9 12 35
-4 35 -8 0 -18 -4 -21 -10z"/>
<path d="M3195 8061 c-11 -5 -46 -14 -77 -21 -32 -6 -58 -16 -58 -22 0 -5 -25
-33 -56 -61 -58 -54 -90 -107 -80 -132 4 -11 -2 -15 -24 -15 -30 0 -60 -30
-60 -61 0 -9 -7 -22 -15 -29 -11 -9 -15 -34 -15 -95 0 -71 3 -84 21 -101 12
-10 25 -29 29 -40 6 -14 23 -25 54 -33 24 -6 47 -14 49 -18 9 -14 491 14 565
32 12 3 22 12 22 20 0 12 15 15 74 15 41 0 78 5 81 10 3 6 26 10 50 10 24 0
47 5 50 10 3 6 16 10 29 10 12 0 41 9 64 20 22 11 48 20 56 20 8 0 18 5 21 10
3 6 22 10 41 10 23 0 34 5 34 15 0 8 12 17 28 20 15 3 41 10 57 15 17 6 52 13
78 16 51 7 77 31 77 71 0 29 16 38 23 13 7 -28 57 -28 57 -1 0 11 6 21 13 24
32 12 -55 87 -100 87 -16 0 -27 7 -30 20 -4 15 -14 20 -39 20 -18 0 -36 5 -39
10 -3 6 -19 10 -35 10 -16 0 -32 5 -35 10 -3 6 -21 10 -40 10 -19 0 -37 5 -40
10 -3 6 -21 10 -39 10 -18 0 -51 9 -74 20 -22 11 -61 20 -87 20 -33 0 -45 4
-45 15 0 8 -6 16 -12 16 -7 1 -29 3 -48 5 -19 1 -71 8 -115 14 -105 15 -384
22 -410 11z m125 -69 c0 -14 -23 -32 -42 -32 -10 0 -18 -4 -18 -10 0 -5 -9
-10 -20 -10 -11 0 -20 -4 -20 -9 0 -5 -9 -11 -20 -14 -11 -3 -24 -15 -28 -27
-4 -11 -19 -27 -32 -33 -14 -7 -25 -19 -25 -27 0 -12 18 -16 80 -18 75 -3 82
-1 105 23 13 14 30 25 37 25 7 0 18 11 23 25 6 15 26 32 50 42 22 10 40 21 40
25 0 5 7 8 15 8 8 0 15 -4 15 -10 0 -5 -6 -10 -13 -10 -8 0 -22 -9 -32 -20
-10 -11 -24 -20 -32 -20 -7 0 -13 -6 -13 -13 0 -7 -14 -24 -31 -37 -46 -37
-98 -93 -94 -101 3 -3 -4 -14 -15 -24 -11 -10 -20 -23 -20 -30 0 -7 -9 -20
-20 -30 -11 -10 -20 -29 -20 -42 0 -12 -4 -23 -9 -23 -5 0 -11 -13 -14 -29 -3
-16 -13 -31 -21 -34 -24 -9 -20 35 4 53 11 8 20 22 20 32 0 19 37 88 56 103 6
6 14 22 16 35 l3 25 -95 0 c-86 0 -95 -2 -105 -21 -5 -11 -19 -29 -29 -39 -18
-19 -18 -19 -11 5 14 44 41 85 63 95 12 5 22 15 22 21 0 7 9 14 20 17 11 3 20
12 20 21 0 9 6 16 14 16 7 0 19 7 26 15 7 9 32 25 55 35 23 10 48 26 55 35 13
16 40 21 40 7z m190 -22 c0 -5 -4 -10 -10 -10 -5 0 -10 5 -10 10 0 6 5 10 10
10 6 0 10 -4 10 -10z m250 -16 c0 -11 -54 -54 -67 -54 -7 0 -13 -6 -13 -14 0
-7 -16 -24 -35 -37 -19 -13 -33 -28 -32 -34 2 -5 25 -11 52 -12 77 -4 65 -13
-16 -13 -77 0 -119 -16 -119 -46 0 -8 -3 -14 -7 -14 -9 0 -33 -48 -33 -66 0
-12 -29 -28 -38 -20 -2 3 5 18 17 34 12 17 21 35 21 40 0 6 4 12 9 14 5 2 11
14 13 28 2 21 -2 26 -24 28 -49 6 -30 22 26 22 50 0 57 3 99 45 26 25 50 45
54 45 5 0 15 9 23 20 8 11 22 20 32 20 10 0 18 5 18 10 0 6 5 10 10 10 6 0 10
-3 10 -6z m210 -68 c0 -23 -45 -80 -74 -94 -15 -8 -30 -21 -34 -30 -9 -24 -61
-100 -74 -108 -6 -4 -9 -3 -6 2 2 5 10 24 17 42 7 17 17 32 22 32 5 0 9 6 9
13 0 8 27 40 60 73 33 32 60 65 60 72 0 6 5 12 10 12 6 0 10 -6 10 -14z m117
-110 c4 -3 -33 -6 -80 -6 -48 0 -87 3 -87 8 0 8 158 7 167 -2z m-1097 -106 c0
-5 -8 -10 -17 -10 -15 0 -16 2 -3 10 19 12 20 12 20 0z m457 -62 c-3 -8 -6 -5
-6 6 -1 11 2 17 5 13 3 -3 4 -12 1 -19z m-317 -98 c0 -5 -4 -10 -10 -10 -5 0
-10 5 -10 10 0 6 5 10 10 10 6 0 10 -4 10 -10z"/>
<path d="M4208 8043 c6 -2 18 -2 25 0 6 3 1 5 -13 5 -14 0 -19 -2 -12 -5z"/>
<path d="M5138 8043 c6 -2 12 -13 12 -24 0 -10 5 -19 10 -19 6 0 10 6 10 13 0
16 -20 37 -34 36 -6 0 -5 -3 2 -6z"/>
<path d="M4247 8034 c-12 -13 -8 -34 7 -34 8 0 22 -10 30 -22 13 -18 18 -20
28 -10 10 10 9 18 -4 40 -16 27 -47 40 -61 26z"/>
<path d="M4280 7510 c-8 -5 -32 -10 -52 -10 -26 0 -40 -6 -47 -19 -7 -12 -25
-21 -48 -24 -106 -14 -160 -33 -191 -67 -39 -43 -38 -74 1 -78 19 -2 27 1 27
13 0 8 8 18 18 21 9 3 26 10 37 14 30 13 81 21 160 27 39 3 75 8 80 12 6 4 31
14 58 21 44 12 60 31 37 45 -5 3 -10 17 -10 31 0 20 -5 24 -27 24 -16 0 -35
-5 -43 -10z"/>
<path d="M5169 7503 c-9 -10 -19 -30 -23 -44 -5 -25 -4 -27 42 -31 27 -3 63
-12 82 -21 18 -10 50 -17 71 -17 21 0 41 -4 44 -10 3 -5 28 -10 55 -10 27 0
52 -4 55 -10 3 -5 17 -10 29 -10 15 0 26 -7 29 -20 6 -24 37 -27 37 -4 0 9 9
18 20 21 11 3 20 10 20 16 0 14 -48 57 -64 57 -7 0 -31 9 -54 20 -22 11 -48
20 -57 20 -8 0 -15 8 -15 19 0 20 -11 22 -190 37 -55 5 -68 3 -81 -13z"/>
<path d="M5080 7342 c0 -20 14 -41 50 -77 27 -26 52 -61 55 -77 4 -15 10 -28
15 -28 5 0 11 -8 15 -19 7 -25 36 -56 58 -64 9 -3 17 -13 17 -22 0 -8 9 -15
19 -15 11 0 32 -10 48 -23 15 -12 54 -35 86 -50 31 -16 57 -35 57 -43 0 -9 5
-12 10 -9 22 14 3 125 -22 125 -4 0 -8 6 -8 14 0 17 -57 75 -96 97 -16 10 -33
26 -39 38 -5 12 -24 26 -41 31 -18 6 -35 18 -38 25 -3 8 -21 23 -41 32 -19 9
-35 20 -35 25 0 4 -11 8 -25 8 -15 0 -28 7 -32 18 -7 18 -32 41 -45 42 -5 0
-8 -13 -8 -28z"/>
<path d="M3833 7281 c-18 -15 -33 -33 -33 -39 0 -7 -4 -20 -9 -30 -22 -43 -51
-110 -61 -144 -6 -21 -16 -40 -21 -43 -5 -4 -9 -31 -9 -61 0 -45 3 -54 18 -54
16 0 42 40 42 67 0 7 9 28 20 48 11 20 20 45 20 57 0 11 9 35 19 52 28 45 65
156 55 166 -5 5 -24 -4 -41 -19z"/>
<path d="M4454 7287 c-26 -30 -44 -64 -44 -81 0 -8 -13 -28 -30 -46 -16 -18
-30 -43 -30 -56 0 -13 -4 -24 -10 -24 -5 0 -10 -7 -10 -15 0 -9 -7 -30 -17
-48 -36 -70 -46 -298 -28 -615 4 -73 11 -135 16 -138 5 -3 9 -16 9 -29 0 -13
5 -27 10 -30 6 -3 10 -17 10 -30 0 -13 5 -27 10 -30 6 -3 10 -19 10 -34 0 -38
25 -97 45 -104 8 -4 15 -14 15 -24 1 -24 19 -54 58 -97 17 -19 32 -42 32 -49
0 -8 9 -26 20 -40 11 -14 20 -30 20 -35 0 -5 9 -12 20 -15 12 -3 20 -14 20
-27 0 -23 21 -50 39 -50 6 0 8 13 5 33 -5 32 -5 32 12 10 12 -17 27 -23 55
-23 21 0 41 -4 44 -10 9 -14 148 -13 163 2 8 8 15 8 25 0 10 -9 22 -1 55 36
75 84 102 119 102 134 0 8 7 29 16 47 19 38 15 60 -7 38 -9 -8 -24 -17 -35
-19 -14 -2 -18 -10 -16 -31 3 -21 -1 -27 -16 -27 -11 0 -22 -8 -25 -19 -4 -15
-18 -20 -78 -26 -95 -9 -159 -9 -236 0 -52 6 -63 11 -63 26 0 11 -7 19 -15 19
-8 0 -23 4 -33 9 -9 5 -25 12 -35 15 -9 3 -21 16 -26 28 -5 13 -21 30 -35 37
-14 8 -26 20 -26 28 0 7 -4 13 -10 13 -5 0 -10 5 -10 10 0 6 11 10 24 10 14 0
28 -4 31 -10 3 -5 15 -10 26 -10 10 0 19 -7 19 -15 0 -17 17 -18 245 -15 101
1 132 5 138 16 11 20 97 19 97 -1 0 -8 7 -15 15 -15 8 0 15 7 15 15 0 11 11
15 40 15 44 0 90 36 90 70 0 10 5 22 10 25 6 3 10 19 10 35 0 16 5 32 10 35 6
3 10 28 10 56 0 27 4 49 9 49 22 0 43 190 43 395 1 210 -9 309 -33 352 -11 19
-19 47 -19 63 0 17 -4 30 -10 30 -5 0 -10 6 -10 13 0 18 -24 67 -32 67 -5 0
-8 6 -8 13 0 8 -9 22 -20 32 -11 10 -20 23 -20 29 -1 38 -77 75 -95 46 -3 -5
-17 -10 -31 -10 -13 0 -24 -4 -24 -9 0 -30 -339 -32 -415 -1 -11 4 -32 12 -46
18 -23 9 -30 7 -45 -11z m31 -197 c3 -5 24 -10 45 -10 29 0 42 -5 50 -20 10
-19 21 -20 251 -20 232 0 241 1 246 20 7 26 33 26 40 0 3 -12 18 -23 35 -28
44 -11 39 -22 -19 -44 -52 -19 -63 -31 -43 -43 24 -15 9 -35 -24 -35 -19 0
-38 -4 -41 -10 -4 -6 -70 -10 -165 -10 -95 0 -161 4 -165 10 -3 6 -29 10 -57
10 -41 0 -51 3 -55 20 -3 13 -14 20 -29 20 -13 0 -44 16 -70 35 -25 19 -50 35
-55 35 -9 0 -39 59 -39 75 0 9 89 5 95 -5z m-69 -359 c15 -15 117 -23 388 -27
171 -3 263 -1 270 6 5 5 27 10 48 10 21 0 47 5 57 12 15 9 22 8 35 -5 9 -8 13
-23 10 -31 -4 -11 -1 -16 10 -16 26 0 18 -27 -16 -53 -26 -21 -30 -28 -19 -40
10 -12 8 -19 -7 -34 -10 -10 -21 -25 -25 -34 -3 -9 -29 -28 -58 -43 -52 -26
-56 -26 -271 -26 -139 0 -218 4 -218 10 0 6 -9 10 -19 10 -11 0 -23 5 -26 10
-3 6 -22 10 -41 10 -19 0 -34 5 -34 10 0 6 -7 10 -16 10 -9 0 -18 8 -21 18 -2
10 -28 28 -59 41 -34 15 -54 30 -54 40 0 22 -23 71 -32 71 -5 0 -8 5 -8 10 0
14 29 12 44 -2 7 -7 15 -21 19 -30 8 -22 26 -23 33 -3 7 17 -18 45 -40 45 -9
0 -16 5 -16 10 0 6 -7 10 -16 10 -8 0 -12 5 -9 10 8 13 78 13 91 1z m3 -391
c22 0 43 -4 46 -10 3 -5 21 -10 40 -10 19 0 37 -4 40 -10 3 -5 19 -10 35 -10
16 0 31 -4 34 -9 19 -30 429 -30 460 0 6 5 20 9 32 9 13 0 26 5 29 10 11 18
50 11 63 -11 10 -15 11 -24 3 -32 -6 -6 -11 -21 -11 -33 0 -40 -118 -104 -192
-104 -27 0 -40 -6 -48 -20 -10 -19 -21 -20 -170 -20 -133 0 -160 2 -160 15 0
19 -54 42 -119 50 -62 7 -112 33 -88 47 20 11 -1 58 -25 58 -10 0 -18 5 -18
10 0 6 -9 10 -19 10 -10 0 -22 7 -25 16 -9 22 -8 24 9 24 8 0 15 5 15 10 0 6
-5 10 -11 10 -5 0 -7 5 -4 10 4 7 12 7 25 0 10 -5 37 -10 59 -10z"/>
<path d="M5618 7294 c-7 -6 19 -61 32 -69 5 -3 23 -35 40 -70 17 -35 35 -67
40 -70 6 -3 10 -14 10 -23 0 -18 62 -151 70 -152 10 0 30 54 30 80 0 15 -9 35
-20 45 -11 10 -20 28 -20 41 0 13 -4 26 -10 29 -5 3 -10 16 -10 28 0 13 -9 29
-20 37 -11 8 -20 24 -20 35 -1 38 -100 111 -122 89z"/>
<path d="M5530 6885 c7 -8 16 -15 21 -15 5 0 6 7 3 15 -4 8 -13 15 -21 15 -13
0 -13 -3 -3 -15z"/>
<path d="M3687 6863 c-11 -10 -8 -261 2 -268 6 -3 12 32 15 82 3 49 8 112 11
141 6 41 4 52 -7 52 -8 0 -18 -3 -21 -7z"/>
<path d="M3910 6376 c0 -19 5 -38 10 -41 6 -3 10 -17 10 -31 0 -13 5 -24 10
-24 6 0 10 28 10 65 0 58 -2 65 -20 65 -16 0 -20 -7 -20 -34z"/>
<path d="M3940 5855 c-8 -19 -18 -35 -22 -35 -5 0 -6 -4 -3 -10 12 -19 55 21
55 51 0 39 -13 36 -30 -6z"/>
<path d="M5574 5849 c-3 -6 -1 -16 5 -22 8 -8 11 -5 11 11 0 24 -5 28 -16 11z"/>
<path d="M5860 6462 c0 -15 47 -68 54 -62 2 3 -9 21 -25 40 -16 19 -29 29 -29
22z"/>
<path d="M4157 5134 c-3 -5 16 -60 43 -122 64 -147 125 -332 184 -557 14 -49
29 -103 35 -118 6 -16 11 -50 11 -76 0 -39 -5 -53 -27 -76 -30 -29 -35 -29
-173 -6 -139 23 -596 186 -723 257 -15 8 -31 13 -37 9 -5 -3 -9 -228 -9 -580
1 -562 1 -575 20 -575 11 0 36 7 57 16 135 58 457 157 612 189 204 42 203 42
243 3 l36 -33 -30 -115 c-61 -234 -174 -564 -244 -712 -32 -68 -28 -88 17 -87
18 0 286 -3 596 -7 633 -8 582 -15 537 73 -71 142 -244 671 -260 799 -6 44 -4
51 20 74 31 29 67 30 190 5 126 -26 440 -134 585 -202 92 -42 161 -66 170 -57
4 5 10 272 12 592 l5 584 -26 -5 c-14 -3 -60 -21 -101 -40 -161 -75 -426 -154
-725 -218 -56 -11 -98 4 -120 45 -17 32 -17 35 10 142 50 201 164 526 241 691
19 39 34 75 34 81 0 14 -180 21 -706 28 -291 5 -473 4 -477 -2z m936 -166 l36
-33 -45 -110 c-59 -145 -109 -306 -150 -490 -34 -153 -60 -328 -50 -343 6 -10
196 17 376 54 141 29 279 67 425 118 55 20 113 36 128 36 27 0 74 -24 89 -45
4 -5 8 -150 8 -321 0 -307 0 -311 -23 -345 -37 -55 -65 -59 -143 -20 -178 89
-543 188 -795 216 -40 4 -59 2 -66 -7 -18 -23 24 -301 77 -503 26 -101 97
-308 121 -357 25 -49 24 -79 -3 -113 l-21 -27 -326 6 -326 7 -22 25 c-13 14
-23 33 -23 42 0 15 45 143 69 197 14 29 57 169 79 255 40 152 98 467 88 477
-9 10 -202 -15 -346 -43 -139 -28 -372 -92 -465 -128 -33 -13 -82 -27 -107
-31 -44 -7 -50 -5 -78 24 l-31 31 7 317 c7 341 9 356 59 369 16 4 49 -3 93
-21 37 -15 76 -31 87 -35 192 -77 397 -129 672 -170 108 -16 114 -13 107 47
-36 295 -137 703 -209 843 -20 38 -19 52 6 84 l20 26 323 0 323 0 36 -32z"/>
<path d="M82 10450 c0 -19 2 -27 5 -17 2 9 2 25 0 35 -3 9 -5 1 -5 -18z"/>
<path d="M98 10233 c5 -76 10 -83 11 -15 0 34 -2 62 -7 62 -4 0 -6 -21 -4 -47z"/>
<path d="M125 10000 c2 -47 9 -123 15 -170 6 -47 15 -119 20 -160 10 -103 29
-230 45 -320 8 -41 17 -102 21 -135 4 -33 10 -69 15 -80 16 -41 9 39 -22 240
-53 344 -59 387 -69 512 -13 156 -31 239 -25 113z"/>
<path d="M9557 9181 c-3 -11 2 -29 9 -40 12 -17 12 -25 0 -58 -8 -21 -22 -72
-31 -113 -10 -41 -24 -88 -32 -103 -10 -19 -13 -41 -8 -70 6 -35 5 -40 -6 -29
-14 13 -25 -29 -45 -167 -4 -24 -15 -52 -25 -62 -13 -13 -16 -27 -12 -54 4
-23 0 -48 -10 -68 -15 -32 -24 -64 -53 -187 -9 -36 -22 -90 -31 -120 -8 -30
-19 -73 -24 -95 -6 -22 -14 -44 -20 -50 -5 -5 -9 -23 -9 -40 0 -16 -9 -55 -20
-84 -11 -30 -17 -58 -14 -63 11 -17 -8 -67 -28 -74 -16 -5 -19 -12 -14 -38 4
-20 0 -47 -9 -69 -16 -39 -20 -77 -7 -77 14 1 41 75 47 132 4 34 13 59 21 62
8 3 13 20 13 43 -1 55 31 174 60 223 30 50 54 126 56 174 1 33 8 63 17 73 8
10 23 65 32 123 10 58 28 130 41 160 13 30 29 87 36 125 7 39 16 75 21 81 9
12 18 49 68 287 26 123 28 140 15 154 -8 8 -15 21 -15 29 0 21 -17 17 -23 -5z"/>
<path d="M259 9065 c-3 -6 0 -32 6 -60 12 -46 13 -47 13 -15 0 43 -12 89 -19
75z"/>
<path d="M286 8895 c3 -27 12 -86 21 -130 33 -171 30 -163 32 -131 0 16 -3 45
-8 65 -5 20 -15 74 -22 121 -13 96 -31 153 -23 75z"/>
<path d="M351 8549 c-2 -18 32 -176 40 -189 8 -11 9 -7 5 15 -4 17 -10 53 -15
80 -9 46 -29 109 -30 94z"/>
<path d="M404 8289 c6 -24 21 -87 36 -162 4 -21 10 -41 14 -44 9 -10 7 37 -3
71 -6 17 -15 57 -22 89 -7 32 -17 61 -22 64 -6 4 -8 -3 -3 -18z"/>
<path d="M9140 7488 c0 -6 -9 -21 -20 -33 -12 -13 -18 -29 -14 -38 10 -26 24
-20 31 13 3 17 10 33 14 36 12 7 11 34 -1 34 -5 0 -10 -5 -10 -12z"/>
<path d="M9042 7240 c-8 -16 -12 -38 -9 -47 3 -14 8 -10 18 15 7 17 17 32 21
32 4 0 5 7 2 15 -9 22 -18 18 -32 -15z"/>
<path d="M9057 7153 c-4 -3 -7 -11 -7 -17 0 -6 5 -5 12 2 6 6 9 14 7 17 -3 3
-9 2 -12 -2z"/>
<path d="M9000 7064 c0 -14 3 -14 15 -4 8 7 15 14 15 16 0 2 -7 4 -15 4 -8 0
-15 -7 -15 -16z"/>
<path d="M8968 7017 c-6 -16 1 -37 13 -37 12 0 12 37 0 44 -5 3 -11 0 -13 -7z"/>
<path d="M8955 6929 c-6 -19 0 -38 9 -28 10 12 16 49 7 49 -5 0 -13 -9 -16
-21z"/>
<path d="M8930 6854 c0 -8 5 -12 10 -9 6 3 10 10 10 16 0 5 -4 9 -10 9 -5 0
-10 -7 -10 -16z"/>
<path d="M8890 6780 c0 -16 5 -30 10 -30 6 0 10 14 10 30 0 17 -4 30 -10 30
-5 0 -10 -13 -10 -30z"/>
<path d="M8825 6649 c-11 -17 1 -21 15 -4 8 9 8 15 2 15 -6 0 -14 -5 -17 -11z"/>
<path d="M8807 6543 c-4 -3 -7 -15 -7 -26 0 -16 3 -17 15 -7 8 7 15 19 15 26
0 15 -12 19 -23 7z"/>
<path d="M8746 6423 c-12 -12 -6 -43 9 -43 8 0 15 9 15 19 0 21 -13 34 -24 24z"/>
<path d="M8701 6248 c0 -10 -5 -18 -11 -18 -5 0 -10 -8 -10 -17 0 -16 1 -16
16 -1 9 8 14 24 11 34 -4 17 -5 17 -6 2z"/>
<path d="M8600 6040 c0 -16 -4 -30 -10 -30 -5 0 -10 -9 -10 -20 0 -11 -4 -20
-9 -20 -9 0 -26 -38 -37 -82 -11 -48 11 -30 31 25 10 28 29 69 42 89 27 43 30
68 8 68 -10 0 -15 -10 -15 -30z"/>
<path d="M8477 5769 c-34 -67 -50 -126 -28 -103 23 22 82 157 73 166 -5 5 -23
-19 -45 -63z"/>
<path d="M8404 5633 c-3 -10 -13 -35 -23 -55 -18 -35 -18 -53 0 -42 9 5 49 91
49 105 0 16 -21 9 -26 -8z"/>
<path d="M8347 5482 c-4 -19 -13 -32 -22 -32 -8 0 -15 -4 -15 -10 0 -5 6 -10
14 -10 15 0 40 52 34 72 -3 7 -7 -2 -11 -20z"/>
<path d="M8297 5394 c-4 -4 -7 -14 -7 -23 0 -11 3 -12 11 -4 6 6 10 16 7 23
-2 6 -7 8 -11 4z"/>
<path d="M8255 5307 c-4 -10 -5 -21 -1 -24 10 -10 18 4 13 24 -4 17 -4 17 -12
0z"/>
<path d="M8170 5129 c-16 -36 -40 -82 -50 -99 -31 -48 -49 -90 -40 -90 5 0 17
15 25 33 9 17 31 63 51 101 19 38 33 71 30 74 -3 2 -10 -6 -16 -19z"/>
<path d="M8051 4912 c-14 -26 -14 -42 -1 -42 11 0 25 48 17 56 -3 3 -10 -3
-16 -14z"/>
<path d="M8025 4849 c-4 -6 -5 -12 -2 -15 2 -3 7 2 10 11 7 17 1 20 -8 4z"/>
<path d="M7966 4734 c-10 -14 -16 -28 -13 -30 2 -3 12 7 21 22 10 14 16 28 13
30 -2 3 -12 -7 -21 -22z"/>
<path d="M7917 4654 c-4 -4 -7 -14 -7 -23 0 -11 3 -12 11 -4 6 6 10 16 7 23
-2 6 -7 8 -11 4z"/>
<path d="M7877 4594 c-4 -4 -7 -14 -7 -23 0 -11 3 -12 11 -4 6 6 10 16 7 23
-2 6 -7 8 -11 4z"/>
<path d="M7834 4507 c-10 -17 -22 -40 -27 -51 -14 -34 19 1 38 40 22 46 15 53
-11 11z"/>
<path d="M7762 4389 c-7 -11 -11 -23 -9 -25 7 -7 29 24 25 36 -2 6 -9 1 -16
-11z"/>
<path d="M7592 4110 c-18 -29 -15 -38 4 -12 9 13 14 25 12 27 -2 2 -9 -5 -16
-15z"/>
<path d="M7445 3880 c-3 -5 -1 -10 4 -10 6 0 11 5 11 10 0 6 -2 10 -4 10 -3 0
-8 -4 -11 -10z"/>
<path d="M6311 2429 c-56 -70 -60 -97 -5 -34 47 55 68 85 61 91 -3 3 -28 -23
-56 -57z"/>
<path d="M6176 2280 c-21 -22 -37 -42 -34 -45 5 -6 78 65 78 76 0 14 -2 12
-44 -31z"/>
<path d="M6066 2165 c-27 -30 -58 -57 -68 -61 -10 -3 -18 -9 -18 -14 0 -10
-225 -235 -304 -304 -33 -28 -87 -78 -120 -111 -34 -33 -77 -72 -96 -87 -19
-14 -60 -49 -90 -77 -30 -28 -83 -70 -117 -93 -35 -24 -63 -50 -63 -59 0 -9
-10 -21 -22 -27 -45 -24 -98 -58 -134 -87 -35 -29 -54 -41 -175 -112 -73 -42
-101 -64 -95 -70 9 -9 166 74 231 123 33 24 83 60 112 79 29 19 60 42 70 52
10 10 39 34 63 53 58 45 168 136 200 166 14 13 52 49 85 79 33 31 80 73 105
93 63 51 500 493 500 506 0 16 -20 2 -64 -49z"/>
<path d="M5770 1945 c-7 -9 -10 -18 -7 -22 8 -7 37 15 37 28 0 14 -16 11 -30
-6z"/>
<path d="M5720 1890 c-8 -5 -12 -12 -9 -15 4 -3 12 1 19 10 14 17 11 19 -10 5z"/>
<path d="M5680 1849 c0 -5 5 -7 10 -4 6 3 10 8 10 11 0 2 -4 4 -10 4 -5 0 -10
-5 -10 -11z"/>
<path d="M5565 1740 c-10 -11 -13 -20 -8 -20 13 0 38 29 31 35 -3 3 -13 -4
-23 -15z"/>
<path d="M5489 1663 c-13 -16 -12 -17 4 -4 9 7 17 15 17 17 0 8 -8 3 -21 -13z"/>
<path d="M5340 1535 c-11 -13 -10 -14 4 -9 9 3 16 10 16 15 0 13 -6 11 -20 -6z"/>
<path d="M4195 1490 c3 -5 11 -10 16 -10 6 0 7 5 4 10 -3 6 -11 10 -16 10 -6
0 -7 -4 -4 -10z"/>
<path d="M4490 1225 c7 -9 15 -13 17 -11 7 7 -7 26 -19 26 -6 0 -6 -6 2 -15z"/>
</g>
</svg>
