<?xml version="1.0" standalone="no"?>
<!DOCTYPE svg PUBLIC "-//W3C//DTD SVG 20010904//EN"
 "http://www.w3.org/TR/2001/REC-SVG-20010904/DTD/svg10.dtd">
<svg version="1.0" xmlns="http://www.w3.org/2000/svg"
 width="1000.000000pt" height="929.000000pt" viewBox="0 0 1000.000000 929.000000"
 preserveAspectRatio="xMidYMid meet">
<metadata>
Created by potrace 1.16, written by Peter Selinger 2001-2019
</metadata>
<g transform="translate(0.000000,929.000000) scale(0.100000,-0.100000)"
fill="#000000" stroke="none">
<path d="M0 4645 l0 -4645 5000 0 5000 0 0 4645 0 4645 -5000 0 -5000 0 0
-4645z m7777 958 c-3 -2059 -7 -2764 -15 -2813 -81 -441 -230 -690 -513 -856
-153 -91 -716 -369 -1169 -579 -74 -34 -164 -76 -200 -93 -151 -70 -342 -156
-598 -271 l-273 -123 -117 52 c-199 89 -402 180 -532 240 -69 31 -177 81 -240
110 -514 235 -1145 544 -1335 653 -302 174 -459 435 -531 884 -17 101 -18 296
-21 2826 l-4 2717 2776 0 2775 0 -3 -2747z"/>
<path d="M2540 6310 l0 -1740 225 0 c124 0 225 4 225 9 0 4 -11 63 -25 131
-108 530 -163 1117 -136 1440 56 655 289 999 866 1276 233 112 696 286 713
269 13 -12 14 -217 2 -279 -26 -133 -91 -248 -224 -394 -102 -113 -136 -182
-136 -279 0 -87 24 -147 82 -205 137 -137 362 -131 493 13 82 91 135 260 138
434 l2 110 -52 -2 c-58 -3 -104 -22 -126 -53 -7 -11 -17 -17 -20 -13 -12 11
-7 103 7 136 18 44 74 91 132 112 27 9 69 27 94 38 68 33 211 30 300 -6 77
-32 154 -89 183 -136 l21 -33 -22 6 c-24 8 -27 3 -12 -23 5 -10 18 -42 30 -71
l21 -53 -21 6 c-23 6 -26 -8 -9 -50 6 -15 19 -56 29 -89 10 -34 21 -72 25 -84
6 -19 5 -21 -13 -11 -32 17 -32 15 -13 -42 46 -132 116 -218 212 -262 135 -60
297 -17 383 103 44 60 59 115 54 195 -5 88 -42 158 -139 264 -126 137 -184
236 -214 367 -16 66 -20 272 -6 294 12 19 52 7 320 -95 660 -251 951 -468
1121 -836 105 -229 145 -464 144 -842 -1 -323 -48 -740 -130 -1156 -18 -96
-34 -178 -34 -182 0 -4 101 -7 225 -7 l225 0 -2 1738 -3 1737 -2467 3 -2468 2
0 -1740z m2579 1397 c30 -78 55 -143 56 -145 2 -2 44 27 94 64 51 36 94 65 96
62 2 -2 -33 -81 -79 -175 l-84 -170 -73 25 c-57 19 -102 26 -196 30 l-123 5
-10 36 c-25 95 -70 292 -70 308 1 19 7 13 111 -104 l47 -53 83 130 c46 72 86
130 89 130 3 0 29 -64 59 -143z"/>
<path d="M4920 7245 l-45 -12 26 -13 c30 -14 69 0 69 25 0 8 -1 14 -2 14 -2
-1 -23 -7 -48 -14z"/>
<path d="M3415 6590 c5 -8 20 -33 34 -55 59 -95 176 -319 231 -440 211 -472
223 -828 35 -1080 -27 -37 -36 -43 -31 -25 33 134 27 257 -19 448 -30 122 -43
162 -116 345 -56 141 -254 552 -270 562 -4 3 17 -59 47 -137 160 -414 235
-768 221 -1042 -9 -169 -41 -283 -110 -386 -32 -49 -136 -160 -149 -160 -5 0
1 18 12 40 80 157 71 430 -29 820 -40 157 -176 574 -166 510 3 -19 15 -87 26
-150 58 -340 88 -730 70 -933 -11 -122 -32 -231 -60 -300 -6 -16 -11 -30 -11
-33 0 -2 59 -4 130 -4 l130 0 0 -53 c0 -54 34 -141 65 -167 13 -11 15 -3 15
53 0 36 5 69 10 72 6 3 10 2 10 -4 0 -6 10 -36 22 -68 l21 -58 13 61 c12 61
45 137 64 149 6 4 10 -7 10 -27 0 -18 5 -51 11 -72 l11 -39 23 58 c13 32 29
63 34 68 6 6 11 14 11 19 0 4 -69 9 -152 10 l-153 3 45 24 c25 13 50 30 55 38
6 8 42 23 79 33 38 11 73 26 80 34 7 8 39 16 85 19 l75 6 109 108 c466 463
650 781 608 1054 -12 74 -62 195 -99 239 -16 19 -13 5 15 -60 70 -163 55 -307
-37 -355 l-25 -13 0 77 c0 69 -4 83 -41 158 -37 72 -112 180 -174 253 l-22 25
20 -35 c11 -19 31 -56 46 -81 35 -61 61 -139 76 -228 19 -114 -9 -224 -75
-293 -14 -16 -27 -28 -29 -28 -2 0 0 17 4 37 28 123 -117 408 -315 619 l-46
49 45 -60 c162 -218 242 -468 206 -647 -13 -66 -60 -180 -79 -192 -7 -5 -11 6
-11 34 0 157 -124 480 -296 771 -74 126 -258 405 -282 429 -13 13 -14 13 -7 0z"/>
<path d="M6577 6564 c-10 -13 -55 -79 -101 -146 -272 -402 -454 -808 -456
-1018 l-1 -55 -24 29 c-70 87 -93 314 -46 466 35 111 116 264 198 370 l35 45
-49 -51 c-114 -119 -257 -338 -292 -448 -25 -77 -30 -118 -21 -167 9 -48 -1
-49 -34 -6 -53 69 -71 125 -70 222 0 123 36 229 131 383 10 17 3 12 -18 -12
-70 -80 -120 -153 -161 -235 -40 -77 -43 -90 -43 -161 0 -85 -5 -89 -54 -46
-71 63 -68 223 5 368 37 73 28 70 -21 -6 -59 -91 -86 -165 -92 -257 -18 -252
160 -540 604 -982 l129 -128 75 -6 c46 -3 78 -11 85 -19 7 -8 42 -23 80 -34
37 -10 73 -25 79 -33 5 -8 34 -26 62 -41 49 -24 62 -26 183 -26 71 0 130 1
130 3 0 1 -9 26 -20 54 -26 70 -48 210 -56 358 -10 193 26 590 80 886 14 73
23 135 21 137 -2 2 -33 -86 -68 -195 -181 -548 -225 -899 -142 -1119 14 -37
24 -69 22 -71 -2 -2 -34 28 -71 67 -74 79 -133 185 -162 295 -16 58 -19 105
-19 270 1 179 4 213 28 327 35 167 113 422 187 616 33 86 58 157 56 159 -8 8
-231 -461 -291 -610 -108 -271 -157 -509 -136 -657 6 -41 14 -86 17 -100 11
-40 -52 42 -91 120 -157 313 -57 778 294 1369 60 101 75 134 38 85z"/>
<path d="M5390 5124 c135 -115 217 -206 277 -309 l28 -48 80 2 c71 2 78 0 60
-12 -36 -25 -226 -129 -230 -125 -1 1 -14 26 -28 53 -35 71 -109 166 -162 209
-51 42 -54 41 -22 -12 49 -77 93 -201 99 -280 2 -31 4 -32 45 -32 29 0 64 11
104 31 80 40 285 109 327 109 17 0 32 4 32 8 0 4 -15 23 -34 41 l-35 34 -104
-7 -104 -7 -39 67 c-44 75 -174 205 -275 273 l-64 43 45 -38z"/>
<path d="M4570 5089 c-118 -91 -240 -226 -263 -292 -6 -17 -16 -18 -113 -11
l-105 7 -35 -34 c-32 -31 -44 -52 -26 -47 30 8 212 -49 331 -103 57 -26 98
-39 127 -39 43 0 44 1 44 33 0 55 28 143 72 229 24 46 45 87 47 93 2 5 -19
-10 -48 -34 -55 -46 -124 -136 -161 -211 -12 -25 -24 -47 -26 -48 -3 -4 -191
99 -229 125 -18 12 -10 14 59 12 75 -2 81 -1 94 22 63 103 121 175 206 255 55
52 97 94 95 93 -2 0 -33 -23 -69 -50z"/>
<path d="M4903 5088 c-44 -57 -132 -253 -176 -393 -45 -141 -46 -127 15 -123
51 3 53 4 56 33 7 73 55 292 86 389 19 58 32 106 31 106 -1 0 -7 -6 -12 -12z"/>
<path d="M5135 4997 c36 -110 71 -269 82 -367 l6 -60 52 0 53 0 -10 43 c-29
131 -171 459 -208 482 -4 3 7 -41 25 -98z"/>
<path d="M3900 4624 c-8 -1 -41 -6 -72 -9 -34 -4 -67 -14 -80 -25 -23 -19 -19
-19 292 -19 l315 1 -75 18 c-118 30 -317 48 -380 34z"/>
<path d="M5897 4619 c-38 -4 -105 -16 -149 -26 l-81 -18 314 -5 314 -5 27 -55
c15 -30 30 -64 34 -75 5 -15 11 -1 24 50 l16 70 22 -35 c21 -32 27 -50 47
-135 l8 -30 18 40 c10 22 19 48 19 57 0 9 4 19 9 23 13 7 24 -54 19 -104 -4
-47 3 -44 36 12 31 52 50 128 42 162 l-6 25 -156 0 c-138 0 -158 2 -182 20
-47 34 -220 47 -375 29z"/>
<path d="M2540 3700 l0 -570 136 0 c120 0 135 2 130 16 -3 9 -6 108 -6 220 l0
204 -25 0 c-22 0 -25 4 -25 38 0 28 -7 45 -25 62 l-26 24 26 23 c17 17 25 34
25 58 0 30 3 35 24 35 l25 0 3 218 c2 119 1 223 -1 230 -2 9 -37 12 -132 12
l-129 0 0 -570z"/>
<path d="M2940 4041 l0 -230 28 -3 c23 -3 27 -7 24 -32 -3 -20 4 -36 24 -57
l28 -29 -28 -29 c-15 -16 -28 -32 -27 -35 6 -39 -1 -56 -24 -56 l-25 0 0 -220
0 -220 2070 0 2070 0 0 220 0 220 -30 0 c-28 0 -30 3 -30 37 0 24 -8 45 -22
60 l-21 23 22 24 c15 16 23 37 23 60 0 30 3 35 27 38 l26 3 0 225 0 225 -2067
3 -2068 2 0 -229z m885 108 c62 -17 101 -53 137 -126 31 -63 33 -74 33 -168
-1 -106 -12 -145 -60 -215 -45 -65 -72 -74 -240 -80 l-150 -5 -3 -142 -3 -143
-167 0 -167 0 3 445 2 445 288 0 c176 0 302 -4 327 -11z m1073 -118 c2 -117 1
-128 -23 -177 -33 -67 -59 -89 -198 -166 -140 -78 -199 -134 -216 -206 -11
-46 -11 -56 6 -89 10 -21 33 -47 50 -59 32 -21 119 -41 131 -30 3 4 -6 19 -20
34 -39 41 -48 65 -48 124 0 115 87 187 233 191 l72 2 3 -192 2 -193 -127 0
c-380 -1 -628 1 -632 6 -4 3 -6 51 -6 107 1 187 39 245 247 384 71 48 142 102
158 121 67 82 57 185 -22 216 -37 15 -138 22 -138 10 0 -3 11 -19 25 -35 44
-53 46 -151 5 -209 -34 -47 -93 -73 -182 -78 l-78 -5 0 187 0 186 378 -2 377
-3 3 -124z m775 118 c171 -47 233 -362 102 -517 -52 -62 -87 -72 -245 -72
l-140 0 0 -145 0 -145 -170 0 -170 0 0 438 c0 241 3 442 7 445 11 11 574 8
616 -4z m641 5 c14 -5 16 -30 17 -163 l1 -156 14 78 c35 195 142 279 299 236
79 -22 128 -77 155 -178 13 -47 18 -687 5 -699 -9 -10 -209 -15 -272 -7 l-52
6 -3 239 c-3 218 -5 240 -22 259 -13 14 -31 21 -57 21 -66 0 -69 -10 -69 -281
l0 -236 -37 -7 c-49 -8 -193 -8 -260 0 l-53 7 0 438 c0 408 1 438 18 442 26 7
298 8 316 1z"/>
<path d="M3498 4106 c-46 -34 -35 -119 16 -132 l26 -6 0 -179 c0 -175 0 -179
21 -179 35 0 86 60 104 125 22 74 16 228 -10 293 -31 77 -108 115 -157 78z"/>
<path d="M5335 4095 c-14 -13 -25 -35 -25 -48 0 -31 36 -77 61 -77 18 0 19 -9
19 -180 0 -169 1 -180 19 -180 31 0 67 36 92 92 21 46 24 68 24 163 -1 94 -4
118 -24 163 -13 29 -35 62 -49 72 -35 28 -87 26 -117 -5z"/>
<path d="M7215 4258 c-3 -8 -4 -110 -3 -228 l3 -215 28 -3 c23 -3 27 -8 27
-37 0 -24 8 -41 25 -58 l26 -23 -26 -24 c-18 -17 -25 -34 -25 -61 0 -34 -3
-38 -27 -41 l-28 -3 -3 -217 -2 -218 135 0 135 0 -2 568 -3 567 -128 3 c-98 2
-129 0 -132 -10z"/>
<path d="M3418 2819 c-6 -4 9 -26 35 -51 55 -52 249 -157 607 -328 140 -67
256 -123 258 -125 2 -1 -4 -30 -12 -63 -9 -33 -16 -81 -16 -107 0 -43 -1 -46
-22 -40 -53 16 -647 304 -797 386 -112 62 -222 163 -279 259 l-39 65 -293 3
-292 2 7 -47 c30 -198 135 -415 247 -506 92 -74 548 -306 1183 -602 313 -145
424 -196 815 -375 160 -73 181 -81 204 -74 12 4 143 62 291 129 149 68 286
129 305 138 19 8 78 35 130 60 52 24 185 86 295 137 299 138 1011 493 1080
538 173 114 268 282 319 565 l7 37 -295 0 -295 0 -22 -46 c-36 -70 -108 -154
-181 -209 -37 -27 -160 -98 -275 -156 -210 -108 -591 -291 -628 -303 -19 -5
-22 1 -33 82 -6 48 -15 97 -18 109 -6 20 3 27 87 65 52 23 232 111 401 195
225 113 320 166 357 199 28 25 51 50 51 55 0 10 -3166 18 -3182 8z m1782 -229
c181 -73 302 -210 345 -391 68 -290 -125 -591 -420 -655 -176 -38 -348 10
-487 136 -56 50 -76 78 -113 153 -84 171 -85 317 -4 485 64 133 164 222 308
276 84 32 107 35 212 30 66 -3 103 -10 159 -34z"/>
<path d="M4947 2503 c-9 -8 -9 -51 -1 -92 l7 -31 86 0 c126 0 189 -18 355 -98
5 -3 -5 15 -22 39 -59 86 -140 146 -232 173 -53 16 -181 22 -193 9z"/>
<path d="M4832 2475 c-30 -14 -67 -34 -83 -46 -27 -19 -29 -24 -29 -92 0 -94
22 -185 66 -272 61 -122 56 -120 124 -47 33 35 62 73 66 84 3 12 -5 43 -20 78
-28 61 -57 224 -51 284 4 43 -2 44 -73 11z"/>
<path d="M4621 2271 c-63 -128 -66 -248 -7 -377 l25 -53 53 22 c109 46 140 72
108 92 -20 13 -82 149 -101 223 -10 41 -19 97 -19 124 0 26 -4 48 -9 48 -6 0
-28 -36 -50 -79z"/>
<path d="M4957 2333 c-8 -13 16 -93 46 -153 22 -45 22 -45 85 -52 112 -12 206
-48 305 -116 32 -22 40 -23 48 -11 13 18 5 169 -10 197 -14 27 -117 84 -201
112 -73 24 -263 40 -273 23z"/>
<path d="M4991 2048 c-53 -76 -153 -162 -242 -206 l-79 -40 27 -29 c16 -16 47
-42 70 -57 39 -26 45 -27 80 -16 155 51 311 188 368 323 l15 36 -38 11 c-20 5
-55 13 -77 16 -22 3 -51 7 -65 9 -21 3 -31 -6 -59 -47z"/>
<path d="M5257 2018 c-8 -13 -29 -49 -48 -81 -45 -78 -168 -193 -252 -237 -37
-19 -67 -38 -67 -42 0 -11 109 -21 173 -15 126 11 270 113 336 237 l32 59 -43
32 c-24 17 -60 39 -80 50 l-37 19 -14 -22z"/>
</g>
</svg>
