<?xml version="1.0" standalone="no"?>
<!DOCTYPE svg PUBLIC "-//W3C//DTD SVG 20010904//EN"
 "http://www.w3.org/TR/2001/REC-SVG-20010904/DTD/svg10.dtd">
<svg version="1.0" xmlns="http://www.w3.org/2000/svg"
 width="1000.000000pt" height="929.000000pt" viewBox="0 0 1000.000000 929.000000"
 preserveAspectRatio="xMidYMid meet">
<metadata>
Created by potrace 1.16, written by Peter Selinger 2001-2019
</metadata>
<g transform="translate(0.000000,929.000000) scale(0.100000,-0.100000)"
fill="#000000" stroke="none">
<path d="M0 4645 l0 -4645 5000 0 5000 0 0 4645 0 4645 -5000 0 -5000 0 0
-4645z m7777 958 c-3 -2059 -7 -2764 -15 -2813 -81 -441 -230 -690 -513 -856
-153 -91 -716 -369 -1169 -579 -74 -34 -164 -76 -200 -93 -151 -70 -342 -156
-598 -271 l-273 -123 -117 52 c-515 229 -1063 482 -1427 658 -252 122 -589
292 -680 345 -302 174 -459 435 -531 884 -17 101 -18 296 -21 2826 l-4 2717
2776 0 2775 0 -3 -2747z"/>
<path d="M2540 6311 l0 -1739 93 -6 c177 -10 4687 -17 4687 -6 0 6 33 10 80
10 l80 0 -2 1738 -3 1737 -2467 3 -2468 2 0 -1739z m2780 1460 c0 -19 -47 -61
-68 -61 -5 0 -20 -10 -34 -22 -14 -13 -47 -41 -73 -63 -73 -60 -94 -87 -101
-122 -3 -18 -11 -33 -17 -33 -6 0 1 -13 16 -28 15 -15 27 -36 27 -47 0 -17 -1
-17 -19 -1 -22 20 -41 14 -41 -14 0 -10 -3 -25 -6 -34 -12 -32 -23 -15 -26 42
-3 54 -4 57 -30 60 -28 3 -28 3 -28 -58 0 -38 -4 -59 -10 -55 -5 3 -10 22 -10
41 0 35 -15 45 -37 23 -6 -6 -17 -9 -24 -7 -9 3 -4 12 15 29 23 20 26 29 21
59 -3 19 -12 40 -18 45 -7 6 -17 19 -23 30 -6 11 -20 25 -31 30 -12 6 -27 16
-34 22 -18 14 -77 48 -154 88 -61 32 -77 58 -38 63 20 3 163 -59 190 -83 88
-77 113 -102 113 -112 0 -7 4 -13 9 -13 6 0 11 -17 13 -37 l3 -38 51 -3 51 -3
6 41 c3 24 17 55 36 78 72 86 107 122 118 122 7 0 13 5 13 10 0 6 7 10 15 10
8 0 15 4 15 10 0 12 67 47 93 49 11 1 17 -6 17 -18z m-967 -116 l37 -34 0
-155 c0 -97 -4 -156 -10 -156 -5 0 -10 -13 -10 -30 0 -16 5 -30 10 -30 6 0 10
-10 10 -22 0 -11 12 -61 27 -110 30 -101 51 -124 170 -184 72 -36 113 -37 113
-3 0 10 -4 19 -9 19 -5 0 -12 8 -15 18 -3 9 -19 23 -35 30 -23 10 -31 22 -36
53 -8 48 2 149 16 149 5 0 9 6 9 14 0 8 6 21 13 28 6 7 23 35 37 62 14 26 35
52 48 57 13 5 30 16 38 24 21 20 24 20 66 -18 39 -35 41 -44 39 -193 -1 -65
-3 -69 -78 -146 -25 -27 -44 -38 -64 -38 -37 0 -37 -17 -1 -31 21 -9 37 -7 72
6 25 9 74 19 110 22 71 6 218 -11 234 -27 14 -14 35 -12 52 4 19 20 18 23 -14
29 -54 11 -123 98 -138 175 -4 18 -11 35 -15 38 -12 7 -11 51 0 59 5 3 13 19
16 36 11 48 52 89 90 89 24 0 44 -11 82 -48 28 -27 54 -59 58 -73 4 -13 14
-31 22 -41 8 -9 17 -47 20 -90 5 -69 4 -75 -21 -101 -14 -15 -26 -32 -26 -38
0 -5 -5 -9 -11 -9 -12 0 -49 -38 -49 -49 0 -3 13 -12 28 -19 33 -14 58 -7 148
39 77 39 81 44 95 105 7 30 16 54 20 54 4 0 11 20 15 45 3 25 10 45 14 45 16
0 23 79 21 227 -2 124 0 157 14 186 21 45 63 76 76 56 13 -21 11 -34 -11 -59
-19 -22 -20 -37 -20 -236 0 -117 -4 -215 -9 -218 -5 -3 -12 -26 -16 -51 -8
-59 -28 -106 -54 -127 -12 -10 -21 -27 -21 -38 0 -11 -4 -20 -8 -20 -4 0 -12
-12 -18 -27 -7 -19 -32 -40 -72 -63 -55 -31 -73 -55 -56 -73 3 -3 37 16 75 43
37 27 84 56 104 64 20 9 68 38 109 66 40 27 76 50 81 50 4 0 42 21 84 46 101
60 101 61 136 77 17 8 55 27 85 42 125 64 150 75 166 75 9 0 28 8 42 18 47 33
145 84 197 102 100 36 220 80 240 89 29 13 99 28 192 41 94 12 167 0 195 -34
10 -12 23 -28 30 -36 18 -20 18 -202 1 -207 -7 -3 -15 -20 -19 -39 -3 -19 -10
-34 -14 -34 -4 0 -13 -13 -20 -30 -7 -16 -16 -30 -21 -30 -5 0 -9 -6 -9 -14 0
-8 -17 -32 -37 -55 -21 -22 -60 -65 -88 -97 -88 -100 -126 -133 -187 -161 -44
-20 -55 -29 -43 -35 8 -5 15 -15 15 -23 0 -7 7 -20 15 -28 8 -8 20 -35 27 -60
9 -37 9 -54 -2 -89 -8 -24 -17 -45 -20 -48 -3 -3 -11 -17 -19 -32 -18 -35
-124 -87 -204 -99 -108 -16 -262 -2 -512 46 -38 8 -86 14 -105 14 -42 1 -140
25 -184 46 -17 8 -60 21 -96 30 -36 8 -96 24 -135 35 -38 11 -73 20 -76 20 -4
0 -11 -18 -17 -41 -12 -48 -16 -46 103 -51 50 -3 99 -9 110 -16 11 -6 38 -16
60 -22 22 -5 59 -24 83 -41 33 -24 42 -37 42 -60 0 -18 5 -29 14 -29 22 0 59
-41 86 -95 14 -27 28 -52 31 -55 4 -3 12 -24 19 -47 7 -24 17 -43 22 -43 4 0
8 -18 8 -40 0 -22 -4 -40 -10 -40 -5 0 -10 -11 -10 -25 0 -14 5 -25 10 -25 6
0 10 -13 10 -30 0 -16 -4 -30 -10 -30 -5 0 -10 14 -10 30 0 17 -4 30 -10 30
-5 0 -10 7 -10 16 0 14 -3 14 -16 3 -10 -8 -13 -21 -9 -36 4 -16 1 -23 -9 -23
-10 0 -17 17 -22 57 -4 32 -13 64 -21 71 -8 8 -17 27 -20 43 -3 16 -9 29 -14
29 -4 0 -14 18 -20 40 -7 22 -16 40 -20 40 -5 0 -15 12 -23 28 -19 36 -57 76
-81 86 -11 4 -53 11 -94 16 -40 6 -79 14 -85 18 -6 5 -40 14 -76 21 -36 7 -73
14 -82 16 -10 2 -18 0 -18 -4 0 -7 36 -26 102 -56 20 -9 49 -28 63 -41 14 -13
30 -24 34 -24 4 0 18 -11 30 -24 13 -14 35 -29 50 -36 15 -6 39 -29 52 -50 13
-22 27 -40 32 -40 4 0 7 -20 7 -44 0 -36 4 -46 21 -51 11 -4 25 -18 31 -31 6
-13 15 -24 21 -24 5 0 6 -24 2 -60 -6 -51 -5 -60 9 -60 12 0 16 -10 16 -40 0
-29 -4 -40 -15 -40 -8 0 -15 -5 -15 -11 0 -5 -4 -7 -10 -4 -5 3 -9 45 -8 94 1
48 -2 93 -6 99 -11 18 -39 15 -32 -3 3 -8 0 -15 -5 -15 -6 0 -9 -9 -6 -20 5
-19 4 -20 -24 -3 -33 20 -33 40 1 35 15 -3 21 1 18 10 -3 7 -10 13 -16 12 -7
-1 -21 -2 -31 -2 -17 -2 -21 -11 -24 -54 l-3 -53 -2 58 c-1 38 -6 57 -14 57
-7 0 -5 5 5 11 23 14 21 26 -5 35 -13 4 -51 26 -84 50 -68 48 -74 51 -74 29 0
-8 4 -15 8 -15 23 0 54 -369 33 -394 -6 -7 -13 -49 -17 -94 -4 -45 -11 -82
-15 -82 -5 0 -9 -11 -9 -25 0 -34 -22 -115 -32 -115 -4 0 -8 -8 -8 -18 0 -10
-7 -27 -15 -38 -8 -10 -15 -27 -15 -36 0 -9 -6 -23 -14 -30 -7 -8 -16 -23 -20
-35 -4 -11 -15 -31 -26 -44 -31 -37 -33 -42 -60 -92 -14 -26 -36 -55 -50 -64
-14 -8 -32 -23 -40 -33 -18 -21 -102 -50 -146 -50 -38 0 -74 18 -110 53 -15
15 -30 27 -34 27 -4 0 -20 19 -36 43 -16 23 -38 51 -50 63 -11 11 -34 42 -50
70 -15 27 -34 55 -41 62 -7 7 -13 20 -13 28 0 8 -4 14 -8 14 -4 0 -14 17 -21
38 -8 20 -17 39 -20 42 -14 11 -40 141 -47 233 -4 54 -11 100 -15 103 -12 7
-11 220 1 242 9 16 31 144 25 150 -5 6 -101 -21 -147 -41 -27 -11 -51 -17 -55
-14 -16 17 76 67 124 67 20 0 87 40 108 65 46 53 55 66 55 74 0 4 9 18 20 31
11 13 20 29 20 36 0 7 6 14 13 17 6 2 10 7 7 10 -5 6 -92 -21 -100 -32 -3 -3
-32 -19 -65 -36 -33 -16 -62 -33 -65 -36 -3 -3 -24 -14 -47 -24 -24 -11 -43
-22 -43 -27 0 -4 -9 -16 -21 -27 -15 -13 -21 -33 -23 -72 -2 -29 -8 -55 -15
-57 -13 -4 -51 -83 -51 -106 0 -9 -4 -16 -8 -16 -5 0 -14 -29 -21 -65 -7 -36
-17 -68 -22 -71 -15 -9 -10 -94 5 -110 20 -19 45 -18 52 4 3 9 10 26 14 37 5
11 12 58 16 105 3 46 10 91 15 100 5 8 13 34 19 56 6 23 17 45 26 48 13 5 15
0 9 -36 -4 -24 -12 -46 -17 -49 -5 -3 -14 -48 -20 -100 -5 -52 -15 -105 -22
-118 -15 -32 -13 -279 2 -308 7 -13 12 -68 12 -134 l0 -112 -32 -29 c-32 -29
-45 -32 -72 -22 -17 7 -22 39 -7 48 36 23 64 151 42 194 -5 9 -14 71 -21 137
-8 81 -17 126 -27 137 -9 10 -18 39 -21 66 -5 57 14 194 29 203 6 3 15 25 20
48 5 23 21 61 35 83 15 23 28 60 30 81 1 22 7 43 12 46 5 3 12 16 16 28 4 12
28 35 54 51 85 54 173 102 190 106 67 12 103 28 100 44 -4 20 -8 20 -113 -3
-44 -10 -114 -23 -155 -30 -105 -18 -161 -36 -167 -54 -2 -9 -13 -34 -23 -56
-10 -22 -26 -60 -35 -85 -9 -25 -21 -53 -26 -62 -5 -10 -9 -25 -9 -33 0 -9 -9
-35 -20 -57 -11 -23 -20 -56 -20 -72 0 -17 -5 -88 -11 -158 -12 -124 -12 -127
-48 -167 -37 -42 -69 -52 -89 -28 -12 15 -4 31 20 40 9 3 19 21 23 39 4 18 11
38 15 43 4 6 10 96 13 200 5 192 20 278 54 313 7 7 16 24 19 38 3 13 9 24 13
24 4 0 12 15 19 33 9 24 23 38 53 51 23 10 44 27 46 37 7 24 72 68 108 73 17
2 81 16 143 32 102 26 112 30 112 51 0 13 -4 23 -10 23 -5 0 -10 7 -10 16 0
12 -7 14 -32 9 -40 -9 -215 -62 -243 -73 -66 -28 -163 -52 -250 -62 -55 -6
-113 -15 -130 -21 -53 -16 -247 -42 -350 -46 -89 -4 -106 -2 -155 20 -30 14
-72 40 -92 59 -38 34 -38 35 -38 111 0 42 4 77 8 77 4 0 14 16 21 35 7 19 17
35 23 35 6 0 -6 11 -26 25 -20 14 -39 25 -41 25 -28 0 -185 138 -185 162 0 5
-6 8 -12 8 -7 0 -24 18 -38 40 -13 22 -28 40 -32 40 -4 0 -8 6 -8 13 0 6 -11
25 -25 41 -14 17 -28 40 -31 53 -4 13 -10 23 -15 23 -4 0 -11 16 -15 35 -3 19
-10 38 -15 41 -5 3 -9 58 -9 123 0 168 23 215 117 241 47 14 120 7 168 -16 17
-7 56 -20 88 -28 31 -8 69 -22 85 -30 15 -8 72 -37 127 -64 55 -27 130 -67
166 -89 37 -22 81 -46 99 -54 38 -16 139 -67 250 -126 41 -22 120 -64 174 -92
55 -29 118 -65 140 -80 23 -16 77 -47 121 -70 44 -24 94 -53 112 -67 17 -13
39 -24 47 -24 27 0 18 27 -11 35 -62 15 -132 58 -143 88 -5 16 -7 34 -4 39 3
5 -8 22 -25 39 -17 16 -31 36 -31 44 0 8 -4 15 -10 15 -5 0 -15 27 -22 60 -6
33 -16 60 -20 60 -14 0 -8 86 8 119 14 27 16 58 12 179 -3 100 -8 147 -16 150
-13 4 -17 82 -4 82 4 0 24 -16 45 -35z m1756 -1795 c1 -53 -2 -70 -9 -59 -20
34 -74 89 -87 89 -25 0 -13 15 24 30 67 28 70 25 72 -60z m-582 -7 c-3 -10 -5
-4 -5 12 0 17 2 24 5 18 2 -7 2 -21 0 -30z m90 -57 c-6 -17 -31 -13 -35 6 -2
12 2 15 18 11 11 -3 19 -11 17 -17z m243 10 c0 -8 -4 -18 -10 -21 -5 -3 -10 3
-10 14 0 12 5 21 10 21 6 0 10 -6 10 -14z m60 -66 c0 -29 -4 -40 -15 -40 -10
0 -15 10 -15 33 0 19 3 37 7 40 15 16 23 5 23 -33z m-303 -87 c0 -77 4 -107
14 -114 10 -6 13 -36 12 -126 -1 -107 0 -112 7 -49 5 38 13 73 19 79 16 16 14
87 -1 87 -8 0 -7 4 2 10 9 5 17 25 18 46 4 54 13 66 36 49 14 -11 17 -21 12
-48 -4 -19 -13 -40 -21 -47 -8 -7 -15 -29 -15 -49 0 -20 -7 -76 -16 -126 -23
-129 -28 -205 -15 -205 6 0 11 -7 11 -15 0 -9 14 -29 30 -45 42 -41 39 -60 -7
-60 -51 1 -83 29 -90 80 -3 22 -10 40 -14 40 -12 0 -11 114 1 126 15 15 18
233 2 243 -9 5 -14 43 -17 123 -4 109 -4 116 13 111 17 -4 19 -16 19 -110z
m249 108 c-3 -4 -1 -21 4 -37 5 -16 14 -58 20 -94 8 -46 19 -71 36 -87 29 -27
36 -29 28 -8 -4 8 -9 15 -13 15 -11 0 -41 73 -41 98 0 28 17 29 25 2 3 -11 10
-20 14 -20 5 0 11 -18 15 -40 3 -23 13 -43 21 -46 19 -8 19 -53 0 -60 -18 -7
-68 31 -87 66 -7 14 -16 27 -19 30 -9 8 -31 169 -24 180 3 6 11 10 16 10 6 0
8 -4 5 -9z m172 -1 c8 0 12 -3 8 -7 -10 -10 -116 -11 -116 -1 0 10 32 17 64
12 16 -2 35 -4 44 -4z m-298 -100 c0 -5 -4 -10 -10 -10 -5 0 -10 5 -10 10 0 6
5 10 10 10 6 0 10 -4 10 -10z"/>
<path d="M4324 7633 c4 -10 10 -30 13 -45 3 -16 9 -28 14 -28 4 0 10 -21 12
-47 3 -45 3 -44 5 12 2 75 -4 98 -30 114 -19 12 -20 11 -14 -6z"/>
<path d="M5571 7528 c1 -55 5 -50 11 15 2 20 0 37 -4 37 -4 0 -7 -24 -7 -52z"/>
<path d="M2973 7488 c-24 -12 -43 -27 -43 -34 0 -7 -6 -14 -12 -16 -10 -4 -13
-39 -13 -134 0 -113 3 -135 23 -176 12 -26 22 -52 22 -58 0 -5 5 -10 10 -10 6
0 10 -6 10 -14 0 -8 16 -33 35 -56 19 -23 35 -46 35 -50 0 -8 47 -58 86 -91
10 -9 29 -30 42 -47 12 -16 46 -42 75 -56 29 -15 64 -34 79 -42 30 -16 55 -10
63 17 4 10 10 19 14 19 5 0 26 17 48 38 22 21 47 41 56 45 9 3 17 11 17 16 0
21 109 35 275 34 208 -2 287 -15 555 -93 41 -12 96 -26 122 -30 27 -5 68 -19
92 -30 25 -11 50 -20 56 -20 20 0 -15 27 -64 51 -26 12 -52 29 -59 38 -13 17
-44 37 -119 74 -25 13 -77 44 -115 70 -66 45 -166 100 -308 172 -38 19 -89 46
-111 59 -23 12 -50 26 -60 30 -11 3 -28 12 -40 19 -11 6 -37 18 -57 26 -20 8
-37 18 -37 23 0 4 -5 8 -10 8 -6 0 -29 12 -53 27 -65 42 -276 143 -337 162
-191 59 -214 61 -277 29z m252 -138 c-133 -6 -168 -11 -209 -29 -58 -26 -86
-23 -32 3 56 26 115 34 266 33 l135 0 -160 -7z m460 -179 c34 -9 27 -10 -40
-6 -44 3 -127 8 -185 12 -124 7 -219 -7 -298 -43 -69 -32 -90 -27 -25 6 90 45
125 50 323 45 102 -2 203 -9 225 -14z m330 -156 l50 -15 -55 5 c-187 16 -368
17 -458 1 -50 -9 -100 -16 -110 -15 -20 1 69 26 143 39 73 13 369 3 430 -15z
m-670 -66 c-43 -22 -86 -45 -94 -52 -11 -10 -13 -9 -9 3 5 17 142 90 167 89 9
0 -20 -18 -64 -40z"/>
<path d="M6720 7421 c-69 -21 -142 -46 -162 -55 -21 -9 -45 -16 -53 -16 -15 0
-149 -62 -205 -94 -14 -8 -63 -32 -110 -54 -47 -22 -112 -52 -145 -67 -33 -15
-89 -45 -125 -65 -36 -21 -99 -55 -140 -77 -82 -43 -122 -65 -130 -73 -3 -3
-16 -11 -29 -18 -13 -8 -40 -23 -60 -34 -20 -12 -52 -30 -71 -40 -20 -11 -50
-32 -69 -48 -18 -16 -40 -32 -49 -35 -10 -2 -22 -13 -29 -24 -10 -17 -9 -18
10 -13 12 2 27 8 32 12 6 3 30 12 55 19 67 19 292 91 315 101 34 15 94 28 275
59 174 30 177 30 275 15 128 -19 208 -49 257 -94 21 -20 38 -41 38 -46 0 -5 8
-14 19 -21 15 -10 26 -8 59 10 52 28 162 119 162 135 0 4 34 43 75 87 41 44
80 92 86 108 6 15 15 27 20 27 5 0 9 4 9 10 0 5 11 34 25 64 39 86 33 185 -15
236 -27 29 -32 30 -112 29 -67 0 -107 -8 -208 -38z m234 -100 c48 -19 25 -21
-69 -4 -73 12 -105 13 -170 4 -44 -6 -89 -11 -99 -11 -32 0 -5 18 34 23 63 9
274 0 304 -12z m-145 -157 c79 -19 142 -45 123 -52 -8 -2 -24 0 -35 5 -115 52
-334 65 -622 36 -33 -3 -57 -2 -52 2 24 26 487 33 586 9z m-346 -159 c92 -13
184 -32 205 -41 98 -44 123 -57 118 -61 -2 -2 -24 5 -48 16 -24 11 -57 23 -73
27 -17 4 -34 10 -40 14 -35 25 -334 54 -503 48 -73 -2 -132 -2 -132 -1 0 31
260 30 473 -2z"/>
<path d="M5572 7380 c0 -48 1 -52 10 -27 6 18 6 36 0 55 -9 24 -10 20 -10 -28z"/>
<path d="M5060 7289 c-9 -32 -8 -54 6 -110 9 -38 20 -69 25 -69 4 0 10 -9 14
-20 6 -19 67 -63 93 -66 22 -4 70 16 76 32 6 17 1 18 -25 3 -28 -14 -48 -5
-99 45 -75 74 -75 74 -74 153 1 40 0 73 -2 73 -2 0 -8 -18 -14 -41z"/>
<path d="M4831 7273 c0 -28 -5 -53 -10 -55 -5 -1 -12 -23 -16 -48 -4 -25 -13
-48 -20 -52 -7 -4 -15 -18 -18 -30 -6 -21 -53 -58 -74 -58 -4 0 -21 11 -36 25
-19 19 -27 22 -27 11 0 -18 39 -56 57 -56 30 0 80 29 113 66 32 36 35 45 38
114 2 41 2 89 -1 105 -3 20 -5 12 -6 -22z"/>
<path d="M4341 7285 c-14 -34 -10 -133 6 -143 6 -4 14 -24 18 -45 4 -20 11
-37 16 -37 5 0 9 -9 9 -19 0 -11 11 -33 25 -49 14 -17 25 -40 25 -52 0 -32 42
-67 89 -75 21 -3 47 -12 57 -20 15 -10 20 -10 31 1 7 7 13 17 13 22 0 9 -43
32 -61 32 -12 0 -119 79 -136 100 -7 8 -20 38 -28 65 -9 28 -21 60 -27 71 -6
12 -13 57 -17 100 -7 76 -8 78 -20 49z"/>
<path d="M4728 7296 c-21 -16 -58 -108 -58 -144 l1 -27 14 25 c8 14 14 33 15
43 0 9 9 25 20 34 11 10 20 23 20 30 0 7 4 13 9 13 5 0 11 9 14 20 6 23 -10
26 -35 6z"/>
<path d="M5160 7300 c-8 -5 -10 -10 -4 -10 6 0 21 -30 34 -67 12 -38 25 -70
28 -73 10 -10 -8 133 -19 146 -13 16 -19 17 -39 4z"/>
<path d="M5579 7275 c-1 -3 -2 -8 -3 -12 -1 -5 -4 -13 -8 -18 -3 -6 -12 -38
-19 -73 -7 -34 -16 -62 -20 -62 -4 0 -10 -16 -13 -35 -4 -19 -11 -35 -16 -35
-6 0 -10 -9 -10 -20 0 -43 40 -6 60 56 7 22 16 44 20 49 9 12 23 155 16 155
-3 0 -7 -2 -7 -5z"/>
<path d="M4825 6947 c-33 -11 -61 -24 -63 -28 -2 -5 -14 -9 -26 -9 -19 0 -72
-44 -113 -94 -21 -25 -27 -66 -11 -66 8 0 27 -11 42 -25 34 -31 37 -104 6
-135 -12 -12 -21 -35 -22 -57 -1 -37 -1 -37 -5 -5 -2 17 -8 32 -12 32 -19 0
-32 -29 -25 -57 8 -35 44 -116 54 -123 4 -3 14 -19 23 -35 34 -67 60 -82 165
-95 104 -14 232 -9 295 10 48 14 147 113 147 146 0 7 7 20 15 28 9 9 18 37 22
64 5 46 4 49 -31 72 -19 14 -38 31 -41 39 -3 8 11 35 32 60 68 82 65 75 48
112 -15 31 -16 32 -12 7 6 -41 -12 -34 -30 12 -9 22 -20 40 -25 40 -4 0 -8 5
-8 10 0 6 8 10 18 10 10 0 4 7 -15 16 -18 9 -33 20 -33 25 0 5 -6 9 -13 9 -8
0 -27 6 -43 14 -34 17 -194 46 -244 45 -19 -1 -62 -11 -95 -22z m111 -12 c-4
-13 -2 -14 14 -5 23 12 26 1 10 -31 -10 -18 -31 -27 -29 -11 4 21 -3 24 -16 6
-14 -19 -14 -19 -15 0 0 11 7 28 17 38 20 22 27 23 19 3z m-86 -25 c-38 -31
-53 -25 -23 9 9 12 27 21 38 21 17 0 15 -5 -15 -30z m166 -38 c-13 -12 -17 8
-10 40 l9 33 3 -33 c2 -19 1 -36 -2 -40z m107 27 c10 -11 16 -23 13 -26 -6 -6
-55 29 -56 40 0 15 26 6 43 -14z m-53 -21 c0 -5 -4 -8 -10 -8 -5 0 -10 10 -10
23 0 18 2 19 10 7 5 -8 10 -18 10 -22z m-360 -25 c-1 -10 -12 -31 -26 -48 -25
-29 -25 -29 -19 -5 8 27 32 70 40 70 3 0 5 -8 5 -17z m167 -75 c-2 -18 -4 -6
-4 27 0 33 2 48 4 33 2 -15 2 -42 0 -60z m303 59 c0 -1 4 -17 9 -35 12 -42 2
-40 -26 4 -29 44 -29 58 -3 44 11 -6 20 -12 20 -13z m66 -13 c3 -13 10 -24 15
-24 5 0 9 -4 9 -10 0 -5 -7 -10 -15 -10 -8 0 -15 6 -15 14 0 8 -4 16 -9 18 -4
2 -11 13 -15 25 -6 18 -4 22 8 17 9 -3 19 -17 22 -30z m-486 16 c0 -5 -4 -10
-9 -10 -5 0 -12 -11 -15 -24 -7 -29 -36 -43 -36 -18 0 10 8 28 18 40 18 23 42
29 42 12z m40 -20 c0 -16 -4 -30 -8 -30 -5 0 -13 -12 -19 -27 -9 -23 -11 -24
-12 -8 -1 30 19 95 29 95 6 0 10 -13 10 -30z m35 -36 c-8 -44 -25 -44 -25 1 0
19 5 35 10 35 6 0 11 8 11 18 1 15 2 15 6 -1 3 -11 2 -34 -2 -53z m130 26 c7
-43 -1 -84 -16 -75 -12 8 -12 115 0 115 5 0 12 -18 16 -40z m44 9 c14 -40 14
-72 1 -64 -5 3 -10 17 -10 31 0 13 -4 24 -10 24 -5 0 -10 9 -10 20 0 30 17 24
29 -11z m-89 -50 c0 -33 -4 -59 -10 -59 -6 0 -10 29 -10 66 0 41 4 63 10 59 6
-3 10 -33 10 -66z m171 49 c11 -11 19 -33 18 -47 0 -23 -1 -24 -9 -6 -7 18 -8
19 -15 3 -4 -10 -11 -15 -16 -12 -5 3 -7 10 -4 15 4 5 2 9 -3 9 -15 0 -23 43
-9 52 17 11 17 11 38 -14z m179 -92 c0 -13 -7 -26 -15 -30 -11 -4 -15 2 -15
24 0 20 5 30 15 30 9 0 15 -9 15 -24z m-535 -5 c3 -5 -1 -16 -9 -23 -8 -8 -16
-23 -19 -34 -3 -14 -5 -12 -6 8 -2 46 18 74 34 49z m405 -79 c0 -26 -6 -50
-15 -58 -13 -14 -15 -7 -15 62 0 71 1 76 15 58 8 -10 15 -38 15 -62z m50 -9
c0 -83 -5 -79 -13 10 -4 43 -3 66 3 62 6 -3 10 -36 10 -72z m-420 22 c0 -35
-3 -43 -15 -39 -18 7 -19 37 -3 64 7 11 14 20 15 20 2 0 3 -20 3 -45z m66 23
c-3 -13 -6 -38 -6 -56 0 -20 -4 -31 -10 -27 -5 3 -10 28 -10 56 0 38 3 49 16
49 12 0 15 -6 10 -22z m64 -52 c0 -25 -4 -46 -9 -46 -9 0 -21 56 -21 98 0 21
2 22 15 8 9 -9 15 -33 15 -60z m105 16 c0 -70 -19 -67 -23 4 -2 43 0 55 10 52
8 -3 13 -23 13 -56z m64 -24 c1 -27 -3 -48 -9 -48 -6 0 -10 29 -9 68 1 77 17
59 18 -20z m-136 40 c5 -29 5 -48 -2 -93 -4 -30 -21 28 -21 73 0 58 15 70 23
20z m-233 -113 c0 -30 -4 -55 -10 -55 -11 0 -14 93 -3 103 12 12 13 8 13 -48z
m124 -22 c9 -60 8 -99 -4 -87 -13 13 -22 124 -11 124 5 0 11 -17 15 -37z m-64
-33 c0 -33 -4 -60 -10 -60 -6 0 -10 27 -10 60 0 33 4 60 10 60 6 0 10 -27 10
-60z m109 -2 c-1 -35 -3 -54 -6 -43 -3 11 -9 24 -14 30 -12 12 -11 45 1 45 6
0 10 7 10 15 0 8 2 15 5 15 3 0 4 -28 4 -62z m210 -10 c-2 -77 -6 -69 -11 20
-2 28 0 52 5 52 4 0 6 -33 6 -72z m130 19 c0 -46 -12 -86 -21 -71 -9 15 4 124
13 118 5 -3 9 -24 8 -47z m35 -20 c-9 -67 -32 -70 -27 -4 3 29 7 59 9 67 11
31 24 -17 18 -63z m-94 14 c0 -54 -7 -81 -21 -81 -12 0 -11 57 1 65 14 9 12
52 -2 58 -8 3 -6 6 5 6 14 1 17 -8 17 -48z m142 -5 c-9 -18 -11 -16 -11 19 0
33 1 37 10 21 8 -12 8 -25 1 -40z m-325 -23 c-2 -16 -4 -5 -4 22 0 28 2 40 4
28 2 -13 2 -35 0 -50z m50 -40 c-2 -21 -4 -4 -4 37 0 41 2 58 4 38 2 -21 2
-55 0 -75z m-100 47 c0 -28 -3 -50 -8 -50 -5 0 -9 23 -9 50 0 65 15 65 17 0z
m-242 -50 c4 -16 11 -32 16 -35 5 -4 9 -14 9 -23 0 -14 -2 -14 -14 -2 -17 18
-38 90 -26 90 5 0 11 -13 15 -30z m65 -52 c0 -8 5 -19 12 -26 7 -7 8 -12 2
-12 -17 0 -44 40 -51 73 l-6 32 22 -27 c11 -14 21 -32 21 -40z m64 -35 c4 -13
3 -23 -2 -23 -10 0 -27 32 -38 70 l-6 25 19 -25 c11 -14 23 -35 27 -47z m36
25 c23 -47 23 -48 12 -48 -6 0 -25 31 -50 83 -2 4 1 7 7 7 6 0 20 -19 31 -42z
m404 27 c-4 -8 -10 -15 -15 -15 -5 0 -9 -6 -9 -13 0 -8 -9 -22 -20 -32 -28
-25 -25 -7 5 38 26 37 50 51 39 22z m-64 -21 c-6 -14 -18 -33 -27 -42 -15 -16
-16 -15 -9 11 7 29 25 56 38 57 4 0 3 -12 -2 -26z m-280 -24 c0 -22 -4 -40
-10 -40 -5 0 -10 18 -10 40 0 22 5 40 10 40 6 0 10 -18 10 -40z m216 3 c-7
-20 -18 -39 -26 -41 -7 -3 -11 -1 -8 4 2 5 10 24 17 42 18 44 33 41 17 -5z
m-160 -7 c6 -35 0 -56 -17 -56 -5 0 -9 20 -9 45 0 53 16 60 26 11z m119 2 c-4
-18 -14 -42 -22 -53 -13 -19 -14 -18 -7 10 10 43 23 75 30 75 3 0 2 -15 -1
-32z m-64 -40 c-9 -31 -9 -31 -10 -6 -1 30 11 67 16 51 2 -6 0 -26 -6 -45z"/>
<path d="M5450 6961 c0 -11 -91 -56 -133 -66 -33 -9 -33 -9 -2 -43 16 -17 28
-23 33 -16 4 5 25 18 47 28 49 23 72 46 81 80 5 20 2 26 -10 26 -9 0 -16 -4
-16 -9z"/>
<path d="M6014 6881 c-124 -19 -154 -26 -189 -41 -24 -10 -262 -84 -322 -100
-23 -5 -54 -17 -70 -25 -15 -8 -34 -15 -41 -15 -7 0 -35 -9 -62 -21 -65 -28
-77 -67 -30 -97 17 -10 20 -10 20 7 0 10 7 24 15 31 13 11 15 7 15 -27 0 -37
3 -41 39 -57 21 -10 83 -26 137 -36 55 -10 137 -29 184 -43 47 -14 103 -29
125 -32 22 -4 54 -11 70 -16 104 -30 544 -48 634 -26 69 18 132 90 139 157 7
73 -4 100 -60 161 -10 11 -18 22 -18 27 0 16 -87 101 -120 118 -93 46 -293 61
-466 35z m264 -107 c42 -15 90 -36 105 -47 20 -13 38 -18 61 -14 44 7 68 -8
27 -16 l-31 -7 22 -22 c13 -13 38 -33 56 -46 19 -12 44 -35 57 -50 13 -15 32
-38 44 -51 12 -13 21 -26 21 -29 0 -7 -30 19 -90 81 -31 31 -61 57 -66 57 -5
0 -20 12 -33 26 -23 24 -28 25 -94 18 -47 -5 -68 -4 -64 3 4 6 23 14 42 17 19
4 35 11 35 17 0 12 -68 43 -133 60 -26 7 -47 17 -47 21 0 11 4 11 88 -18z
m-304 -28 c19 -8 58 -30 87 -50 30 -20 65 -36 79 -37 22 0 23 -1 5 -8 -18 -7
-17 -10 14 -26 37 -19 162 -140 180 -173 15 -27 14 -53 -1 -27 -6 11 -18 28
-27 37 -9 9 -35 37 -58 61 -44 46 -125 109 -154 120 -18 6 -208 -8 -216 -17
-5 -4 9 -20 124 -139 25 -26 43 -50 40 -53 -5 -5 -43 31 -137 131 -35 38 -132
105 -150 105 -6 0 -10 4 -10 9 0 5 -11 12 -25 15 -14 4 -25 11 -25 17 0 6 3 9
8 7 4 -2 21 -10 37 -18 17 -8 45 -25 63 -39 31 -23 35 -23 102 -12 38 6 87 11
109 11 45 0 48 18 8 39 -12 6 -31 17 -42 23 -11 7 -29 19 -40 26 -26 16 -12
15 29 -2z m-391 -81 c20 -8 66 -15 102 -15 40 0 65 -4 65 -11 0 -7 -14 -8 -39
-4 -22 4 -47 3 -55 -2 -14 -7 -11 -14 16 -44 46 -50 78 -92 78 -103 0 -10 -37
28 -85 87 -42 51 -77 65 -155 61 -45 -3 -59 -1 -45 5 11 5 35 10 54 10 25 1
32 5 27 16 -3 8 -4 15 -2 15 2 0 20 -7 39 -15z"/>
<path d="M3660 6851 c-82 -12 -133 -32 -181 -71 -74 -60 -99 -91 -93 -117 5
-18 2 -23 -12 -23 -49 -1 -74 -51 -74 -146 0 -74 11 -90 87 -124 72 -34 182
-37 334 -11 68 11 153 23 189 26 143 11 140 10 370 86 63 20 134 40 157 44 24
4 61 15 83 26 34 17 40 24 41 52 0 30 1 30 10 9 7 -19 14 -22 31 -16 47 14 53
65 10 86 -55 28 -342 109 -492 140 -183 37 -362 52 -460 39z m71 -65 c-6 -8
-26 -19 -44 -26 -71 -28 -149 -91 -133 -108 3 -2 35 -6 70 -8 l66 -4 50 47
c52 48 127 96 142 91 5 -2 -16 -21 -48 -43 -32 -22 -72 -55 -89 -72 -18 -18
-37 -33 -43 -33 -6 0 -14 -9 -17 -20 -3 -11 -10 -20 -15 -20 -4 0 -10 -8 -12
-17 -8 -32 -12 -38 -30 -57 -10 -11 -18 -26 -18 -33 0 -7 -4 -13 -10 -13 -5 0
-10 -6 -10 -13 0 -8 -9 -25 -21 -38 l-21 -24 8 30 c4 17 10 32 13 35 12 10 61
90 61 100 0 5 4 10 9 10 5 0 14 13 19 29 l10 29 -71 4 c-65 3 -74 1 -97 -22
-15 -14 -35 -40 -45 -58 -11 -18 -23 -32 -28 -32 -5 0 1 13 12 29 12 16 21 34
21 40 0 6 4 11 10 11 5 0 12 11 16 25 3 14 9 25 13 25 3 0 25 18 49 39 23 22
75 55 115 75 82 40 84 41 68 22z m362 -43 c-18 -9 -33 -20 -33 -25 0 -4 -4 -8
-9 -8 -10 0 -71 -55 -71 -63 0 -3 24 -8 53 -10 46 -3 43 -4 -20 -5 -66 -2 -73
-4 -97 -33 -14 -17 -26 -37 -26 -45 0 -8 -4 -14 -9 -14 -5 0 -14 -13 -21 -30
-12 -29 -30 -41 -30 -20 0 6 4 10 9 10 5 0 12 12 16 27 3 14 15 38 26 51 26
34 24 50 -8 55 -22 3 -20 4 10 6 38 1 97 28 97 43 0 5 11 13 25 18 14 5 25 14
25 20 0 12 56 39 80 39 8 0 0 -8 -17 -16z m201 -46 c-2 -7 -26 -30 -52 -51
-26 -20 -63 -59 -81 -87 -41 -60 -53 -57 -18 4 38 65 170 181 151 134z m151
-67 c-4 -6 -49 -9 -108 -8 -83 1 -93 2 -52 8 81 11 167 11 160 0z"/>
<path d="M5280 6842 c0 -12 19 -26 26 -19 2 2 -2 10 -11 17 -9 8 -15 8 -15 2z"/>
<path d="M4555 6403 c-22 -8 -53 -14 -70 -14 -79 0 -173 -32 -218 -73 -53 -49
-20 -78 49 -44 21 11 66 24 99 29 59 9 113 20 187 40 l37 10 -17 34 c-9 19
-19 34 -22 34 -3 -1 -23 -8 -45 -16z"/>
<path d="M5315 6401 c-3 -12 -11 -21 -16 -21 -5 0 -9 -9 -9 -20 0 -17 7 -20
39 -20 21 0 67 -9 101 -20 34 -11 70 -20 80 -20 10 0 46 -9 80 -20 73 -23 79
-24 103 -6 15 12 16 17 6 34 -7 11 -27 25 -46 33 -18 7 -33 16 -33 20 0 11
-97 32 -185 39 -44 3 -87 10 -97 14 -12 5 -18 2 -23 -13z"/>
<path d="M5230 6283 c0 -4 9 -16 20 -28 35 -35 70 -83 70 -94 0 -6 4 -11 9
-11 5 0 13 -9 16 -21 9 -27 45 -69 60 -69 7 0 23 -9 37 -19 13 -11 58 -37 99
-59 l74 -39 -3 39 c-2 21 -8 38 -13 38 -5 0 -9 6 -9 14 0 7 -12 26 -28 42 -37
39 -221 169 -252 179 -14 4 -34 14 -45 21 -21 15 -35 18 -35 7z"/>
<path d="M5165 6247 c-11 -7 -23 -16 -27 -22 -4 -6 -70 -11 -150 -13 -115 -3
-152 0 -188 13 -87 32 -86 32 -119 -27 -17 -29 -40 -63 -51 -75 -11 -12 -20
-27 -20 -33 0 -6 -4 -18 -9 -28 -17 -33 -29 -67 -43 -117 -25 -95 -10 -476 22
-550 4 -11 14 -41 20 -67 7 -27 17 -48 21 -48 5 0 9 -8 9 -18 0 -9 16 -41 35
-71 19 -29 35 -56 35 -59 0 -4 15 -24 33 -44 17 -21 40 -48 49 -60 46 -61 67
-82 75 -74 4 5 2 11 -4 13 -18 6 -16 23 2 23 8 0 15 -3 15 -8 0 -9 116 -32
162 -32 18 0 40 4 48 10 8 5 19 5 25 0 6 -5 15 -6 20 -2 20 14 95 110 95 121
0 6 4 11 9 11 5 0 12 12 16 27 3 15 12 31 18 35 6 4 8 10 5 14 -8 7 -62 -12
-93 -33 -19 -13 -18 -14 8 -7 20 5 27 3 27 -9 0 -46 -259 -71 -350 -34 -25 11
-47 19 -50 19 -28 2 -51 21 -48 40 2 18 -3 24 -22 26 -20 3 -70 43 -70 57 0 7
65 -18 71 -27 15 -23 135 -31 280 -19 80 6 153 9 163 5 9 -3 23 -1 31 6 12 10
22 10 39 2 20 -9 25 -8 30 6 3 9 10 24 15 32 20 32 41 83 46 119 4 20 10 45
15 56 39 97 40 567 0 620 -4 6 -10 23 -14 39 -6 26 -61 117 -91 153 -5 7 -16
19 -23 28 -15 18 -39 19 -67 2z m-395 -183 c45 -15 93 -18 257 -18 149 -1 205
2 215 12 17 17 28 15 28 -4 0 -13 3 -14 14 -5 9 8 16 8 20 2 4 -5 -2 -14 -11
-20 -15 -9 -12 -11 17 -11 19 -1 28 -4 20 -7 -8 -3 -33 -13 -55 -23 -22 -10
-53 -21 -70 -25 -20 -6 -25 -9 -13 -12 9 -2 26 1 37 6 23 13 41 14 41 3 0 -17
-137 -52 -201 -52 -111 0 -335 56 -359 90 -3 4 -15 12 -27 19 -13 6 -23 21
-23 31 0 11 -4 20 -10 20 -5 0 -10 4 -10 10 0 13 62 6 130 -16z m-101 -279
c88 -22 440 -36 539 -20 44 7 90 16 101 20 12 3 31 3 42 0 17 -6 19 -9 8 -17
-11 -7 -11 -11 -1 -15 19 -7 15 -22 -15 -49 -24 -23 -25 -25 -9 -37 16 -11 13
-16 -26 -43 -55 -39 -95 -53 -177 -60 -88 -8 -282 10 -318 29 -15 8 -57 25
-92 38 -63 22 -120 63 -107 76 3 4 12 1 18 -5 7 -7 16 -12 20 -12 11 0 -21 31
-56 53 -36 24 -27 33 13 13 46 -24 61 -18 19 8 -21 12 -35 26 -31 29 8 9 6 9
72 -8z m5 -298 c3 3 20 -1 38 -10 18 -8 51 -19 73 -22 22 -4 45 -11 50 -15 53
-40 328 -37 420 4 60 27 82 28 88 4 8 -29 -3 -47 -58 -93 -57 -49 -109 -63
-270 -71 -119 -6 -121 -6 -221 29 -118 41 -175 68 -156 75 8 2 19 -1 25 -7 6
-6 17 -11 24 -11 19 0 -20 36 -49 45 -52 16 -63 42 -20 47 l27 4 -27 14 c-42
20 -34 31 11 15 22 -7 42 -11 45 -8z"/>
<path d="M5178 5593 c6 -2 18 -2 25 0 6 3 1 5 -13 5 -14 0 -19 -2 -12 -5z"/>
<path d="M5696 6252 c-13 -12 -5 -33 24 -62 17 -17 30 -37 30 -45 0 -8 6 -18
14 -22 7 -4 19 -26 26 -48 7 -22 16 -42 20 -45 4 -3 16 -25 26 -49 19 -42 20
-43 37 -26 13 13 16 26 11 49 -3 17 -9 33 -13 36 -3 3 -17 32 -30 64 -23 56
-33 71 -83 123 -22 22 -53 35 -62 25z"/>
<path d="M4177 6238 c-19 -15 -97 -168 -97 -191 0 -9 -4 -17 -9 -19 -5 -1 -11
-21 -13 -43 -2 -31 1 -40 15 -43 12 -2 20 3 24 17 3 12 9 21 13 21 4 0 13 25
20 55 7 30 17 55 22 55 4 0 8 6 8 13 0 7 9 30 20 52 11 22 20 45 20 52 0 7 5
13 10 13 6 0 10 7 10 15 0 18 -20 19 -43 3z"/>
<path d="M5620 5921 c0 -5 7 -12 16 -15 24 -9 28 -7 14 9 -14 17 -30 20 -30 6z"/>
<path d="M4052 5898 c-8 -8 -12 -52 -11 -137 1 -95 3 -116 10 -86 4 22 8 63 8
92 1 28 6 55 11 58 12 7 14 85 2 85 -4 0 -13 -5 -20 -12z"/>
<path d="M4237 5498 c3 -18 9 -35 13 -38 4 -3 10 -14 13 -25 2 -11 5 6 6 38 1
50 -1 57 -19 57 -17 0 -19 -5 -13 -32z"/>
<path d="M4275 5110 c-9 -16 -20 -30 -25 -30 -6 0 -10 -7 -10 -15 0 -36 48 1
56 44 8 39 -1 40 -21 1z"/>
<path d="M5627 5283 c-11 -10 -8 -83 3 -83 6 0 10 20 10 45 0 46 -2 50 -13 38z"/>
<path d="M5650 5102 c0 -15 18 -34 29 -31 7 3 3 11 -9 21 -11 10 -20 14 -20
10z"/>
<path d="M2540 3700 l0 -570 136 0 c120 0 135 2 130 16 -3 9 -6 108 -6 220 l0
204 -25 0 c-22 0 -25 4 -25 38 0 28 -7 45 -25 62 l-26 24 26 23 c17 17 25 34
25 58 0 30 3 35 24 35 l25 0 3 218 c2 119 1 223 -1 230 -2 9 -37 12 -132 12
l-129 0 0 -570z"/>
<path d="M2940 4040 l0 -230 25 0 c21 0 25 -5 25 -32 0 -21 9 -41 27 -60 l27
-28 -28 -29 c-15 -16 -28 -32 -27 -35 6 -39 -1 -56 -24 -56 l-25 0 0 -220 0
-220 2070 0 2070 0 0 220 0 220 -30 0 c-28 0 -30 3 -30 37 0 24 -8 45 -22 60
l-21 23 23 25 c16 17 24 37 23 60 -1 30 2 34 26 37 l26 3 0 225 0 225 -2067 3
-2068 2 0 -230z m3154 -44 c108 -53 169 -157 169 -290 1 -96 -27 -170 -87
-229 -66 -67 -108 -82 -221 -82 -84 0 -107 3 -142 22 -125 67 -193 215 -164
355 15 68 64 152 113 191 89 72 225 85 332 33z m-2486 9 c8 -3 12 -24 12 -61
0 -55 -3 -62 -104 -218 -57 -89 -107 -167 -111 -175 -7 -12 11 -13 109 -9
l116 5 0 -41 c0 -22 -3 -58 -6 -78 l-7 -38 -112 0 c-61 0 -153 3 -202 6 l-90
7 -6 56 c-7 62 -16 44 142 293 33 53 61 102 61 107 0 7 -36 11 -100 11 -114 0
-111 -3 -89 99 l10 49 182 -5 c100 -2 188 -6 195 -8z m632 -155 c67 -94 125
-168 129 -165 5 2 6 77 3 165 l-5 161 88 -3 88 -3 -2 -300 c-1 -165 -5 -303
-7 -307 -6 -10 -79 -10 -124 -2 -27 6 -50 31 -147 161 -64 84 -118 151 -120
149 -3 -2 -4 -72 -4 -155 l2 -151 -88 0 -88 0 0 305 -1 304 51 4 c27 2 62 4
77 5 24 2 40 -16 148 -168z m-360 -145 l0 -306 -92 3 -93 3 1 50 c1 28 2 164
3 303 l1 252 90 0 90 0 0 -305z m1170 232 l0 -70 -71 5 -72 6 5 -238 c5 -236
5 -238 -16 -244 -32 -9 -139 -7 -154 3 -11 6 -13 59 -12 243 l1 235 -71 -5
-71 -5 7 64 c3 35 8 66 9 69 2 3 103 5 224 6 l221 1 0 -70z m448 47 c70 -35
95 -72 100 -150 5 -79 -10 -125 -55 -164 l-35 -31 45 -97 c71 -154 74 -142
-33 -142 l-92 0 -11 32 c-7 17 -26 63 -42 102 -29 69 -31 71 -69 74 l-38 3 7
-106 7 -106 -93 3 -94 3 0 297 c0 189 4 300 10 302 6 3 84 5 176 5 158 1 167
0 217 -25z m1196 12 c106 -32 159 -109 158 -228 -1 -161 -93 -238 -284 -238
l-60 0 7 -65 c9 -78 6 -80 -99 -70 l-73 6 -6 297 c-3 163 -3 300 -1 304 9 14
307 9 358 -6z"/>
<path d="M5892 3851 c-89 -57 -106 -182 -33 -263 22 -24 37 -32 77 -35 86 -9
144 39 159 128 21 125 -105 231 -203 170z"/>
<path d="M5277 3873 c-4 -3 -7 -37 -7 -74 0 -65 1 -69 26 -75 63 -16 134 19
134 66 0 42 -19 69 -57 79 -43 12 -87 14 -96 4z"/>
<path d="M6517 3864 c-13 -22 -18 -79 -12 -129 l7 -55 58 0 c81 0 105 21 105
89 0 68 -24 93 -98 99 -30 2 -57 0 -60 -4z"/>
<path d="M7215 4258 c-3 -8 -4 -110 -3 -228 l3 -215 28 -3 c23 -3 27 -8 27
-37 0 -24 8 -41 25 -58 l26 -23 -26 -24 c-18 -17 -25 -34 -25 -61 0 -34 -3
-38 -27 -41 l-28 -3 -3 -217 -2 -218 135 0 135 0 -2 568 -3 567 -128 3 c-98 2
-129 0 -132 -10z"/>
<path d="M3418 2819 c-6 -4 8 -25 34 -50 54 -52 246 -156 608 -329 140 -67
256 -123 258 -125 2 -1 -4 -30 -12 -63 -9 -33 -16 -81 -16 -107 0 -43 -1 -46
-22 -40 -73 22 -762 361 -860 423 -83 53 -183 159 -223 235 l-30 57 -294 0
-293 0 7 -47 c30 -198 135 -415 247 -506 114 -92 713 -389 1698 -840 91 -41
230 -106 310 -143 80 -37 159 -67 175 -67 17 0 153 56 319 132 158 72 289 131
291 131 2 0 54 24 117 54 62 29 203 95 313 146 299 138 1011 493 1080 538 160
105 251 254 306 502 10 47 19 88 19 93 0 4 -132 7 -294 7 l-295 0 -22 -46
c-36 -71 -108 -154 -184 -212 -86 -65 -908 -477 -919 -460 -1 2 -8 41 -14 88
-7 47 -15 95 -18 107 -6 20 2 27 77 60 46 20 227 108 401 195 234 117 330 171
367 204 28 25 51 50 51 55 0 10 -3166 18 -3182 8z m1782 -229 c141 -57 228
-133 294 -260 62 -118 80 -246 51 -369 -72 -305 -370 -488 -669 -411 -99 25
-157 57 -239 131 -55 49 -75 77 -112 152 -84 171 -85 317 -4 485 64 133 164
222 308 276 84 32 107 35 212 30 66 -3 103 -10 159 -34z"/>
<path d="M4947 2503 c-9 -8 -9 -70 -1 -100 6 -22 12 -23 93 -23 126 0 189 -18
355 -98 5 -3 -5 15 -22 39 -59 86 -140 146 -232 173 -53 16 -181 22 -193 9z"/>
<path d="M4832 2475 c-30 -14 -67 -34 -83 -46 -27 -19 -29 -24 -29 -92 0 -94
22 -185 66 -272 61 -122 56 -120 124 -47 33 35 62 73 66 84 3 12 -5 43 -20 78
-28 61 -57 224 -51 284 4 43 -2 44 -73 11z"/>
<path d="M4621 2271 c-63 -128 -66 -248 -7 -377 l25 -53 53 22 c114 48 137 69
105 96 -8 6 -30 46 -51 89 -38 83 -66 189 -66 260 0 23 -4 42 -9 42 -6 0 -28
-36 -50 -79z"/>
<path d="M4957 2333 c-8 -13 16 -93 46 -153 l22 -45 68 -7 c93 -11 179 -41
266 -95 59 -37 75 -43 83 -32 12 18 4 169 -11 197 -14 27 -117 84 -201 112
-73 24 -263 40 -273 23z"/>
<path d="M4991 2049 c-53 -77 -152 -162 -242 -207 l-79 -40 27 -29 c16 -16 47
-42 70 -57 39 -26 45 -27 80 -16 139 45 289 168 351 290 l33 65 -28 12 c-15 6
-53 14 -83 18 -30 3 -64 8 -75 10 -15 3 -29 -9 -54 -46z"/>
<path d="M5230 1972 c-50 -97 -160 -208 -260 -263 -43 -24 -80 -47 -80 -51 0
-11 109 -21 173 -15 126 11 270 113 336 237 l32 59 -43 32 c-37 26 -111 69
-120 69 -2 0 -19 -30 -38 -68z"/>
</g>
</svg>
